<?xml version="1.0" encoding="UTF-8"?>
<svg version="1.1" xmlns="http://www.w3.org/2000/svg" width="512" height="512">
<path d="M0 0 C1.70043945 1.16333008 1.70043945 1.16333008 3 3 C3.34057617 5.63549805 3.34057617 5.63549805 3.29296875 8.76171875 C3.28330078 9.87998047 3.27363281 10.99824219 3.26367188 12.15039062 C3.23853516 13.31763672 3.21339844 14.48488281 3.1875 15.6875 C3.16719727 17.45577148 3.16719727 17.45577148 3.14648438 19.25976562 C3.11109645 22.17337133 3.05728911 25.08674264 3 28 C9.27 28 15.54 28 22 28 C21.96519531 26.31390625 21.93039062 24.6278125 21.89453125 22.890625 C21.86639314 20.67709329 21.839093 18.46355081 21.8125 16.25 C21.78736328 15.13882812 21.76222656 14.02765625 21.73632812 12.8828125 C21.72666016 11.81289063 21.71699219 10.74296875 21.70703125 9.640625 C21.6913208 8.65610352 21.67561035 7.67158203 21.65942383 6.65722656 C22.05844521 3.54400169 22.77352799 2.19290711 25 0 C30.9216597 -0.74020746 30.9216597 -0.74020746 33.70043945 1.16723633 C35.534741 3.75414252 35.34092334 5.61270062 35.29296875 8.76171875 C35.28330078 9.87998047 35.27363281 10.99824219 35.26367188 12.15039062 C35.23853516 13.31763672 35.21339844 14.48488281 35.1875 15.6875 C35.16719727 17.45577148 35.16719727 17.45577148 35.14648438 19.25976562 C35.11109645 22.17337133 35.05728911 25.08674264 35 28 C41.6 28 48.2 28 55 28 C54.97679687 26.14632813 54.95359375 24.29265625 54.9296875 22.3828125 C54.91093349 19.96354568 54.8927329 17.54427452 54.875 15.125 C54.85824219 13.90167969 54.84148437 12.67835938 54.82421875 11.41796875 C54.81777344 10.25136719 54.81132812 9.08476562 54.8046875 7.8828125 C54.79421387 6.80402832 54.78374023 5.72524414 54.77294922 4.61376953 C55 2 55 2 57 0 C58.875 -0.265625 58.875 -0.265625 61 -0.25 C61.70125 -0.25515625 62.4025 -0.2603125 63.125 -0.265625 C65 0 65 0 67 2 C68.06036246 5.08362605 68.11650641 7.96089694 68.09765625 11.203125 C68.09443359 12.1828125 68.09121094 13.1625 68.08789062 14.171875 C68.07951172 15.18765625 68.07113281 16.2034375 68.0625 17.25 C68.05798828 18.28125 68.05347656 19.3125 68.04882812 20.375 C68.03706103 22.91669154 68.0191261 25.45835318 68 28 C74.27 28 80.54 28 87 28 C86.96519531 26.23011719 86.93039062 24.46023438 86.89453125 22.63671875 C86.86639688 20.32032197 86.83909634 18.00391495 86.8125 15.6875 C86.78736328 14.52025391 86.76222656 13.35300781 86.73632812 12.15039062 C86.72182617 10.47299805 86.72182617 10.47299805 86.70703125 8.76171875 C86.68346558 7.2142395 86.68346558 7.2142395 86.65942383 5.63549805 C87 3 87 3 88.29956055 1.16723633 C91.1832715 -0.81223561 93.63423388 -0.42072077 97 0 C99.22647201 2.19290711 99.94155479 3.54400169 100.34057617 6.65722656 C100.32486572 7.64174805 100.30915527 8.62626953 100.29296875 9.640625 C100.28330078 10.71054687 100.27363281 11.78046875 100.26367188 12.8828125 C100.23853516 13.99398438 100.21339844 15.10515625 100.1875 16.25 C100.17396484 17.37664062 100.16042969 18.50328125 100.14648438 19.6640625 C100.11115645 22.44319264 100.0618252 25.22135363 100 28 C100.58950439 27.97679687 101.17900879 27.95359375 101.78637695 27.9296875 C108.69062601 27.77166647 113.27836105 28.97833866 119 33 C124.39787258 38.31996514 126.95875899 44.07797984 127.0390625 51.71484375 C127.02617187 52.79894531 127.01328125 53.88304687 127 55 C127.74161377 54.98428955 128.48322754 54.9685791 129.24731445 54.95239258 C132.60229896 54.89009286 135.95716186 54.85102493 139.3125 54.8125 C140.47974609 54.78736328 141.64699219 54.76222656 142.84960938 54.73632812 C143.96787109 54.72666016 145.08613281 54.71699219 146.23828125 54.70703125 C147.26993408 54.6913208 148.30158691 54.67561035 149.36450195 54.65942383 C152 55 152 55 153.84057617 56.33081055 C155.62591857 58.90111714 155.31685193 60.95822145 155 64 C153 67 153 67 150 68 C148.22686149 68.08209792 146.45079225 68.10746294 144.67578125 68.09765625 C143.64775391 68.09443359 142.61972656 68.09121094 141.56054688 68.08789062 C140.48869141 68.07951172 139.41683594 68.07113281 138.3125 68.0625 C137.22904297 68.05798828 136.14558594 68.05347656 135.02929688 68.04882812 C132.35284106 68.03703757 129.67641361 68.01910208 127 68 C127 74.27 127 80.54 127 87 C128.68609375 86.95359375 130.3721875 86.9071875 132.109375 86.859375 C134.32289897 86.82185764 136.53644207 86.78545745 138.75 86.75 C139.86117187 86.71648437 140.97234375 86.68296875 142.1171875 86.6484375 C143.18710937 86.63554687 144.25703125 86.62265625 145.359375 86.609375 C146.83615723 86.5779541 146.83615723 86.5779541 148.34277344 86.54589844 C151.76496135 87.13072658 152.9439885 88.24521335 155 91 C154.9375 94.625 154.9375 94.625 154 98 C150.60102327 100.26598448 149.43680827 100.23742654 145.45703125 100.1953125 C144.38388672 100.18886719 143.31074219 100.18242187 142.20507812 100.17578125 C140.52575195 100.15064453 140.52575195 100.15064453 138.8125 100.125 C137.68134766 100.11597656 136.55019531 100.10695313 135.38476562 100.09765625 C132.58975371 100.07406965 129.79485041 100.03819841 127 100 C127 106.27 127 112.54 127 119 C128.61390625 118.97679687 130.2278125 118.95359375 131.890625 118.9296875 C134.01041204 118.91092832 136.13020409 118.89272828 138.25 118.875 C139.31347656 118.85824219 140.37695312 118.84148437 141.47265625 118.82421875 C143.00986328 118.81455078 143.00986328 118.81455078 144.578125 118.8046875 C145.52075195 118.79421387 146.46337891 118.78374023 147.43457031 118.77294922 C150.13506607 119.01195389 151.73292865 119.53635819 154 121 C155.39935013 123.79870027 155.25265405 125.90498792 155 129 C153.84448242 130.6730957 153.84448242 130.6730957 152 132 C149.36450195 132.34057617 149.36450195 132.34057617 146.23828125 132.29296875 C145.12001953 132.28330078 144.00175781 132.27363281 142.84960938 132.26367188 C141.68236328 132.23853516 140.51511719 132.21339844 139.3125 132.1875 C138.13365234 132.17396484 136.95480469 132.16042969 135.74023438 132.14648438 C132.82662867 132.11109645 129.91325736 132.05728911 127 132 C127 138.6 127 145.2 127 152 C128.76988281 151.96519531 130.53976562 151.93039062 132.36328125 151.89453125 C134.67967803 151.86639688 136.99608505 151.83909634 139.3125 151.8125 C140.47974609 151.78736328 141.64699219 151.76222656 142.84960938 151.73632812 C144.52700195 151.72182617 144.52700195 151.72182617 146.23828125 151.70703125 C147.7857605 151.68346558 147.7857605 151.68346558 149.36450195 151.65942383 C152 152 152 152 153.83666992 153.33081055 C155.64719085 155.92861361 155.38404352 157.92765183 155 161 C153.14657225 163.55949546 152.06243607 163.97918798 149 165 C147.29983156 165.08178114 145.59663703 165.10749501 143.89453125 165.09765625 C142.91162109 165.09443359 141.92871094 165.09121094 140.91601562 165.08789062 C139.89185547 165.07951172 138.86769531 165.07113281 137.8125 165.0625 C136.25885742 165.05573242 136.25885742 165.05573242 134.67382812 165.04882812 C132.11582734 165.0370401 129.55794267 165.02058515 127 165 C127.04640625 166.5778125 127.04640625 166.5778125 127.09375 168.1875 C126.94336443 174.30317987 125.21284383 179.48687464 121.12890625 184.125 C115.91972035 188.85167152 111.82767049 190.8726453 104.8359375 191.5390625 C103.93149902 191.62623535 103.02706055 191.7134082 102.09521484 191.80322266 C101.40379395 191.86815918 100.71237305 191.9330957 100 192 C100.02618408 192.6705542 100.05236816 193.3411084 100.0793457 194.03198242 C100.18357238 197.08358128 100.24840623 200.13480542 100.3125 203.1875 C100.35439453 204.24259766 100.39628906 205.29769531 100.43945312 206.38476562 C100.56294794 214.21433696 100.56294794 214.21433696 97.6796875 218.23828125 C95 220 95 220 91.8125 220 C89 219 89 219 87 216 C86.77294922 213.45629883 86.77294922 213.45629883 86.8046875 210.45703125 C86.81435547 208.84731445 86.81435547 208.84731445 86.82421875 207.20507812 C86.84935547 205.52575195 86.84935547 205.52575195 86.875 203.8125 C86.88402344 202.68134766 86.89304687 201.55019531 86.90234375 200.38476562 C86.92593035 197.58975371 86.96180159 194.79485041 87 192 C80.73 192 74.46 192 68 192 C68.03480469 193.53011719 68.06960938 195.06023437 68.10546875 196.63671875 C68.13361177 198.65363484 68.16091137 200.67056282 68.1875 202.6875 C68.21263672 203.69490234 68.23777344 204.70230469 68.26367188 205.74023438 C68.35805751 215.27318383 68.35805751 215.27318383 65 219 C62.0625 220 62.0625 220 59 220 C56.83300781 218.86010742 56.83300781 218.86010742 55 217 C54.54589844 214.36450195 54.54589844 214.36450195 54.609375 211.23828125 C54.62226563 210.12001953 54.63515625 209.00175781 54.6484375 207.84960938 C54.68195313 206.68236328 54.71546875 205.51511719 54.75 204.3125 C54.76804687 203.13365234 54.78609375 201.95480469 54.8046875 200.74023438 C54.85187384 197.82647764 54.92361766 194.91313759 55 192 C48.4 192 41.8 192 35 192 C35.04640625 193.68609375 35.0928125 195.3721875 35.140625 197.109375 C35.17814236 199.32289897 35.21454255 201.53644207 35.25 203.75 C35.28351563 204.86117187 35.31703125 205.97234375 35.3515625 207.1171875 C35.37089844 208.72207031 35.37089844 208.72207031 35.390625 210.359375 C35.4220459 211.83615723 35.4220459 211.83615723 35.45410156 213.34277344 C34.87151905 216.75182081 33.72240205 217.9302874 31 220 C27.9375 220 27.9375 220 25 219 C22.03820233 215.93442435 21.63710227 213.77386381 21.70703125 209.578125 C21.71669922 208.55332031 21.72636719 207.52851563 21.73632812 206.47265625 C21.76146484 205.40917969 21.78660156 204.34570312 21.8125 203.25 C21.82603516 202.17105469 21.83957031 201.09210938 21.85351562 199.98046875 C21.88883027 197.32009879 21.94263609 194.65998587 22 192 C15.73 192 9.46 192 3 192 C3.04640625 193.68609375 3.0928125 195.3721875 3.140625 197.109375 C3.17814236 199.32289897 3.21454255 201.53644207 3.25 203.75 C3.28351563 204.86117187 3.31703125 205.97234375 3.3515625 207.1171875 C3.37089844 208.72207031 3.37089844 208.72207031 3.390625 210.359375 C3.4220459 211.83615723 3.4220459 211.83615723 3.45410156 213.34277344 C2.86927342 216.76496135 1.75478665 217.9439885 -1 220 C-4.625 219.9375 -4.625 219.9375 -8 219 C-10.26598448 215.60102327 -10.23742654 214.43680827 -10.1953125 210.45703125 C-10.18886719 209.38388672 -10.18242187 208.31074219 -10.17578125 207.20507812 C-10.15902344 206.08552734 -10.14226562 204.96597656 -10.125 203.8125 C-10.11597656 202.68134766 -10.10695313 201.55019531 -10.09765625 200.38476562 C-10.07406862 197.58963172 -10.041153 194.79492155 -10 192 C-10.74403076 191.95246582 -11.48806152 191.90493164 -12.25463867 191.85595703 C-13.2366626 191.78231934 -14.21868652 191.70868164 -15.23046875 191.6328125 C-16.20137451 191.56465332 -17.17228027 191.49649414 -18.17260742 191.42626953 C-24.90441218 190.41135449 -29.6988653 185.9367568 -33.8125 180.75 C-37.28753077 175.62890202 -37.060756 170.92370963 -37 165 C-37.64026123 165.01047363 -38.28052246 165.02094727 -38.94018555 165.03173828 C-41.85591671 165.07344815 -44.77158495 165.09937363 -47.6875 165.125 C-48.69490234 165.14175781 -49.70230469 165.15851563 -50.74023438 165.17578125 C-51.71669922 165.18222656 -52.69316406 165.18867188 -53.69921875 165.1953125 C-55.04246216 165.21102295 -55.04246216 165.21102295 -56.4128418 165.22705078 C-59.29916568 164.97374501 -61.41204259 164.29072216 -64 163 C-65.39935013 160.20129973 -65.25265405 158.09501208 -65 155 C-63.84448242 153.3269043 -63.84448242 153.3269043 -62 152 C-59.36450195 151.65942383 -59.36450195 151.65942383 -56.23828125 151.70703125 C-55.12001953 151.71669922 -54.00175781 151.72636719 -52.84960938 151.73632812 C-51.68236328 151.76146484 -50.51511719 151.78660156 -49.3125 151.8125 C-48.13365234 151.82603516 -46.95480469 151.83957031 -45.74023438 151.85351562 C-42.82662867 151.88890355 -39.91325736 151.94271089 -37 152 C-37 145.4 -37 138.8 -37 132 C-38.76988281 132.03480469 -40.53976562 132.06960938 -42.36328125 132.10546875 C-44.67967803 132.13360312 -46.99608505 132.16090366 -49.3125 132.1875 C-50.47974609 132.21263672 -51.64699219 132.23777344 -52.84960938 132.26367188 C-53.96787109 132.27333984 -55.08613281 132.28300781 -56.23828125 132.29296875 C-57.7857605 132.31653442 -57.7857605 132.31653442 -59.36450195 132.34057617 C-62 132 -62 132 -63.83276367 130.70043945 C-65.81223561 127.8167285 -65.42072077 125.36576612 -65 122 C-62.80709289 119.77352799 -61.45599831 119.05844521 -58.34277344 118.65942383 C-56.86599121 118.6829895 -56.86599121 118.6829895 -55.359375 118.70703125 C-54.28945313 118.71669922 -53.21953125 118.72636719 -52.1171875 118.73632812 C-50.45042969 118.7740332 -50.45042969 118.7740332 -48.75 118.8125 C-47.06003906 118.83280273 -47.06003906 118.83280273 -45.3359375 118.85351562 C-42.55708719 118.88883999 -39.77848293 118.94264599 -37 119 C-37 112.73 -37 106.46 -37 100 C-39.65482422 100.05220703 -39.65482422 100.05220703 -42.36328125 100.10546875 C-44.67967803 100.13360312 -46.99608505 100.16090366 -49.3125 100.1875 C-51.06336914 100.22520508 -51.06336914 100.22520508 -52.84960938 100.26367188 C-54.52700195 100.27817383 -54.52700195 100.27817383 -56.23828125 100.29296875 C-57.26993408 100.3086792 -58.30158691 100.32438965 -59.36450195 100.34057617 C-62 100 -62 100 -63.83666992 98.70043945 C-65.78708223 95.84952198 -65.35683777 93.33048583 -65 90 C-63.83666992 88.29956055 -63.83666992 88.29956055 -62 87 C-59.36450195 86.65942383 -59.36450195 86.65942383 -56.23828125 86.70703125 C-55.12001953 86.71669922 -54.00175781 86.72636719 -52.84960938 86.73632812 C-51.68236328 86.76146484 -50.51511719 86.78660156 -49.3125 86.8125 C-48.13365234 86.82603516 -46.95480469 86.83957031 -45.74023438 86.85351562 C-42.82662867 86.88890355 -39.91325736 86.94271089 -37 87 C-37 80.73 -37 74.46 -37 68 C-38.68609375 68.03480469 -40.3721875 68.06960938 -42.109375 68.10546875 C-44.32290671 68.13360686 -46.53644919 68.160907 -48.75 68.1875 C-49.86117188 68.21263672 -50.97234375 68.23777344 -52.1171875 68.26367188 C-53.18710937 68.27333984 -54.25703125 68.28300781 -55.359375 68.29296875 C-56.34389648 68.3086792 -57.32841797 68.32438965 -58.34277344 68.34057617 C-61.45599831 67.94155479 -62.80709289 67.22647201 -65 65 C-65.74020746 59.0783403 -65.74020746 59.0783403 -63.83276367 56.29956055 C-61.24585748 54.465259 -59.38729938 54.65907666 -56.23828125 54.70703125 C-55.12001953 54.71669922 -54.00175781 54.72636719 -52.84960938 54.73632812 C-51.09874023 54.7740332 -51.09874023 54.7740332 -49.3125 54.8125 C-48.13365234 54.82603516 -46.95480469 54.83957031 -45.74023438 54.85351562 C-42.82636589 54.88890674 -39.91341055 54.93828191 -37 55 C-37.02392822 54.41049561 -37.04785645 53.82099121 -37.07250977 53.21362305 C-37.25370276 45.53684435 -35.51119803 39.96030475 -30.3203125 34.10546875 C-25.42872089 29.63781508 -20.94246639 27.90070357 -14.3046875 27.9609375 C-13.49757324 27.96657715 -12.69045898 27.9722168 -11.85888672 27.97802734 C-11.2454541 27.98527832 -10.63202148 27.9925293 -10 28 C-10.01571045 27.25838623 -10.0314209 26.51677246 -10.04760742 25.75268555 C-10.10990714 22.39770104 -10.14897507 19.04283814 -10.1875 15.6875 C-10.21263672 14.52025391 -10.23777344 13.35300781 -10.26367188 12.15039062 C-10.27333984 11.03212891 -10.28300781 9.91386719 -10.29296875 8.76171875 C-10.3086792 7.73006592 -10.32438965 6.69841309 -10.34057617 5.63549805 C-10 3 -10 3 -8.70043945 1.16333008 C-5.84952198 -0.78708223 -3.33048583 -0.35683777 0 0 Z M19.87475586 66.50488281 C17.23106699 68.61322382 16.36354856 70.83188196 15.00390625 73.921875 C14.59884857 74.82833771 14.59884857 74.82833771 14.18560791 75.75311279 C13.2986356 77.74676151 12.4305214 79.7480362 11.5625 81.75 C10.94919478 83.13912884 10.33484134 84.52779532 9.71948242 85.91601562 C8.11744924 89.54040239 6.53236857 93.17192339 4.95336914 96.80639648 C4.01350159 98.96893424 3.07070032 101.1301685 2.12695312 103.29101562 C-1.191318 110.89181173 -4.49363534 118.49925636 -7.76049805 126.12231445 C-8.50203813 127.84390849 -9.25097629 129.56238733 -10.01489258 131.27416992 C-11.69695586 135.05398165 -12.48530731 137.82635717 -12 142 C-10.12052548 144.26313679 -10.12052548 144.26313679 -7.125 144.5 C-6.09375 144.335 -5.0625 144.17 -4 144 C0.93472487 136.99243943 0.93472487 136.99243943 6 124 C16.89 124 27.78 124 39 124 C42.875 132.875 42.875 132.875 44.08544922 135.66748047 C44.40529785 136.39338379 44.72514648 137.11928711 45.0546875 137.8671875 C45.37937012 138.61081543 45.70405273 139.35444336 46.03857422 140.12060547 C46.96590354 142.17089061 46.96590354 142.17089061 49 144 C53.34194936 143.90304884 53.34194936 143.90304884 57 142 C57.69167112 136.21568078 55.5797847 132.01072507 53.23046875 126.88671875 C52.83818588 126.007276 52.44590302 125.12783325 52.04173279 124.22174072 C50.76774215 121.37202606 49.47824787 118.52965911 48.1875 115.6875 C47.31012361 113.73877278 46.43366072 111.78963402 45.55810547 109.84008789 C44.25293206 106.93396796 42.94707549 104.02818889 41.63677979 101.12437439 C39.17816777 95.66729188 36.77789254 90.19215553 34.46484375 84.671875 C33.72681519 82.92644409 33.72681519 82.92644409 32.97387695 81.14575195 C32.09855847 79.06384062 31.23563895 76.97665618 30.38745117 74.88354492 C29.81281128 73.53160034 29.81281128 73.53160034 29.2265625 72.15234375 C28.91283691 71.38913818 28.59911133 70.62593262 28.27587891 69.83959961 C26.14140738 66.76205599 23.54091306 65.63393358 19.87475586 66.50488281 Z M63.06982422 73.32910156 C61.71797168 75.09934145 61.71797168 75.09934145 62.0625 78.0625 C62.71555339 81.00602568 62.71555339 81.00602568 64.625 82.375 C67.71894357 83.29690885 67.71894357 83.29690885 74 83 C74 99.5 74 116 74 133 C71.36 133 68.72 133 66 133 C63.30861457 134.44014926 63.30861457 134.44014926 62 137 C61.98629873 140.17037671 61.98629873 140.17037671 63 143 C67.3071282 145.1535641 73.02123414 144.26805397 77.8034668 144.29516602 C79.92627107 144.31240879 82.04752907 144.35630239 84.16992188 144.40039062 C85.51821772 144.41051539 86.86652679 144.41903217 88.21484375 144.42578125 C89.44323975 144.44036377 90.67163574 144.45494629 91.93725586 144.4699707 C95.0711547 144.28704176 95.0711547 144.28704176 96.96313477 142.13745117 C98.28799455 139.98054282 98.28799455 139.98054282 97.375 137.375 C96.07948232 134.73365529 96.07948232 134.73365529 93 133 C90.36 133 87.72 133 85 133 C85 116.5 85 100 85 83 C87.64 83 90.28 83 93 83 C96.00333267 80.66663334 96.00333267 80.66663334 98 78 C96.91215032 74.75016865 96.91215032 74.75016865 95 72 C90.76128682 71.75778782 86.51684019 71.77148369 82.27197266 71.75976562 C80.14055196 71.75007074 78.01009992 71.71906593 75.87890625 71.6875 C74.52604741 71.680969 73.17318165 71.67571891 71.8203125 71.671875 C70.58555176 71.6625293 69.35079102 71.65318359 68.07861328 71.64355469 C65.03743065 71.75197833 65.03743065 71.75197833 63.06982422 73.32910156 Z " fill="#3C3B8D" transform="translate(323,278)"/>
<path d="M0 0 C0.48758789 0.4340918 0.97517578 0.86818359 1.47753906 1.31542969 C5.03357376 4.49339941 8.52656045 7.73203152 12 11 C12.70898438 11.65484375 13.41796875 12.3096875 14.1484375 12.984375 C20.49280743 19.04389567 25.7318086 26.01162508 31 33 C31.64066406 33.845625 32.28132813 34.69125 32.94140625 35.5625 C57.61168006 69.44835173 67.41482212 111.44297446 61.47851562 152.75952148 C57.40793561 178.06391452 47.11265325 202.0017089 32.375 222.9375 C31.70210938 223.89527344 31.02921875 224.85304688 30.3359375 225.83984375 C27.27653621 228.66902254 25.10860654 228.89087996 21 229 C18.5 227.5 18.5 227.5 17 225 C17.26889356 219.58371547 18.58908182 216.61979822 21.875 212.375 C35.73719145 193.41699684 44.45591093 171.16416615 48 148 C48.19529297 146.77603516 48.19529297 146.77603516 48.39453125 145.52734375 C53.3083525 107.33057325 40.671688 69.58800978 17.91015625 39.2109375 C13.22893814 33.22268622 8.18199164 27.55723931 3 22 C1.97132813 20.89011719 1.97132813 20.89011719 0.921875 19.7578125 C-34.11206383 -16.70343495 -86.76411307 -36.32574363 -136 -42 C-136.78391113 -42.0942627 -137.56782227 -42.18852539 -138.37548828 -42.28564453 C-147.27299585 -43.23355891 -156.18680709 -43.2435209 -165.125 -43.25 C-165.96459259 -43.25067474 -166.80418518 -43.25134949 -167.66921997 -43.25204468 C-181.95993761 -43.23388232 -195.89617409 -42.45562077 -210 -40 C-210.92103516 -39.8443457 -211.84207031 -39.68869141 -212.79101562 -39.52832031 C-256.36763942 -31.8787448 -297.83083965 -12.49419641 -330 18 C-330.49322754 18.46067871 -330.98645508 18.92135742 -331.49462891 19.39599609 C-355.29291431 41.7448627 -371.10935354 70.12615407 -378 102 C-378.24621094 103.13050781 -378.49242187 104.26101562 -378.74609375 105.42578125 C-382.91163373 128.95390017 -380.17076945 153.67385069 -372 176 C-371.75266113 176.68271973 -371.50532227 177.36543945 -371.25048828 178.06884766 C-362.692992 201.24875755 -348.64833115 220.79287713 -331 238 C-330.3915625 238.64195312 -329.783125 239.28390625 -329.15625 239.9453125 C-315.09714236 254.56474689 -297.46132737 265.2704546 -279.7121582 274.828125 C-278.63454224 275.41013672 -278.63454224 275.41013672 -277.53515625 276.00390625 C-276.899729 276.34236572 -276.26430176 276.6808252 -275.60961914 277.02954102 C-274 278 -274 278 -272 280 C-271.48479676 288.34279213 -274.65927532 296.90627705 -276.9375 304.8125 C-277.13430359 305.50442444 -277.33110718 306.19634888 -277.53387451 306.90924072 C-283.54219034 327.99230941 -290.78337885 348.67610596 -299 369 C-264.81306126 351.64132871 -231.5437838 330.77405956 -202.12304688 306.13598633 C-201.19975586 305.36677856 -201.19975586 305.36677856 -200.2578125 304.58203125 C-199.7230127 304.13061768 -199.18821289 303.6792041 -198.63720703 303.21411133 C-192.56557993 298.71154623 -186.33319554 299.89813731 -179.0625 300.1875 C-177.78697266 300.21908203 -176.51144531 300.25066406 -175.19726562 300.28320312 C-173.96814453 300.32767578 -172.73902344 300.37214844 -171.47265625 300.41796875 C-170.35125244 300.45688232 -169.22984863 300.4957959 -168.07446289 300.53588867 C-164.67451417 301.04913433 -162.72341175 301.92116087 -160 304 C-159 306.9375 -159 306.9375 -159 310 C-160.14550781 312.19335938 -160.14550781 312.19335938 -162 314 C-164.58105469 314.26367188 -164.58105469 314.26367188 -167.671875 313.96875 C-182.25393416 312.42645616 -182.25393416 312.42645616 -195.34057617 317.62207031 C-197.70577701 319.77231386 -199.98291311 321.98968951 -202.21582031 324.27685547 C-205.34771186 327.30160787 -208.88663267 329.74462901 -212.4375 332.25 C-213.1797583 332.78133545 -213.9220166 333.3126709 -214.68676758 333.86010742 C-231.92181447 346.13259015 -249.64423087 357.48463477 -268 368 C-268.70495605 368.40766602 -269.40991211 368.81533203 -270.13623047 369.23535156 C-279.73233572 374.78291548 -289.52217124 379.93534799 -299.37280273 385.01586914 C-300.7912146 385.74858032 -300.7912146 385.74858032 -302.23828125 386.49609375 C-303.08430908 386.93107178 -303.93033691 387.3660498 -304.80200195 387.81420898 C-307.18253567 389.05442876 -307.18253567 389.05442876 -310 391 C-312.72044151 391.47168946 -315.27653625 391.45296694 -318 391 C-320.0625 389.375 -320.0625 389.375 -321 387 C-320.54036605 382.47912874 -319.22203571 378.76502603 -317.41015625 374.6171875 C-316.87244649 373.36982874 -316.33502407 372.12234608 -315.79785156 370.87475586 C-315.51494263 370.22376923 -315.23203369 369.57278259 -314.94055176 368.90206909 C-303.67140379 342.88612945 -292.1902662 315.02227623 -287 287 C-287.48654053 286.72961914 -287.97308105 286.45923828 -288.47436523 286.18066406 C-307.42955096 275.58512157 -325.91886303 263.80310629 -341 248 C-342.175625 246.824375 -342.175625 246.824375 -343.375 245.625 C-344.24125 244.75875 -345.1075 243.8925 -346 243 C-346.59941406 242.45859375 -347.19882812 241.9171875 -347.81640625 241.359375 C-371.50541215 219.19728476 -385.32955768 188.22979816 -392 157 C-392.2475 155.88109375 -392.495 154.7621875 -392.75 153.609375 C-400.0271247 113.38304679 -388.66320358 71.33788271 -365.97265625 38.0234375 C-364.03690304 35.30188348 -362.04004916 32.64406372 -360 30 C-359.07574219 28.76830078 -359.07574219 28.76830078 -358.1328125 27.51171875 C-346.19251341 12.20304734 -331.79573638 -0.80696894 -316 -12 C-315.40751465 -12.43183594 -314.8150293 -12.86367188 -314.20458984 -13.30859375 C-296.31976468 -26.31573932 -275.91933463 -36.00105708 -255 -43 C-254.18257324 -43.27392578 -253.36514648 -43.54785156 -252.52294922 -43.83007812 C-169.86792447 -71.01599869 -66.53912815 -59.40243933 0 0 Z " fill="#6C3A8D" transform="translate(415,72)"/>
<path d="M0 0 C7.79535982 1.59138216 15.34120815 3.82470446 22.9453125 6.1484375 C24.30741153 6.56203279 25.66959619 6.97534615 27.03186035 7.38839722 C30.6522176 8.48707405 34.2712867 9.58993615 37.89008331 10.69374084 C40.87496498 11.6036083 43.86060389 12.51097605 46.84625816 13.41830444 C69.24702567 20.22600414 91.63508171 27.07536943 114 34 C113.67 34.66 113.34 35.32 113 36 C110.3875885 36.75854492 110.3875885 36.75854492 106.85961914 37.48046875 C106.21895004 37.61409821 105.57828094 37.74772766 104.91819763 37.88540649 C103.52373929 38.17509671 102.1284512 38.46081418 100.73246956 38.74307251 C98.5248182 39.18959097 96.31954566 39.64647907 94.11460876 40.10620117 C89.43251879 41.08034931 84.74766869 42.04078639 80.0625 43 C74.63830852 44.11142489 69.21534968 45.22837602 63.79482841 46.35757446 C61.6190203 46.80807656 59.44146277 47.24930811 57.26368713 47.69018555 C55.93229343 47.96620135 54.60098474 48.24262768 53.26977539 48.51953125 C52.10474991 48.75776611 50.93972443 48.99600098 49.73939514 49.24145508 C46.88068003 49.79081012 46.88068003 49.79081012 45 52 C44.67910865 56.9234874 45.31061819 61.36321628 46.3125 66.17578125 C46.44567627 66.82701462 46.57885254 67.47824799 46.71606445 68.1492157 C47.13760942 70.20503459 47.56834975 72.25878149 48 74.3125 C48.42991032 76.38438881 48.85787678 78.45665845 49.28393555 80.52934265 C49.66870096 82.39702898 50.05882291 84.26360941 50.44921875 86.13012695 C51 89 51 89 51 91 C45.81349318 90.38882222 41.0008635 89.23261081 36.01806641 87.65844727 C35.25075195 87.42077133 34.4834375 87.1830954 33.69287109 86.93821716 C31.16085487 86.15259763 28.63125089 85.35948613 26.1015625 84.56640625 C24.30747773 84.00836503 22.51323418 83.45083408 20.71884155 82.89378357 C15.97899641 81.42102292 11.2411025 79.942084 6.50366211 78.46160889 C-0.96146569 76.12998312 -8.4297399 73.80844541 -15.8975296 71.48536301 C-18.63878495 70.63191144 -21.37946066 69.77661884 -24.12005615 68.92105103 C-32.75007554 66.23005232 -41.38723301 63.56965388 -50.05175781 60.99169922 C-51.22606952 60.64118012 -51.22606952 60.64118012 -52.42410469 60.28357983 C-56.07952551 59.19288413 -59.73683687 58.10977119 -63.39877319 57.04115295 C-64.65888214 56.66655441 -65.91899109 56.29195587 -67.21728516 55.90600586 C-68.31690582 55.58385605 -69.41652649 55.26170624 -70.54946899 54.92979431 C-73 54 -73 54 -74 52 C-68.1400945 50.95429821 -62.27995743 49.9099051 -56.41967773 48.86630249 C-53.32062497 48.31394814 -50.22183006 47.76016327 -47.12304688 47.20629883 C-37.99952052 45.57849276 -28.8763245 43.95891763 -19.73046875 42.4609375 C-18.38956491 42.23918939 -17.04866313 42.01742887 -15.70776367 41.7956543 C-13.29661303 41.40017288 -10.88405443 41.01315039 -8.4699707 40.63598633 C-6.87608521 40.37338013 -6.87608521 40.37338013 -5.25 40.10546875 C-3.89648438 39.89120239 -3.89648438 39.89120239 -2.515625 39.67260742 C0.36864113 38.90143572 2.51700799 37.63588312 5 36 C4.42941972 28.94823732 3.34920293 22.11631754 1.9375 15.1875 C1.56721348 13.36938039 1.20118048 11.5503882 0.83984375 9.73046875 C0.67863037 8.94051514 0.51741699 8.15056152 0.35131836 7.33666992 C-0.02127588 4.85849099 -0.0595851 2.50229721 0 0 Z " fill="#6E3A8D" transform="translate(230,155)"/>
<path d="M0 0 C2.20766726 2.7729729 3.81040647 5.46521235 5.26171875 8.6953125 C5.65810547 9.57574219 6.05449219 10.45617187 6.46289062 11.36328125 C6.86701172 12.27464844 7.27113281 13.18601562 7.6875 14.125 C8.10322266 15.04410156 8.51894531 15.96320313 8.94726562 16.91015625 C12 23.73745382 12 23.73745382 12 26 C4.41 26 -3.18 26 -11 26 C-8.99389364 19.98168092 -6.94115188 14.2629682 -4.375 8.5 C-4.06304687 7.78585937 -3.75109375 7.07171875 -3.4296875 6.3359375 C-1.13632015 1.13632015 -1.13632015 1.13632015 0 0 Z " fill="#3E3B8D" transform="translate(345,364)"/>
</svg>
