<?xml version="1.0" encoding="UTF-8"?>
<svg version="1.1" xmlns="http://www.w3.org/2000/svg" width="512" height="512">
<path d="M0 0 C6.23954872 3.63973675 9.49741845 6.9855964 12 13.75 C13.41622929 20.02187256 13.08918885 25.63237522 11 31.75 C9.71484375 33.765625 9.71484375 33.765625 8.3125 35.5625 C5.74151928 38.3920703 5.74151928 38.3920703 6.14428711 40.94677734 C7.28750221 44.69182608 8.79669619 48.21077857 10.37890625 51.7890625 C10.71043198 52.55173431 11.0419577 53.31440613 11.38352966 54.10018921 C12.79692865 57.35166654 14.22161332 60.5981562 15.64624023 63.84472656 C16.68658793 66.22008828 17.72044596 68.59819805 18.75390625 70.9765625 C19.07887589 71.71097565 19.40384552 72.44538879 19.73866272 73.20205688 C21.04538762 76.21222623 22 78.4316544 22 81.75 C23.11181641 81.5334375 23.11181641 81.5334375 24.24609375 81.3125 C30.7414764 80.16765899 36.97543121 79.55652737 43.5625 79.5625 C44.22113037 79.56185547 44.87976074 79.56121094 45.55834961 79.56054688 C51.72939962 79.62657148 57.85705471 80.19026219 64 80.75 C65.78003486 76.6614584 67.55810357 72.57206876 69.33447266 68.48193359 C69.93714277 67.09498878 70.54031953 65.70826399 71.14404297 64.32177734 C72.58632868 61.00906471 74.02244066 57.69401017 75.44335938 54.37207031 C76.40514798 52.13413183 77.38250168 49.90272371 78.38476562 47.68261719 C78.76826172 46.80508789 79.15175781 45.92755859 79.546875 45.0234375 C79.88041992 44.28270996 80.21396484 43.54198242 80.55761719 42.77880859 C81.14121025 40.10239671 80.42632493 39.02705708 79 36.75 C74.57824092 29.10786544 72.83167557 22.22773756 75.125 13.5 C77.18266626 7.6130445 80.04481288 3.69357669 85.4375 0.375 C91.88724512 -2.53778812 99.69899794 -2.33886128 106.46875 -0.625 C111.83350202 1.6859701 115.14466508 5.75316389 118 10.75 C120.78593608 17.96810711 120.65925655 24.34120028 118.04296875 31.5390625 C115.78170931 36.33259376 112.59877355 39.65992712 108.25 42.625 C105.26582708 43.65798293 102.91431509 44.04106298 99.796875 44.3203125 C98.89807617 44.40297363 97.99927734 44.48563477 97.07324219 44.57080078 C96.38907227 44.62993652 95.70490234 44.68907227 95 44.75 C93.2390123 48.80223994 91.47922606 52.85499905 89.72045898 56.90820312 C89.12441919 58.2813865 88.52807492 59.65443776 87.93139648 61.02734375 C86.49326666 64.33661472 85.05947246 67.64760655 83.63525391 70.96289062 C82.58410004 73.40902574 81.51148354 75.84110583 80.42333984 78.27148438 C79.95750488 79.33173828 79.49166992 80.39199219 79.01171875 81.484375 C78.59752686 82.40959961 78.18333496 83.33482422 77.7565918 84.28808594 C76.92671236 86.98847452 76.9628753 88.15789283 78 90.75 C79.49375173 92.81644022 79.49375173 92.81644022 81.3125 94.875 C85.06820119 99.53485147 89 105.53967298 89 111.75 C89.73978592 111.74111755 90.47957184 111.73223511 91.24177551 111.7230835 C98.25789451 111.64250301 105.27384974 111.58181698 112.29030323 111.54275131 C115.89645653 111.52199101 119.50222335 111.49388949 123.1081543 111.44824219 C126.59655674 111.40436557 130.08459054 111.38077631 133.57324791 111.37049103 C135.53339691 111.35964413 137.49340026 111.32848681 139.45332336 111.29681396 C151.51034068 111.2938292 161.27630756 114.15798594 170 122.75 C179.85942499 133.99051176 180.48236131 145.5114086 180 159.75 C180.56396484 159.72905273 181.12792969 159.70810547 181.70898438 159.68652344 C184.30580249 159.60251499 186.90233362 159.55107771 189.5 159.5 C190.386875 159.46648437 191.27375 159.43296875 192.1875 159.3984375 C199.3697932 159.29281554 204.53807011 160.76258173 210.0234375 165.49609375 C210.46945312 166.05425781 210.91546875 166.61242187 211.375 167.1875 C211.83648437 167.74308594 212.29796875 168.29867187 212.7734375 168.87109375 C215.65155222 173.27992554 216.25832178 177.12226329 216.30639648 182.34106445 C216.32238388 183.65625565 216.33837128 184.97144684 216.35484314 186.32649231 C216.36122086 187.75541799 216.36661328 189.18434836 216.37109375 190.61328125 C216.38006887 192.08912747 216.38919087 193.56497281 216.39845276 195.04081726 C216.41491709 198.13164474 216.42263805 201.22236424 216.42553711 204.31323242 C216.43091526 208.25754844 216.46858111 212.20083758 216.51428127 216.14486408 C216.5441496 219.19310636 216.55126278 222.24110437 216.55226326 225.28948021 C216.55644704 226.74265427 216.56880693 228.19583031 216.58978081 229.64885902 C216.6969393 237.71511738 216.72978886 244.51518647 211 250.75 C207.46834288 254.26442623 203.70898018 257.49176388 198.61816406 257.97705078 C197.75932617 257.96657715 196.90048828 257.95610352 196.015625 257.9453125 C195.08105469 257.93886719 194.14648438 257.93242187 193.18359375 257.92578125 C192.21550781 257.90902344 191.24742187 257.89226562 190.25 257.875 C189.26644531 257.86597656 188.28289062 257.85695313 187.26953125 257.84765625 C184.84610593 257.82412785 182.42317778 257.79125368 180 257.75 C180.05220703 259.41675781 180.05220703 259.41675781 180.10546875 261.1171875 C180.4098561 274.78079749 178.94830452 285.42320479 169.11328125 295.7265625 C156.34746284 307.51425337 141.81559043 307.04651963 125.38867188 307.00878906 C123.40344617 307.01150228 121.41822147 307.01506506 119.43299866 307.01940918 C114.06323064 307.0284961 108.69353982 307.02500419 103.32377052 307.01865101 C97.69236678 307.01357185 92.06096945 307.01828778 86.42956543 307.02142334 C76.97435322 307.0250574 67.5191723 307.02027857 58.06396484 307.01074219 C47.14739013 306.99985873 36.23089013 307.0033847 25.31431723 307.014395 C15.9254955 307.02348382 6.5366962 307.02474535 -2.85212851 307.01951766 C-8.45262469 307.01640674 -14.05308581 307.01596447 -19.65357971 307.02259064 C-24.91987654 307.02838667 -30.18607745 307.02432595 -35.45236397 307.01280212 C-37.38001407 307.0101676 -39.30767232 307.01089989 -41.23531914 307.01532745 C-56.3440261 307.04681911 -70.43787863 306.98907867 -82.25 296.1875 C-88.4456475 289.58970094 -93.16320797 280.59911632 -93.09765625 271.421875 C-93.09443359 270.62265625 -93.09121094 269.8234375 -93.08789062 269 C-93.07532227 267.7625 -93.07532227 267.7625 -93.0625 266.5 C-93.05798828 265.65953125 -93.05347656 264.8190625 -93.04882812 263.953125 C-93.03707961 261.88538599 -93.01914522 259.81768376 -93 257.75 C-93.60473145 257.76571045 -94.20946289 257.7814209 -94.83251953 257.79760742 C-97.59658296 257.8603188 -100.36049621 257.89910411 -103.125 257.9375 C-104.55199219 257.97520508 -104.55199219 257.97520508 -106.0078125 258.01367188 C-113.02018506 258.08671742 -117.34877531 257.15459913 -122.6875 252.3125 C-127.55297837 246.92102396 -129.11264717 243.63775664 -129.19287109 236.29418945 C-129.20104858 235.64335892 -129.20922607 234.99252838 -129.21765137 234.32197571 C-129.24245146 232.16908676 -129.25901033 230.01626368 -129.2734375 227.86328125 C-129.27876118 227.12580343 -129.28408485 226.38832561 -129.28956985 225.62849998 C-129.31628225 221.72247737 -129.33566036 217.81648646 -129.35009766 213.91040039 C-129.3634173 210.68712867 -129.39123468 207.46449299 -129.43212891 204.24145508 C-129.48161093 200.34107141 -129.50623772 196.44126295 -129.51332474 192.54057884 C-129.52001196 191.0594778 -129.53516792 189.57838832 -129.55921555 188.09746742 C-129.78986861 173.02959978 -129.78986861 173.02959978 -124 166.75 C-119.26090682 161.92516391 -114.90175841 159.65554391 -108.13671875 159.5546875 C-106.32020934 159.56789848 -104.50375087 159.59162719 -102.6875 159.625 C-101.75615234 159.63402344 -100.82480469 159.64304687 -99.86523438 159.65234375 C-97.5765564 159.67581737 -95.28841328 159.70865271 -93 159.75 C-93.03480469 158.63882813 -93.06960937 157.52765625 -93.10546875 156.3828125 C-93.41267798 142.59253148 -91.79037985 132.41178699 -82.25390625 121.80859375 C-74.03504589 113.89729989 -64.38894808 111.180107 -53.18756104 111.18351746 C-51.89332214 111.20932388 -50.59908325 111.23513031 -49.265625 111.26171875 C-47.89273381 111.2710725 -46.51982564 111.27817645 -45.14691162 111.28315735 C-41.57584559 111.30202683 -38.00583615 111.35094538 -34.43518066 111.40667725 C-30.77464075 111.45831047 -27.113926 111.48076424 -23.453125 111.50585938 C-16.30165746 111.55909092 -9.15089859 111.64415073 -2 111.75 C-1.70125977 110.71660744 -1.70125977 110.71660744 -1.39648438 109.66233826 C-1.13158203 108.75983841 -0.86667969 107.85733856 -0.59375 106.92749023 C-0.33271484 106.03231186 -0.07167969 105.13713348 0.19726562 104.21482849 C1.10751852 101.41986002 2.29161765 99.20156594 4 96.8125 C4.495 96.10222656 4.99 95.39195312 5.5 94.66015625 C7 92.75 7 92.75 8.75 91.30859375 C10.24691611 89.81653089 10.24691611 89.81653089 9.78808594 87.72558594 C7.93994344 80.74753117 5.07264036 74.0773478 2.37548828 67.39282227 C1.62620809 65.50856949 0.89722651 63.6161157 0.18896484 61.71606445 C-3.36096164 50.67675624 -3.36096164 50.67675624 -11.31591797 43.18212891 C-14.74075248 42.62594812 -14.74075248 42.62594812 -18.02978516 42.80834961 C-22.42923928 42.72192272 -24.49273701 40.64656526 -27.48046875 37.62109375 C-31.97929435 32.08140876 -33.38838697 26.23133895 -33.2734375 19.25390625 C-32.58543441 12.95376365 -30.30965083 7.5099978 -25.5625 3.25 C-18.60322142 -2.30450541 -8.25843938 -3.3288423 0 0 Z " fill="#B5D5DF" transform="translate(129,120.25)"/>
<path d="M0 0 C13.97833673 13.08510746 24.86945024 32.27975219 26.0949707 51.61254883 C26.52633324 73.01053644 24.55408149 89.0727386 13.91796875 107.8203125 C13.43457031 108.67238281 12.95117188 109.52445313 12.453125 110.40234375 C0.39369319 129.80229927 -18.93399684 142.08679003 -40.87890625 147.51171875 C-55.66836533 150.43284119 -72.99547252 150.16033116 -87.15478516 144.61743164 C-92.17710156 143.18703633 -96.58816407 144.80816187 -101.46875 146.21484375 C-102.44818069 146.48165451 -103.42761139 146.74846527 -104.4367218 147.02336121 C-107.55261344 147.87626446 -110.66085713 148.7540073 -113.76953125 149.6328125 C-115.87128401 150.21325959 -117.97349403 150.79205365 -120.07617188 151.36914062 C-124.70174515 152.64110462 -129.32257103 153.92891365 -133.93974304 155.23103333 C-139.07508642 156.64361213 -143.73348032 157.51837705 -149.08203125 156.8203125 C-151.99404467 154.92750378 -152.81937167 153.65799939 -153.84960938 150.37231445 C-154.19239939 145.13360447 -152.71976809 140.62912627 -151.30078125 135.61328125 C-150.70037704 133.39522121 -150.10012125 131.17712099 -149.5 128.95898438 C-148.54344024 125.48194611 -147.58164708 122.00643064 -146.61572266 118.53198242 C-145.68480005 115.16676167 -144.77333185 111.79669607 -143.86328125 108.42578125 C-143.57062378 107.39736618 -143.27796631 106.36895111 -142.97644043 105.30937195 C-140.59298336 96.43838917 -141.51911849 89.82776209 -143.64453125 81.0078125 C-148.12131443 59.02085277 -144.42937383 36.41287312 -132.89453125 17.1328125 C-128.6089723 10.77084336 -123.45221119 5.26877494 -118.08203125 -0.1796875 C-117.42460937 -0.85 -116.7671875 -1.5203125 -116.08984375 -2.2109375 C-83.43556566 -33.04330308 -32.15557286 -27.78037602 0 0 Z " fill="#1CFDD6" transform="translate(486.08203125,108.1796875)"/>
<path d="M0 0 C6.23954872 3.63973675 9.49741845 6.9855964 12 13.75 C13.41622929 20.02187256 13.08918885 25.63237522 11 31.75 C9.71484375 33.765625 9.71484375 33.765625 8.3125 35.5625 C5.74151928 38.3920703 5.74151928 38.3920703 6.14428711 40.94677734 C7.28750221 44.69182608 8.79669619 48.21077857 10.37890625 51.7890625 C10.71043198 52.55173431 11.0419577 53.31440613 11.38352966 54.10018921 C12.79692865 57.35166654 14.22161332 60.5981562 15.64624023 63.84472656 C16.68658793 66.22008828 17.72044596 68.59819805 18.75390625 70.9765625 C19.07887589 71.71097565 19.40384552 72.44538879 19.73866272 73.20205688 C21.04538762 76.21222623 22 78.4316544 22 81.75 C23.11181641 81.5334375 23.11181641 81.5334375 24.24609375 81.3125 C30.7414764 80.16765899 36.97543121 79.55652737 43.5625 79.5625 C44.22113037 79.56185547 44.87976074 79.56121094 45.55834961 79.56054688 C51.72939962 79.62657148 57.85705471 80.19026219 64 80.75 C65.78003486 76.6614584 67.55810357 72.57206876 69.33447266 68.48193359 C69.93714277 67.09498878 70.54031953 65.70826399 71.14404297 64.32177734 C72.58632868 61.00906471 74.02244066 57.69401017 75.44335938 54.37207031 C76.40514798 52.13413183 77.38250168 49.90272371 78.38476562 47.68261719 C78.76826172 46.80508789 79.15175781 45.92755859 79.546875 45.0234375 C79.88041992 44.28270996 80.21396484 43.54198242 80.55761719 42.77880859 C81.14121025 40.10239671 80.42632493 39.02705708 79 36.75 C74.57824092 29.10786544 72.83167557 22.22773756 75.125 13.5 C77.18266626 7.6130445 80.04481288 3.69357669 85.4375 0.375 C91.88724512 -2.53778812 99.69899794 -2.33886128 106.46875 -0.625 C111.83350202 1.6859701 115.14466508 5.75316389 118 10.75 C120.78593608 17.96810711 120.65925655 24.34120028 118.04296875 31.5390625 C115.78170931 36.33259376 112.59877355 39.65992712 108.25 42.625 C105.26582708 43.65798293 102.91431509 44.04106298 99.796875 44.3203125 C98.89807617 44.40297363 97.99927734 44.48563477 97.07324219 44.57080078 C96.38907227 44.62993652 95.70490234 44.68907227 95 44.75 C93.2390123 48.80223994 91.47922606 52.85499905 89.72045898 56.90820312 C89.12441919 58.2813865 88.52807492 59.65443776 87.93139648 61.02734375 C86.49326666 64.33661472 85.05947246 67.64760655 83.63525391 70.96289062 C82.58410004 73.40902574 81.51148354 75.84110583 80.42333984 78.27148438 C79.95750488 79.33173828 79.49166992 80.39199219 79.01171875 81.484375 C78.59752686 82.40959961 78.18333496 83.33482422 77.7565918 84.28808594 C76.92671236 86.98847452 76.9628753 88.15789283 78 90.75 C79.49375173 92.81644022 79.49375173 92.81644022 81.3125 94.875 C85.06820119 99.53485147 89 105.53967298 89 111.75 C89.73978592 111.74111755 90.47957184 111.73223511 91.24177551 111.7230835 C98.25789451 111.64250301 105.27384974 111.58181698 112.29030323 111.54275131 C115.89645653 111.52199101 119.50222335 111.49388949 123.1081543 111.44824219 C126.59655674 111.40436557 130.08459054 111.38077631 133.57324791 111.37049103 C135.53339691 111.35964413 137.49340026 111.32848681 139.45332336 111.29681396 C151.51034068 111.2938292 161.27630756 114.15798594 170 122.75 C179.85942499 133.99051176 180.48236131 145.5114086 180 159.75 C180.56396484 159.72905273 181.12792969 159.70810547 181.70898438 159.68652344 C184.30580249 159.60251499 186.90233362 159.55107771 189.5 159.5 C190.386875 159.46648437 191.27375 159.43296875 192.1875 159.3984375 C199.3697932 159.29281554 204.53807011 160.76258173 210.0234375 165.49609375 C210.46945312 166.05425781 210.91546875 166.61242187 211.375 167.1875 C211.83648437 167.74308594 212.29796875 168.29867187 212.7734375 168.87109375 C215.65155222 173.27992554 216.25832178 177.12226329 216.30639648 182.34106445 C216.32238388 183.65625565 216.33837128 184.97144684 216.35484314 186.32649231 C216.36122086 187.75541799 216.36661328 189.18434836 216.37109375 190.61328125 C216.38006887 192.08912747 216.38919087 193.56497281 216.39845276 195.04081726 C216.41491709 198.13164474 216.42263805 201.22236424 216.42553711 204.31323242 C216.43091526 208.25754844 216.46858111 212.20083758 216.51428127 216.14486408 C216.5441496 219.19310636 216.55126278 222.24110437 216.55226326 225.28948021 C216.55644704 226.74265427 216.56880693 228.19583031 216.58978081 229.64885902 C216.6969393 237.71511738 216.72978886 244.51518647 211 250.75 C207.46834288 254.26442623 203.70898018 257.49176388 198.61816406 257.97705078 C197.75932617 257.96657715 196.90048828 257.95610352 196.015625 257.9453125 C195.08105469 257.93886719 194.14648438 257.93242187 193.18359375 257.92578125 C192.21550781 257.90902344 191.24742187 257.89226562 190.25 257.875 C189.26644531 257.86597656 188.28289062 257.85695313 187.26953125 257.84765625 C184.84610593 257.82412785 182.42317778 257.79125368 180 257.75 C180.05220703 259.41675781 180.05220703 259.41675781 180.10546875 261.1171875 C180.4098561 274.78079749 178.94830452 285.42320479 169.11328125 295.7265625 C156.34746284 307.51425337 141.81559043 307.04651963 125.38867188 307.00878906 C123.40344617 307.01150228 121.41822147 307.01506506 119.43299866 307.01940918 C114.06323064 307.0284961 108.69353982 307.02500419 103.32377052 307.01865101 C97.69236678 307.01357185 92.06096945 307.01828778 86.42956543 307.02142334 C76.97435322 307.0250574 67.5191723 307.02027857 58.06396484 307.01074219 C47.14739013 306.99985873 36.23089013 307.0033847 25.31431723 307.014395 C15.9254955 307.02348382 6.5366962 307.02474535 -2.85212851 307.01951766 C-8.45262469 307.01640674 -14.05308581 307.01596447 -19.65357971 307.02259064 C-24.91987654 307.02838667 -30.18607745 307.02432595 -35.45236397 307.01280212 C-37.38001407 307.0101676 -39.30767232 307.01089989 -41.23531914 307.01532745 C-56.3440261 307.04681911 -70.43787863 306.98907867 -82.25 296.1875 C-88.4456475 289.58970094 -93.16320797 280.59911632 -93.09765625 271.421875 C-93.09443359 270.62265625 -93.09121094 269.8234375 -93.08789062 269 C-93.07532227 267.7625 -93.07532227 267.7625 -93.0625 266.5 C-93.05798828 265.65953125 -93.05347656 264.8190625 -93.04882812 263.953125 C-93.03707961 261.88538599 -93.01914522 259.81768376 -93 257.75 C-93.60473145 257.76571045 -94.20946289 257.7814209 -94.83251953 257.79760742 C-97.59658296 257.8603188 -100.36049621 257.89910411 -103.125 257.9375 C-104.55199219 257.97520508 -104.55199219 257.97520508 -106.0078125 258.01367188 C-113.02018506 258.08671742 -117.34877531 257.15459913 -122.6875 252.3125 C-127.55297837 246.92102396 -129.11264717 243.63775664 -129.19287109 236.29418945 C-129.20104858 235.64335892 -129.20922607 234.99252838 -129.21765137 234.32197571 C-129.24245146 232.16908676 -129.25901033 230.01626368 -129.2734375 227.86328125 C-129.27876118 227.12580343 -129.28408485 226.38832561 -129.28956985 225.62849998 C-129.31628225 221.72247737 -129.33566036 217.81648646 -129.35009766 213.91040039 C-129.3634173 210.68712867 -129.39123468 207.46449299 -129.43212891 204.24145508 C-129.48161093 200.34107141 -129.50623772 196.44126295 -129.51332474 192.54057884 C-129.52001196 191.0594778 -129.53516792 189.57838832 -129.55921555 188.09746742 C-129.78986861 173.02959978 -129.78986861 173.02959978 -124 166.75 C-119.26090682 161.92516391 -114.90175841 159.65554391 -108.13671875 159.5546875 C-106.32020934 159.56789848 -104.50375087 159.59162719 -102.6875 159.625 C-101.75615234 159.63402344 -100.82480469 159.64304687 -99.86523438 159.65234375 C-97.5765564 159.67581737 -95.28841328 159.70865271 -93 159.75 C-93.03480469 158.63882813 -93.06960937 157.52765625 -93.10546875 156.3828125 C-93.41267798 142.59253148 -91.79037985 132.41178699 -82.25390625 121.80859375 C-74.03504589 113.89729989 -64.38894808 111.180107 -53.18756104 111.18351746 C-51.89332214 111.20932388 -50.59908325 111.23513031 -49.265625 111.26171875 C-47.89273381 111.2710725 -46.51982564 111.27817645 -45.14691162 111.28315735 C-41.57584559 111.30202683 -38.00583615 111.35094538 -34.43518066 111.40667725 C-30.77464075 111.45831047 -27.113926 111.48076424 -23.453125 111.50585938 C-16.30165746 111.55909092 -9.15089859 111.64415073 -2 111.75 C-1.70125977 110.71660744 -1.70125977 110.71660744 -1.39648438 109.66233826 C-1.13158203 108.75983841 -0.86667969 107.85733856 -0.59375 106.92749023 C-0.33271484 106.03231186 -0.07167969 105.13713348 0.19726562 104.21482849 C1.10751852 101.41986002 2.29161765 99.20156594 4 96.8125 C4.495 96.10222656 4.99 95.39195312 5.5 94.66015625 C7 92.75 7 92.75 8.75 91.30859375 C10.24691611 89.81653089 10.24691611 89.81653089 9.78808594 87.72558594 C7.93994344 80.74753117 5.07264036 74.0773478 2.37548828 67.39282227 C1.62620809 65.50856949 0.89722651 63.6161157 0.18896484 61.71606445 C-3.36096164 50.67675624 -3.36096164 50.67675624 -11.31591797 43.18212891 C-14.74075248 42.62594812 -14.74075248 42.62594812 -18.02978516 42.80834961 C-22.42923928 42.72192272 -24.49273701 40.64656526 -27.48046875 37.62109375 C-31.97929435 32.08140876 -33.38838697 26.23133895 -33.2734375 19.25390625 C-32.58543441 12.95376365 -30.30965083 7.5099978 -25.5625 3.25 C-18.60322142 -2.30450541 -8.25843938 -3.3288423 0 0 Z M-76.52734375 134.39453125 C-81.17922081 141.83506671 -81.43360338 148.61240529 -81.38818359 157.17358398 C-81.39344055 158.39899902 -81.39869751 159.62441406 -81.40411377 160.88696289 C-81.41501119 164.2280939 -81.41251872 167.56866329 -81.40297651 170.90976214 C-81.39534055 174.41959009 -81.40243655 177.92939528 -81.40713501 181.43922424 C-81.41258189 187.3326545 -81.40542987 193.2259717 -81.39111328 199.11938477 C-81.37479633 205.91432625 -81.3800725 212.7089975 -81.3965925 219.50393242 C-81.41024701 225.35643863 -81.41210751 231.20886391 -81.40427649 237.06138092 C-81.39962069 240.54865539 -81.39891681 244.03580325 -81.40888596 247.52306938 C-81.41923474 251.4144919 -81.40485365 255.30561669 -81.38818359 259.19702148 C-81.39425629 260.33963943 -81.40032898 261.48225739 -81.40658569 262.65950012 C-81.3355592 271.63834749 -79.94571977 279.70901606 -74 286.75 C-67.21642856 291.9946487 -62.31009554 293.89914346 -53.72738647 293.89717102 C-52.8736273 293.90084771 -52.01986812 293.9045244 -51.14023745 293.9083125 C-48.26845305 293.91935916 -45.39670482 293.92319487 -42.52490234 293.92700195 C-40.47012212 293.93326592 -38.41534303 293.93991266 -36.36056519 293.94691467 C-30.7694117 293.96433188 -25.17826677 293.97487869 -19.58709288 293.9831202 C-16.09392492 293.98826948 -12.60075962 293.99434528 -9.10759354 294.00063133 C1.82154803 294.01968654 12.75068283 294.03391625 23.67983782 294.0422433 C36.29563007 294.05201398 48.91124678 294.07832783 61.52697718 294.11874419 C71.27741762 294.14890901 81.02780777 294.16371258 90.77829397 294.16702431 C96.60193564 294.16937461 102.42538986 294.17833245 108.24898148 294.20348549 C113.73028163 294.22677705 119.21127105 294.23099492 124.69260788 294.22072411 C126.70131209 294.22022888 128.71003165 294.22654527 130.71868896 294.24028015 C133.46799101 294.25802315 136.21618083 294.25088108 138.96548462 294.23774719 C139.75432183 294.24871644 140.54315904 294.25968568 141.35590041 294.27098733 C148.89138063 294.18449366 155.11096445 291.60911102 160.8125 286.6875 C167.89298908 278.96434829 168.58771546 269.08126491 168.50170898 259.07763672 C168.50711197 257.86153717 168.51251495 256.64543762 168.51808167 255.39248657 C168.5283698 252.09075005 168.52095765 248.78967762 168.50437045 245.48798513 C168.49040193 242.01421406 168.4969931 238.54047002 168.50050354 235.06668091 C168.50319571 229.23821612 168.4898137 223.40995845 168.46655273 217.58154297 C168.43992412 210.86321261 168.43820749 204.14522769 168.4499411 197.4268626 C168.46075414 190.93469865 168.45450588 184.44265846 168.44038582 177.9505043 C168.43465899 175.20031906 168.43468238 172.45022537 168.43945122 169.70003891 C168.44514993 165.85441974 168.42581852 162.00914037 168.40405273 158.16357422 C168.40855438 157.03502014 168.41305603 155.90646606 168.41769409 154.74371338 C168.33759807 146.19880761 167.28338896 138.49021945 161.375 131.9375 C160.45847656 130.87595703 160.45847656 130.87595703 159.5234375 129.79296875 C153.33586069 124.78352189 146.87207852 123.15271936 139.05055237 123.2353363 C138.19645576 123.22839078 137.34235915 123.22144525 136.46238083 123.21428925 C133.62512014 123.1961192 130.78870511 123.20625545 127.95141602 123.21655273 C125.90722024 123.20948921 123.8630297 123.20074238 121.81884766 123.19044495 C116.28367563 123.16799016 110.74879007 123.1708816 105.21358991 123.17976642 C100.58638006 123.18488535 95.95922361 123.17757639 91.33201927 123.17029434 C80.41327438 123.15330778 69.49466929 123.15684877 58.57592773 123.17358398 C47.32468203 123.1905062 36.07382427 123.17466634 24.82262093 123.1423611 C15.149298 123.1156422 5.47609567 123.10839539 -4.19726044 123.11687618 C-9.9688742 123.12179838 -15.74025457 123.11962779 -21.51183891 123.09908867 C-26.93997545 123.08069548 -32.36755508 123.08673513 -37.79566193 123.11128807 C-39.78297462 123.11628427 -41.77033001 123.11283729 -43.75760841 123.10013962 C-57.25300562 123.02075958 -67.15898234 123.59904845 -76.52734375 134.39453125 Z " fill="#000101" transform="translate(129,120.25)"/>
<path d="M0 0 C13.97833673 13.08510746 24.86945024 32.27975219 26.0949707 51.61254883 C26.52633324 73.01053644 24.55408149 89.0727386 13.91796875 107.8203125 C13.43457031 108.67238281 12.95117188 109.52445313 12.453125 110.40234375 C0.39369319 129.80229927 -18.93399684 142.08679003 -40.87890625 147.51171875 C-55.66836533 150.43284119 -72.99547252 150.16033116 -87.15478516 144.61743164 C-92.17710156 143.18703633 -96.58816407 144.80816187 -101.46875 146.21484375 C-102.44818069 146.48165451 -103.42761139 146.74846527 -104.4367218 147.02336121 C-107.55261344 147.87626446 -110.66085713 148.7540073 -113.76953125 149.6328125 C-115.87128401 150.21325959 -117.97349403 150.79205365 -120.07617188 151.36914062 C-124.70174515 152.64110462 -129.32257103 153.92891365 -133.93974304 155.23103333 C-139.07508642 156.64361213 -143.73348032 157.51837705 -149.08203125 156.8203125 C-151.99404467 154.92750378 -152.81937167 153.65799939 -153.84960938 150.37231445 C-154.19239939 145.13360447 -152.71976809 140.62912627 -151.30078125 135.61328125 C-150.70037704 133.39522121 -150.10012125 131.17712099 -149.5 128.95898438 C-148.54344024 125.48194611 -147.58164708 122.00643064 -146.61572266 118.53198242 C-145.68480005 115.16676167 -144.77333185 111.79669607 -143.86328125 108.42578125 C-143.57062378 107.39736618 -143.27796631 106.36895111 -142.97644043 105.30937195 C-140.59298336 96.43838917 -141.51911849 89.82776209 -143.64453125 81.0078125 C-148.12131443 59.02085277 -144.42937383 36.41287312 -132.89453125 17.1328125 C-128.6089723 10.77084336 -123.45221119 5.26877494 -118.08203125 -0.1796875 C-117.42460937 -0.85 -116.7671875 -1.5203125 -116.08984375 -2.2109375 C-83.43556566 -33.04330308 -32.15557286 -27.78037602 0 0 Z M-113.08203125 12.8203125 C-113.77039063 13.52285156 -114.45875 14.22539063 -115.16796875 14.94921875 C-127.90015845 28.70999146 -133.603139 47.02155681 -133.2734375 65.55078125 C-132.87034947 72.43618289 -131.86276782 78.99166642 -129.39453125 85.4453125 C-125.71619609 96.09517169 -131.28586593 108.742194 -134.14453125 119.1328125 C-134.85531688 121.72360082 -135.56363997 124.31493799 -136.26426697 126.90849304 C-136.69778303 128.51285736 -137.13708577 130.11567276 -137.58302307 131.71662903 C-138.61009549 135.51319215 -139.35314824 138.84606224 -139.08203125 142.8203125 C-132.55755298 141.82497819 -126.21181469 140.39340348 -119.8515625 138.65625 C-119.12572968 138.45839905 -118.39989685 138.2605481 -117.65206909 138.05670166 C-114.63519502 137.23037439 -111.62004398 136.39824229 -108.60766602 135.55566406 C-106.37882949 134.93437558 -104.14680477 134.32582868 -101.9140625 133.71875 C-101.24615189 133.5281601 -100.57824127 133.33757019 -99.89009094 133.14120483 C-93.11149217 131.31424027 -87.29649132 131.0354762 -80.76953125 133.8203125 C-64.87804947 138.99989593 -45.2546627 137.61170676 -30.08203125 130.8203125 C-28.95023437 130.32402344 -27.8184375 129.82773438 -26.65234375 129.31640625 C-8.56597063 120.48600055 3.71071215 104.43300979 10.65869141 85.83789062 C16.98887033 67.06009326 15.0385085 47.28315336 6.73046875 29.5078125 C-2.50995749 12.18940171 -17.74189184 -1.33302901 -36.58203125 -7.1171875 C-65.14580804 -15.61320331 -92.50457242 -8.34773805 -113.08203125 12.8203125 Z " fill="#000101" transform="translate(486.08203125,108.1796875)"/>
<path d="M0 0 C17 0 17 0 23 3 C25.3049246 6.45738691 25.25697155 7.78440418 25.2746582 11.86083984 C25.28895622 13.66819107 25.28895622 13.66819107 25.30354309 15.51205444 C25.30263168 16.81518585 25.30172028 18.11831726 25.30078125 19.4609375 C25.30466913 20.81230806 25.30900399 22.1636774 25.31376648 23.51504517 C25.32122791 26.34796101 25.3209385 29.18075224 25.31567383 32.01367188 C25.30988579 35.63749436 25.32679378 39.26080463 25.3500185 42.88454247 C25.3647795 45.67616745 25.36562425 48.46766984 25.36250877 51.25932693 C25.36326955 53.24292501 25.37712736 55.22650411 25.39118958 57.21005249 C25.38496078 58.42125763 25.37873199 59.63246277 25.37231445 60.88037109 C25.37294388 61.94387787 25.3735733 63.00738464 25.3742218 64.1031189 C24.93426721 67.50884284 24.13956577 69.3183856 22 72 C17 74 17 74 0 74 C0 49.58 0 25.16 0 0 Z " fill="#91B0B9" transform="translate(308,292)"/>
<path d="M0 0 C0 24.42 0 48.84 0 74 C-17 74 -17 74 -23 70 C-24.34152004 67.31695992 -24.13453265 65.24107794 -24.14526367 62.23681641 C-24.15164352 61.02861237 -24.15802338 59.82040833 -24.16459656 58.57559204 C-24.16570938 57.26416229 -24.1668222 55.95273254 -24.16796875 54.6015625 C-24.17118143 53.24636805 -24.17454552 51.89117394 -24.17805481 50.53598022 C-24.18404735 47.69292395 -24.18589462 44.84989808 -24.18530273 42.00683594 C-24.18520119 38.36618951 -24.19884462 34.72573847 -24.21607494 31.08513832 C-24.22720235 28.28499458 -24.2292217 25.48489793 -24.22869301 22.68473434 C-24.23044545 20.69057522 -24.24128308 18.6964308 -24.25224304 16.70230103 C-24.24916641 15.48779266 -24.24608978 14.2732843 -24.24291992 13.02197266 C-24.24434494 11.95322906 -24.24576996 10.88448547 -24.24723816 9.78335571 C-23.98961127 6.88304588 -23.68887722 5.35776565 -22 3 C-17 0 -17 0 0 0 Z " fill="#93B3BC" transform="translate(36,292)"/>
<path d="M0 0 C2.49488934 0.75811554 4.71292448 1.81770617 7.05859375 2.95703125 C26.60111981 11.96859823 51.24614814 13.12531005 71.84375 6.86328125 C76.13990105 5.26566608 80.3616765 3.53716613 84.55859375 1.6953125 C87.90646374 0.32248167 90.49986691 -0.35546875 94.12109375 -0.35546875 C96.05859375 0.70703125 96.05859375 0.70703125 97.12109375 2.64453125 C97.80859375 5.51953125 97.80859375 5.51953125 97.12109375 8.64453125 C83.53319947 22.11323348 58.00862601 22.92976663 40.22021484 22.96362305 C25.98619828 22.80875343 12.91668953 20.02288294 0.12109375 13.64453125 C-0.70648438 13.24234375 -1.5340625 12.84015625 -2.38671875 12.42578125 C-4.45916959 11.29929229 -6.18327395 10.28219322 -7.87890625 8.64453125 C-8.6235054 5.25998964 -8.47093001 3.72410399 -6.81640625 0.70703125 C-4.39295284 -0.62195933 -2.68109322 -0.50723385 0 0 Z " fill="#030404" transform="translate(128.87890625,360.35546875)"/>
<path d="M0 0 C1.16466797 -0.03287109 2.32933594 -0.06574219 3.52929688 -0.09960938 C12.1948791 -0.15271322 20.78402676 1.16917081 27.68017578 6.88085938 C30.60999761 10.1976388 33.9375 14.89574709 33.9375 19.4375 C12.4875 19.4375 -8.9625 19.4375 -31.0625 19.4375 C-28.3979051 11.44371529 -25.31975818 6.60174794 -18.0625 2.4375 C-12.15593734 -0.31079944 -6.40992063 0.03120026 0 0 Z " fill="#9DC0CA" transform="translate(171.0625,212.5625)"/>
<path d="M0 0 C7.50326126 4.74553277 13.25390255 10.80467639 16.09375 19.32421875 C16.23595279 20.98689749 16.31395567 22.65573605 16.34375 24.32421875 C16.36953125 25.19046875 16.3953125 26.05671875 16.421875 26.94921875 C16.09375 29.32421875 16.09375 29.32421875 14.80078125 31.14453125 C13.09375 32.32421875 13.09375 32.32421875 9.53125 32.19921875 C6.09375 31.32421875 6.09375 31.32421875 4.09375 28.32421875 C3.74894563 26.70965863 3.46195621 25.08217472 3.21875 23.44921875 C2.38418349 19.07252263 1.51721379 16.37757835 -1.90625 13.32421875 C-7.20968952 10.30853746 -11.93603073 9.53837636 -17.90625 10.32421875 C-22.80972423 12.02157521 -26.4161818 14.74143366 -28.90625 19.32421875 C-30.16825167 23.27680799 -31.09670432 27.25674531 -31.90625 31.32421875 C-38.53125 32.57421875 -38.53125 32.57421875 -41.90625 30.32421875 C-43.6291495 22.87167671 -41.26138736 16.46704202 -37.66796875 9.9921875 C-29.58690571 -2.24587471 -13.17931432 -6.80453728 0 0 Z " fill="#020303" transform="translate(247.90625,277.67578125)"/>
<path d="M0 0 C6.94944179 5.47200141 12.21381093 11.71962915 13.3359375 20.68359375 C13.58143019 27.18915006 13.58143019 27.18915006 11.703125 29.80859375 C10 31 10 31 6.3125 30.6875 C5.219375 30.460625 4.12625 30.23375 3 30 C2.65388672 28.69675781 2.65388672 28.69675781 2.30078125 27.3671875 C-0.19420255 18.20174742 -0.19420255 18.20174742 -6 11 C-10.73689958 8.63155021 -15.79521468 8.27459438 -21 9 C-26.295898 10.82760402 -29.51327039 14.02654077 -32 19 C-32.59311394 21.6048923 -33.05314118 24.18059748 -33.41015625 26.828125 C-34 29 -34 29 -37 31 C-40.625 30.75 -40.625 30.75 -44 30 C-45.88319002 26.23361996 -45.50908759 22.10130116 -45 18 C-42.90070181 11.96342885 -39.8944438 7.16027723 -35 3 C-34.236875 2.29875 -33.47375 1.5975 -32.6875 0.875 C-22.87426939 -5.97143996 -10.22978609 -6.2282822 0 0 Z " fill="#030303" transform="translate(126,279)"/>
<path d="M0 0 C0.67836914 -0.00365067 1.35673828 -0.00730133 2.05566406 -0.01106262 C4.2977808 -0.01916788 6.53917474 -0.00555901 8.78125 0.0090332 C10.3391927 0.00955182 11.89713607 0.00903407 13.45507812 0.00752258 C16.72015146 0.00761231 19.98497788 0.01804143 23.25 0.03613281 C27.43666956 0.0588201 31.62297828 0.05936412 35.80969238 0.05261517 C39.02672537 0.04927477 42.24367599 0.05590659 45.46069336 0.0657444 C47.00447153 0.06959547 48.54825886 0.070745 50.09204102 0.06915855 C52.24903847 0.06878797 54.40557217 0.08140564 56.5625 0.09765625 C57.79033203 0.10226364 59.01816406 0.10687103 60.28320312 0.11161804 C63.28125 0.37231445 63.28125 0.37231445 66.28125 2.37231445 C66.6796875 4.24731445 66.6796875 4.24731445 66.65625 6.37231445 C66.66785156 7.42418945 66.66785156 7.42418945 66.6796875 8.49731445 C66.28125 10.37231445 66.28125 10.37231445 63.28125 12.37231445 C60.28320312 12.63301086 60.28320312 12.63301086 56.5625 12.64697266 C55.88413086 12.65208359 55.20576172 12.65719452 54.50683594 12.66246033 C52.26488418 12.67635855 50.0232397 12.67539965 47.78125 12.6730957 C46.22330613 12.67698211 44.66536331 12.68131667 43.10742188 12.68608093 C39.84241297 12.69354332 36.5775122 12.69325146 33.3125 12.68798828 C29.12576427 12.6821892 24.93947028 12.69913479 20.75280762 12.72233295 C17.53578091 12.73705378 14.31886106 12.73794435 11.10180664 12.73482323 C9.55801518 12.73533713 8.01421784 12.74058782 6.47045898 12.75063515 C4.31334575 12.76295271 2.15709904 12.7562374 0 12.74462891 C-1.22783203 12.74525833 -2.45566406 12.74588776 -3.72070312 12.74653625 C-6.71875 12.37231445 -6.71875 12.37231445 -8.61523438 11.0365448 C-10.34470048 8.42830808 -10.09878498 6.41259425 -9.71875 3.37231445 C-7.2125016 -0.40740062 -4.26931996 -0.00218859 0 0 Z " fill="#000101" transform="translate(416.71875,162.627685546875)"/>
<path d="M0 0 C0.67836914 -0.00365067 1.35673828 -0.00730133 2.05566406 -0.01106262 C4.2977808 -0.01916788 6.53917474 -0.00555901 8.78125 0.0090332 C10.3391927 0.00955182 11.89713607 0.00903407 13.45507812 0.00752258 C16.72015146 0.00761231 19.98497788 0.01804143 23.25 0.03613281 C27.43666956 0.0588201 31.62297828 0.05936412 35.80969238 0.05261517 C39.02672537 0.04927477 42.24367599 0.05590659 45.46069336 0.0657444 C47.00447153 0.06959547 48.54825886 0.070745 50.09204102 0.06915855 C52.24903847 0.06878797 54.40557217 0.08140564 56.5625 0.09765625 C57.79033203 0.10226364 59.01816406 0.10687103 60.28320312 0.11161804 C63.28125 0.37231445 63.28125 0.37231445 66.28125 2.37231445 C66.6796875 4.24731445 66.6796875 4.24731445 66.65625 6.37231445 C66.66785156 7.42418945 66.66785156 7.42418945 66.6796875 8.49731445 C66.28125 10.37231445 66.28125 10.37231445 63.28125 12.37231445 C60.28320312 12.63301086 60.28320312 12.63301086 56.5625 12.64697266 C55.88413086 12.65208359 55.20576172 12.65719452 54.50683594 12.66246033 C52.26488418 12.67635855 50.0232397 12.67539965 47.78125 12.6730957 C46.22330613 12.67698211 44.66536331 12.68131667 43.10742188 12.68608093 C39.84241297 12.69354332 36.5775122 12.69325146 33.3125 12.68798828 C29.12576427 12.6821892 24.93947028 12.69913479 20.75280762 12.72233295 C17.53578091 12.73705378 14.31886106 12.73794435 11.10180664 12.73482323 C9.55801518 12.73533713 8.01421784 12.74058782 6.47045898 12.75063515 C4.31334575 12.76295271 2.15709904 12.7562374 0 12.74462891 C-1.22783203 12.74525833 -2.45566406 12.74588776 -3.72070312 12.74653625 C-6.71875 12.37231445 -6.71875 12.37231445 -8.61523438 11.0365448 C-10.34470048 8.42830808 -10.09878498 6.41259425 -9.71875 3.37231445 C-7.2125016 -0.40740062 -4.26931996 -0.00218859 0 0 Z " fill="#000101" transform="translate(382.71875,192.627685546875)"/>
<path d="M0 0 C1.51672302 -0.00934319 1.51672302 -0.00934319 3.06408691 -0.01887512 C4.15475464 -0.00966537 5.24542236 -0.00045563 6.36914062 0.0090332 C7.48977905 0.0085347 8.61041748 0.00803619 9.76501465 0.00752258 C12.13551607 0.0098642 14.50601993 0.01959781 16.87646484 0.03613281 C20.51096766 0.05972085 24.14473701 0.05669471 27.77929688 0.05004883 C30.08008251 0.05562558 32.38086505 0.06273544 34.68164062 0.0715332 C35.77230835 0.0706218 36.86297607 0.06971039 37.98669434 0.06877136 C39.50341736 0.08306938 39.50341736 0.08306938 41.05078125 0.09765625 C41.94108032 0.10226364 42.83137939 0.10687103 43.74865723 0.11161804 C46.02539062 0.37231445 46.02539062 0.37231445 49.02539062 2.37231445 C49.42382812 4.24731445 49.42382812 4.24731445 49.40039062 6.37231445 C49.41199219 7.42418945 49.41199219 7.42418945 49.42382812 8.49731445 C49.02539062 10.37231445 49.02539062 10.37231445 46.02539062 12.37231445 C43.74865723 12.63301086 43.74865723 12.63301086 41.05078125 12.64697266 C39.53405823 12.66127068 39.53405823 12.66127068 37.98669434 12.67585754 C36.35069275 12.67449043 36.35069275 12.67449043 34.68164062 12.6730957 C33.5610022 12.67738083 32.44036377 12.68166595 31.2857666 12.68608093 C28.91529008 12.6918266 26.54479593 12.69232276 24.17431641 12.68798828 C20.53973467 12.68482693 16.9059655 12.70829031 13.27148438 12.73364258 C10.97070416 12.73591532 8.66992174 12.73661918 6.36914062 12.7355957 C5.2784729 12.74480545 4.18780518 12.7540152 3.06408691 12.76350403 C2.05293823 12.75727524 1.04178955 12.75104645 0 12.74462891 C-0.89029907 12.74525833 -1.78059814 12.74588776 -2.69787598 12.74653625 C-5.45496841 12.29335886 -6.34315387 11.61154175 -7.97460938 9.37231445 C-8.6147778 4.25096705 -8.6147778 4.25096705 -6.76208496 1.70808411 C-4.39468149 -0.06106214 -2.94028117 -0.00207872 0 0 Z " fill="#000101" transform="translate(433.974609375,132.627685546875)"/>
<path d="M0 0 C1.2148407 -0.00430527 1.2148407 -0.00430527 2.45422363 -0.00869751 C4.16561584 -0.01073792 5.87703138 -0.00520959 7.58837891 0.00732422 C10.2091889 0.02337893 12.82845677 0.00747556 15.44921875 -0.01171875 C17.11198257 -0.00973631 18.77474544 -0.00589263 20.4375 0 C21.22193481 -0.00607269 22.00636963 -0.01214539 22.8145752 -0.0184021 C28.20113988 0.05129398 28.20113988 0.05129398 30.71289062 1.73583984 C32.30411301 4.36599142 32.09301828 6.40429126 31.71875 9.3984375 C30.71289062 11.06103516 30.71289062 11.06103516 28.71875 12.3984375 C25.88358182 12.69673802 23.27262076 12.81882305 20.4375 12.796875 C19.2226593 12.80118027 19.2226593 12.80118027 17.98327637 12.80557251 C16.27188416 12.80761292 14.56046862 12.80208459 12.84912109 12.78955078 C10.2283111 12.77349607 7.60904323 12.78939944 4.98828125 12.80859375 C3.32551743 12.80661131 1.66275456 12.80276763 0 12.796875 C-0.78443481 12.80294769 -1.56886963 12.80902039 -2.3770752 12.8152771 C-7.76363988 12.74558102 -7.76363988 12.74558102 -10.27539062 11.06103516 C-11.86661301 8.43088358 -11.65551828 6.39258374 -11.28125 3.3984375 C-8.74822226 -0.78843602 -4.35998339 -0.03375276 0 0 Z " fill="#000201" transform="translate(384.28125,132.6015625)"/>
<path d="M0 0 C2.79659888 2.18271132 3.76939596 3.66006916 4.37109375 7.15625 C4.5972908 11.26892363 4.34475039 13.44839938 2.125 17 C-1.14840013 20.08084718 -3.46126475 20.33387487 -7.9609375 20.29296875 C-11.13134567 19.83745033 -12.8192402 18.24684343 -15 16 C-16.73631636 12.52736727 -16.60190402 8.78806987 -16 5 C-11.17709419 -1.09209155 -7.29747906 -1.84057198 0 0 Z " fill="#B2D2DC" transform="translate(232,132)"/>
<path d="M0 0 C3.49406769 1.66762322 4.82670681 2.74006022 7 6 C7.54531842 9.06526351 7.54325893 11.93408329 7 15 C4.81840855 17.75569447 3.12822506 19.43588747 0 21 C-4.07909806 21.38482057 -6.29089873 21.44121857 -9.8125 19.25 C-13.21387283 15.75144509 -13.21387283 15.75144509 -14 13 C-13.9188061 8.5343354 -13.47785505 6.56362391 -10.5625 3.125 C-6.82044731 0.02183435 -4.85206382 -0.38055403 0 0 Z " fill="#B2D1DC" transform="translate(122,131)"/>
<path d="M0 0 C0.71994141 -0.00322266 1.43988281 -0.00644531 2.18164062 -0.00976562 C5.95349709 0.02875844 7.73089072 0.17476048 10.9375 2.3125 C11.3359375 4.1875 11.3359375 4.1875 11.3125 6.3125 C11.32023437 7.01375 11.32796875 7.715 11.3359375 8.4375 C10.9375 10.3125 10.9375 10.3125 7.9375 12.3125 C5.24522741 12.53421657 2.6903359 12.63704269 0 12.625 C-0.71607422 12.64111328 -1.43214844 12.65722656 -2.16992188 12.67382812 C-5.37475759 12.67679832 -7.69049926 12.5128985 -10.53515625 10.98046875 C-12.0625 9.3125 -12.0625 9.3125 -12.5625 6.3125 C-12.0625 3.3125 -12.0625 3.3125 -10.53515625 1.64453125 C-7.07233194 -0.22090807 -3.82990625 -0.08618151 0 0 Z " fill="#000302" transform="translate(472.0625,192.6875)"/>
<path d="M0 0 C1.96453125 -0.02900391 1.96453125 -0.02900391 3.96875 -0.05859375 C7.5 0.4375 7.5 0.4375 9.97265625 2.26953125 C11.5 4.4375 11.5 4.4375 11.4375 7.5625 C10.5 10.4375 10.5 10.4375 7.5 12.4375 C4.97133995 12.65900947 2.58891112 12.76211127 0.0625 12.75 C-1.91556641 12.77513672 -1.91556641 12.77513672 -3.93359375 12.80078125 C-7.57535585 12.4298241 -9.02832356 12.08262742 -11.5 9.4375 C-12 6.4375 -12 6.4375 -11.5 3.4375 C-8.11374797 -0.16039278 -4.75703007 0.00468212 0 0 Z " fill="#000403" transform="translate(384.5,162.5625)"/>
</svg>
