<?xml version="1.0" encoding="utf-8"?>
<!-- Generator: Adobe Illustrator 24.0.0, SVG Export Plug-In . SVG Version: 6.00 Build 0)  -->
<svg version="1.1" xmlns="http://www.w3.org/2000/svg" xmlns:xlink="http://www.w3.org/1999/xlink" x="0px" y="0px"
	 viewBox="0 0 848.2 838.2" style="enable-background:new 0 0 848.2 838.2;" xml:space="preserve">
<style type="text/css">
	.st0{fill:url(#SVGID_1_);}
	.st1{fill:url(#SVGID_2_);}
	.st2{fill:#6B57A3;}
	.st3{fill:#7053A0;}
	.st4{fill:#5961AA;}
	.st5{fill:#E67854;}
	.st6{fill:#804687;}
	.st7{fill:#685BA5;}
	.st8{fill:#83427E;}
	.st9{fill:#D46450;}
	.st10{fill:#DF764F;}
	.st11{fill:#7B4D7D;}
	.st12{fill:#874278;}
	.st13{fill:#CE9A51;}
	.st14{fill:#7B4970;}
	.st15{fill:#E57255;}
	.st16{fill:#81437D;}
	.st17{fill:#7D4D72;}
	.st18{fill:#665BA5;}
	.st19{fill:#7E4871;}
	.st20{fill:#81476F;}
	.st21{fill:#646BB1;}
	.st22{fill:#7A5170;}
	.st23{fill:#775792;}
	.st24{fill:#7D496F;}
	.st25{fill:#7E4D79;}
	.st26{fill:#7C5886;}
	.st27{fill:#CC7266;}
	.st28{fill:#379CD6;}
	.st29{fill:#744E9D;}
	.st30{fill:#5F5DA7;}
	.st31{fill:#4B68B1;}
	.st32{fill:#5363AC;}
	.st33{fill:#378DCD;}
	.st34{fill:#E97E54;}
	.st35{fill:#E57351;}
	.st36{fill:#E77A54;}
	.st37{fill:#E3734F;}
	.st38{fill:#E67452;}
	.st39{fill:#E77750;}
	.st40{fill:#E3794D;}
	.st41{fill:#7C488D;}
	.st42{fill:#804586;}
	.st43{fill:#814583;}
	.st44{fill:#86437D;}
	.st45{fill:#864077;}
	.st46{fill:#8A3E81;}
	.st47{fill:#E87F52;}
	.st48{fill:#E5824E;}
	.st49{fill:#EA7B5F;}
	.st50{fill:#5EA86E;}
	.st51{fill:#57AB7A;}
	.st52{fill:#4FB08A;}
	.st53{fill:#51AE83;}
	.st54{fill:#4CB292;}
	.st55{fill:#9CA24F;}
	.st56{fill:#A5A14A;}
	.st57{fill:#ADA147;}
	.st58{fill:#95A66C;}
	.st59{fill:#42BABA;}
	.st60{fill:#43B9AD;}
	.st61{fill:#58B2A0;}
	.st62{fill:#47BCC8;}
	.st63{fill:#35ABD8;}
	.st64{fill:#4C9AC4;}
	.st65{fill:#C5664F;}
	.st66{fill:#E06F4E;}
	.st67{fill:#D96748;}
	.st68{fill:#DC6A4A;}
	.st69{fill:#D2653F;}
	.st70{fill:#D47B64;}
	.st71{fill:#CC6F5A;}
	.st72{fill:#CB9C3E;}
	.st73{fill:#B59F44;}
	.st74{fill:#426DB5;}
	.st75{fill:#3A7EC2;}
	.st76{fill:#3A77BD;}
	.st77{fill:#3E72B9;}
	.st78{fill:#7D4A8F;}
	.st79{fill:#D96649;}
	.st80{fill:#DF884A;}
	.st81{fill:#DB8B45;}
	.st82{fill:#D89043;}
	.st83{fill:#CF993C;}
	.st84{fill:#D3963E;}
	.st85{fill:#D9784A;}
	.st86{fill:#874182;}
	.st87{fill:#DC694A;}
	.st88{fill:#44BBBF;}
	.st89{fill:#83A358;}
	.st90{fill:#D69341;}
	.st91{fill:#3BBCD8;}
	.st92{fill:#784B97;}
	.st93{fill:#784B96;}
	.st94{fill:#7D478D;}
	.st95{fill:#7C4B9A;}
	.st96{fill:#3895D2;}
	.st97{fill:#E87E53;}
	.st98{fill:#DF8453;}
	.st99{fill:#E57551;}
	.st100{fill:#7A4993;}
	.st101{fill:#7A4A91;}
	.st102{fill:#7A4892;}
	.st103{fill:#DD7D49;}
	.st104{fill:#E3854C;}
	.st105{fill:#DE8654;}
	.st106{fill:#6AA667;}
	.st107{fill:#44B8A8;}
	.st108{fill:#49B49A;}
	.st109{fill:#49B59A;}
	.st110{fill:#47B699;}
	.st111{fill:#8CA355;}
	.st112{fill:#7BA460;}
	.st113{fill:#42BAB3;}
	.st114{fill:#46B7A3;}
	.st115{fill:#45BDD1;}
	.st116{fill:#36B3D9;}
	.st117{fill:#35A3D7;}
	.st118{fill:#3A87C8;}
	.st119{fill:#D76546;}
	.st120{fill:#D2623F;}
	.st121{fill:#D16643;}
	.st122{fill:#D2603E;}
	.st123{fill:#D56352;}
	.st124{fill:#DF6F4D;}
	.st125{fill:#D86741;}
	.st126{fill:#BE9E3F;}
	.st127{fill:#D29840;}
	.st128{fill:#CE6641;}
	.st129{fill:#74A664;}
	.st130{fill:#70A55B;}
	.st131{fill:#D3654E;}
	.st132{fill:#DB7341;}
	.st133{fill:#46BDD1;}
	.st134{fill:#3B4C9F;}
	.st135{fill:#36944C;}
	.st136{fill:#3775BB;}
	.st137{fill:#C12A2A;}
	.st138{fill:#E65E2E;}
	.st139{fill:#EAB339;}
</style>
<g id="图层_1">
	<linearGradient id="SVGID_1_" gradientUnits="userSpaceOnUse" x1="548.0995" y1="505.2292" x2="551.4329" y2="316.8958">
		<stop  offset="0" style="stop-color:#5F5CA7"/>
		<stop  offset="0.2965" style="stop-color:#5870B4"/>
		<stop  offset="0.9413" style="stop-color:#3B9CD3"/>
		<stop  offset="1" style="stop-color:#37A0D6"/>
	</linearGradient>
	<path class="st0" d="M557.4,524.3H542c-13.3,0-24.2-10.8-24.2-24.2V328.8c0-13.3,10.8-24.2,24.2-24.2h15.3
		c13.3,0,24.2,10.8,24.2,24.2v171.3C581.5,513.5,570.7,524.3,557.4,524.3z"/>
	<linearGradient id="SVGID_2_" gradientUnits="userSpaceOnUse" x1="329.4926" y1="419.3576" x2="377.0715" y2="416.245">
		<stop  offset="1.985342e-02" style="stop-color:#E2724D"/>
		<stop  offset="9.513474e-02" style="stop-color:#D08550"/>
		<stop  offset="0.2589" style="stop-color:#91A253"/>
		<stop  offset="0.2598" style="stop-color:#91A253"/>
		<stop  offset="0.5143" style="stop-color:#50AC7D"/>
		<stop  offset="0.6832" style="stop-color:#36BBDA"/>
		<stop  offset="0.9525" style="stop-color:#6D55A1"/>
	</linearGradient>
	<path class="st1" d="M299.3,517.8L362,375.7c1.4-3.2,5.9-3.3,7.4-0.1l66.3,141.1c2.1,4.5,6.7,7.3,11.6,7.2l23.5-0.4
		c18.4-0.3,27.7-16.4,16.4-35.7l-90.2-178.8c-1.8-3.4-5.4-5.5-9.3-5.4l-40.2,1c-5.2,0.1-9.9,3.1-12.2,7.8l-90.1,182.2
		c-6.7,13.6,3.2,29.4,18.3,29.4h25.9C293.8,524.1,297.6,521.7,299.3,517.8z"/>
</g>
<g id="图层_4">
	<path class="st2" d="M494.4,506.7c-1,2.2-1.2,4.8-2.9,6.7c-2.3-3.2-1.2-7-1.6-10.5c-0.2-2-0.4-3.4-2.9-3.3c-1.3,0.1-2.4-0.7-3-1.9
		c-2.4-4.5-6.4-7.6-10.4-10.5c-0.6-0.4-1.4-0.8-1.6-1.6c-0.8-3.6-3.6-4.8-6.5-6c-2.1-0.9-3.8-2.4-5.3-4.1c-3.4-4-7.5-7.3-11.2-11
		c-0.4-0.4-0.9-0.6-1.1-1c-2.3-7-8.9-10.5-13-16c-5.2-6.9-11.1-13.1-17.9-18.4c-2.9-2.3-6-4.3-8.3-7.3c-1.8-2.4-4-4.5-5-7.4
		c-0.9-2.6-3.2-3.8-5.1-5.4c-3.9-3.4-6.6-7.7-10.4-11.2c-1.1-1-2.2-2-3.5-2.8c-1.7-1.1-2.8-2.5-2.2-4.7c0.5-0.3,1-0.3,1.6,0
		c1.3,2.2,3.9,2.9,5.7,4.6c3.8,3.5,7.3,7.5,11.2,10.6c4.9,3.8,7.6,9.2,12.1,13c2.4,2,5.4,3.5,7.8,5.7c3.5,3.3,6.9,6.8,11.5,8.8
		c1.6,0.7,3,2.1,3.6,3.7c0.9,2.5,2.7,4.1,4.7,5.6c6.6,4.7,11.7,11.1,17.2,16.9c6,6.2,12.2,11.7,19.5,16.1c0.7,0.4,1.1,1.3,2.2,0.6
		c0.7-0.5,1.6,0,1.6,0.9c0,4,3.1,4.2,5.7,4.9c4.7,7.2,8.7,14.6,7.8,23.7C494.8,505.9,494.8,506.4,494.4,506.7z"/>
	<path class="st3" d="M382.7,390.5c0.2,4,4.2,4.7,6.3,6.8c3.5,3.5,6,7.8,10.1,10.8c5.9,4.3,7.9,11.6,13.1,16.6
		c0.4,0.3,0.6,0.9,1,1.1c9.3,5,15.5,13.3,22.4,20.9c3.5,3.9,6.7,8.3,11.1,11.4c0.4,0.3,0.9,0.7,1,1.1c0.6,6.1,6.2,8.1,9.7,11.7
		c2.6,2.7,4.6,6.2,8.3,7.9c3,1.4,5.9,2.2,7.3,6.3c0.9,2.5,5,4.3,7.5,6.7c1.1,1,2.6,1.9,3.1,3.1c1.1,2.7,2.1,4.7,5.6,3.6
		c1.2-0.4,1.5,0.9,1.6,2c0.2,4.3,0.5,8.6,0.8,12.9c-1.3,2.1-2.5,4.3-5,5.3c-1,0.3-2,0.6-3-0.1c-1-0.9-0.9-2-0.4-3.1
		c1.8-3.7,0.1-6.7-2.4-9c-7.8-6.8-13.3-15.7-21-22.5c-5-4.4-8.2-10.3-12.8-14.8c-5.2-5.1-7.9-12.5-14.7-16c-0.5-0.3-0.9-0.9-1.1-1.5
		c-3.7-9.1-11.5-14.7-18-21.5c-3.2-3.3-5.4-7.5-8.6-10.8c-5.2-5.4-9.9-11.2-14.7-16.9c-3.4-3.9-8.3-7.2-9.2-13
		C381.5,389.1,382.3,389.5,382.7,390.5z"/>
	<path class="st4" d="M372.2,380.1c0.3-1-0.6-1.6-0.8-2.4c-0.1-0.8,0.2-1.3,0.9-1.6c0.3,0,0.7,0.1,0.9,0.2c1.1,1.2,2.1,2.6,3.5,3.5
		c3.4,0.9,6.6,2.1,8.4,5.5c0.4,0.7,1.1,1,1.9,1c4.5-0.2,7.5,2.9,11,5c6.4,3.8,12.4,8.1,19.5,10.7c2.5,0.9,4.2,2.7,6,4.3
		c4.3,4.1,10,5.3,15.3,7.4c2.1,0.8,4.1,1.3,5.7,3.1c4,4.6,4.8,4.5,8.7-0.2c2.2,1.3,3.4,3.2,3.5,5.8c-0.2,1-1.7,2,0.3,2.8
		c0.8,0.4,1.3,1.6,1.2,2.5c-0.2,1.9,1.1,2.5,2.4,3.2l0,0c0.6,3.1,3.4,5.2,3.8,8.4c0.2,1.1,0.6,2.3,0.1,3.3c-0.7,1.5-1.5,2.6-3.7,1.4
		c-5.1-2.8-9-7-13.1-10.9c-4.6-4.6-9.9-8.1-15.7-11c-3.3-1.7-6.6-3.6-9-6.6c-1.6-2-3.9-3.1-6.3-3.9c-2-0.8-4-1.8-5.3-3.5
		c-3.3-4.5-7.9-7.2-12.7-9.6c-4.1-2-7.2-5.3-11-7.8c-1.4-0.9-2.8-1.6-4.5-1.8c-1.1-0.3-2-0.8-2.7-1.8c-0.4-3.1-2.7-3.9-5.2-4.5
		c-0.5-1.1-1.3-0.1-1.9-0.3C372.8,381.9,372.6,381,372.2,380.1z"/>
	<path class="st5" d="M245.5,497c0-1.7,0.8-3,1.6-4.4c1.2-1.9,2-4,3-6l0,0c1-1.7,1.8-3.6,2.9-5.3c0.1-0.2,0.2-0.4,0.2-0.6
		c0.6-1.3,1.4-2.6,2-3.9c0.1-0.5,0.1-1,0.2-1.5c1.9-2.4,1.6-5.9,4.4-7.7c3.1,0,2.5,2.7,3.1,4.6c1.7-0.6,2.2-1.8,2.3-3.2
		c0.1-1.7,0.4-3.5,0.6-5.2c0.3-1.9,0.2-3.9,3.3-2.3c2,1,4.4-0.3,6.6,0c7.1,0.3,10.4-5.1,14.3-9.5c1.3-1.5,2.4-3,4.6-1.4
		c0.5,3.1-1.4,4.9-3.4,6.9c-4.3,4.2-9.2,7.9-10.4,14.3c-0.4,2.1-2,3-3.9,3.6c-4.7-0.3-7.4,2.1-8.9,6.3c-1.1,0.5-2.6,0.2-3.2,1.5
		c-1.1,2.4-2.5,4.1-5.4,4.4c-1.6,0.1-1.6,2-2.2,3.1c-0.9,1.7,0,4.4-2.8,5c-1-1.4-1-3-1.2-4.6c-0.6-0.7,1.5-1.9-0.5-2.4
		c-0.4,0.7-0.6,1.4-1,2.1c-1.2,2.6-3.3,5-1,8c0.5,0.9,0.4,1.9,0.3,2.8c-0.2,1.3-0.3,3-1.9,3.1c-1.5,0.1-1.4-1.7-1.8-2.7
		c0-0.2,0-0.5,0-0.7c0-0.3,0.2-0.6,0.1-1c-2.4,1.7-1.3-1.1-2.1-1.6C245.1,498,245.1,497.4,245.5,497z"/>
	<path class="st6" d="M483.9,518.7c0.9-0.5,1.7-0.3,2.6,0.1c-3.7,4-8.8,4.7-13.8,5c-5.2,0.2-10.4,0-15.6-0.1c0.5-1.6,2-0.3,2.8-0.9
		c0.5-0.1,0.3-0.6,0.1-0.3c-0.6,0.9-1.6,0.3-2.4,0.3c-1.3-0.2-2.7,0.1-3.8-0.8c-0.1-2.6-0.4-5.1-1.9-7.4c-0.8-1.3-1.5-2.4-2.8-3.4
		c-2.7-2.1-3.1-5.7-5.4-8.3c-2.9-3.3-4.4-7.4-7.2-10.8c-0.9-1.1-1.5-2.3-1.6-3.7c-0.2-3.2-2.1-4.9-5.1-5.6c-1.7-0.7-3-1.8-3.6-3.6
		c-0.1-0.5-0.3-1-0.1-1.4c1-3.5,0.4-6.5-2.1-9.4c-1.2-1.4-1.4-3.4-0.8-5.3c0.2-0.3,0.4-0.6,0.8-0.8c4.2,3.1,7.3,6.6,8.8,12
		c0.9,3.4,4.2,6,4.7,9.9c0,0.3,0.4,0.7,0.7,0.8c4.2,0.6,4.8,4.3,6.1,7.3c2.9,6.2,7.6,11.1,11.2,16.8c1.9,3,4.5,5.6,5.8,9.1
		c0.6,1.7,1.9,2.5,3.7,2.8c4.1,0.8,8.2,0.8,12.3,0.2c1.3-0.5,2.5-1,3.3-2.1C481.7,517.9,482.8,517.9,483.9,518.7z"/>
	<path class="st7" d="M486.4,481.9c-1.3-1.2-3.5,2.1-4.6-1c-0.5-1.5-2.6-2.5-0.7-4.6c-2.1,0.1-1.3,1.5-2,2c-3.8-4-9.1-5.8-13-9.7
		c-2-2-4.7-3.4-6.8-5.1c-1.2-1-1.2-4.1-3.3-5.4c-6.3-3.9-9.6-10.9-15.6-15.1c1.1-1.5,2.4-1.6,3.8-0.4c3.5,2.9,7.3,5.6,9.9,9.4
		c2,3,5.2,5,7.3,7.9c0.2-4,1.4-4.6,4.8-2.4c1.1,0.9,1.7,2.7,3.6,1.7c1.8-1,1-2.5,0.7-3.9c-0.3-1.2-0.5-2.5,0.7-3.4
		c2.6,1.4,2.6,4.3,3.9,6.5c0.4,0.7,0.8,1.5,1.2,2.2c0.1,0.4,0.2,0.8,0.3,1.1c2.7,2.6,3.3,6.2,5,9.3c0.6,2.4,1.9,4.4,3.1,6.4
		C486,478.7,487,480,486.4,481.9z"/>
	<path class="st8" d="M454,521.7c1.3,0.2,2.7-0.5,3.7,0.7c-3.5,2-7-0.6-10.5-0.1c-0.3-0.2-0.6-0.3-0.9-0.5c-1-1.9-2.6-2.8-4.6-3.3
		c-0.8-0.5-1.5-1-1.7-2c0.1-0.6,0.4-1,0.9-1.2c0.9-0.2,1.8,0.5,2.8,0.1c-0.5-1.5-2.2-1-2.9-1.9c-0.6-1.1-1.3-2-2.6-2.5
		c-0.7-0.2-1.5-1-1-1.6c2.2-2.6-0.4-3.2-1.7-4.3c-0.4-0.3-0.8-0.6-1.2-0.9c-0.7-0.9-0.8-2.1-1.5-3.1c-0.2-0.3-0.3-0.6-0.4-0.9
		c-1.1-1.8-2-3.6-2-5.8c0-5.1-4.6-7.4-6.8-11.1c-1.3-1.5-2.7-2.8-2.2-5.1c0.2-0.5,0.6-0.8,1.1-1c1.5,0.5,3.2,0.5,4.5,1.7
		c0.7,1.3,1.7,2.3,3,3c4.4,2.7,5.6,7.3,7,11.7c0.6,1.8,1.2,3.5,2.9,4.6c2.7,1.7,2.1,5.2,4.3,7.4C448.8,510.1,451.1,516.1,454,521.7z
		"/>
	<path class="st9" d="M260.6,523.2c-0.6-0.7-1.5-0.7-2.3-0.7c-2.1-0.5-3.9-1.3-5.3-3l0,0c-1.3-0.6-2.2-1.8-3-2.9
		c0-0.3-0.1-0.5-0.1-0.8c0.4-0.5,0.9-0.6,1.5-0.5c2.3,2.2,5.2,2.6,8.1,3.3c2.9,2.9,6.6,2.9,10.3,2.9c2.8,0,5.7-0.1,8.5,0
		c3.7,0.1,7.1-0.4,10-3c1.1-1,2.4-1.1,3.8-1.4c1.3-0.6,1.7-2,2.6-3c1.1-1.2,2.2-2.3,4.1-1.6c0.6,0.9,0.2,1.8,0,2.7
		c-1.9,5.2-6.3,6.9-11.2,7.9l0,0c-2.7,1.4-5.5,1.6-8.6,1.3c-3.8-0.4-7.7-0.5-11.5,0.2C264.9,525.1,262.7,524.4,260.6,523.2z"/>
	<path class="st10" d="M245.7,498.5c0.4,1.2,2.7,1.1,2,3c-0.8,2.6,0.4,4.3,2.6,5.8c0.4-2.1,0.3-4.2,0.5-6.3c0.2-1.4,0.6-2.9,2.6-1.6
		c1.1,3,0.6,6.2,0.4,9.3c-0.2,2.9-2.5,4.1-4.9,5.1c-2.6-0.6-2.4-3.2-3.3-4.9c-0.6-2.4-1.7-4.7-0.8-7.3
		C245.7,500.7,244.5,499.3,245.7,498.5z"/>
	<path class="st11" d="M385.1,406.9c-0.7-1.1-1.5-2.2-1.6-3.6c-0.3-0.9,0.1-1.4,0.8-1.7c0.2,0,0.6-0.1,0.7,0.1
		c2.4,4.3,6.1,7.8,7.3,12.8c1.5,3.7,3.7,7.1,4.3,11.1c0,0.4-0.1,0.7-0.2,1c-0.4,0.4-0.9,0.5-1.5,0.4c-0.3-0.1-0.6-0.3-0.8-0.6l0,0.1
		c-0.9-1.1-0.8-2.7-1.9-3.7c-0.8-2.3-1.9-4.5-2.7-6.7l0,0C387.2,413.4,386.1,410.1,385.1,406.9z"/>
	<path class="st12" d="M424,482.8c3.9,3.9,8.3,7.5,7.5,13.9c-0.2,1.8,3.2,2,1.5,4.1c-2.2,0.8-2.5-1.7-3.9-2.1l0.1,0
		c-0.9-3.3-0.8-7.2-4.5-9.1c-0.2-0.3-0.3-0.6-0.5-0.8C424.7,486.7,422.1,484.8,424,482.8z"/>
	<path class="st13" d="M303.3,377.8c0.2-0.3,0.5-0.5,0.7-0.8c3.5-7.1,6.5-14.5,10.9-21.1c1.1,0.3,1.2,1.3,1.4,2.1
		c0.1,0.4,0.1,0.7,0,1.1c-0.2,0.5-0.4,1-0.7,1.4c-1.7,3.6-4.1,6.7-5.7,10.3c-1.3,1.9-2.2,4-3,6.1c-0.9,1.8-1.8,3.4-2.7,5.2
		c-0.7,1.4-1.4,3-3.4,2.5C300.3,381.8,302.1,379.9,303.3,377.8z"/>
	<path class="st14" d="M413.6,467.5c-1.8-4.2-3.6-8.3-5.4-12.5c-0.2-0.2-0.3-0.4-0.2-0.6c0-0.2,0.1-0.3,0.2-0.3
		c1.2-0.9,2.2-1.2,2.9,0.5c2.9,7,7.2,13.3,8.7,20.9c-0.3,0.9-0.9,1-1.7,0.8c-1.2-2-2.3-4-3-6.2l0,0
		C414.3,469.3,413.8,468.4,413.6,467.5z"/>
	<path class="st15" d="M248.6,513.5c4.7-2,4.8-6,4.5-10.3c-0.1-1.3,0-2.7,0-4c1.9-0.8,2,0.7,2.4,1.9c-0.1,3.7,0.2,7.4,0.8,11
		c-0.2,0.3-0.4,0.6-0.7,0.9c-0.4,0.3-1,0.5-1.5,0.6c-1.4,0.1-1.7,1.5-2.6,2.1c-0.5,0-1.1,0-1.6,0c0,0-0.3,0-0.3,0l-0.3-0.1
		C248.9,515,248.1,514.5,248.6,513.5z"/>
	<path class="st16" d="M400.4,438.6c-0.1,0-0.3,0-0.4-0.1c-0.5-0.6-0.3-1.3-0.7-1.9c0-2.1-0.9-3.9-2.3-5.5c-0.2-0.3-0.3-0.6-0.4-0.9
		c0.1-1.2-0.9-2.3-0.4-3.6l0,0c3.9-0.1,4.5,3.6,6,5.8c1.6,2.4,2.2,5.4,3.5,8.1c0.1,0.4,0.1,0.8,0,1.1c-0.2,0.6-0.6,1-1.2,1.1
		C402,442.5,402.6,439.1,400.4,438.6z"/>
	<path class="st17" d="M400.4,438.6c3-0.6,2.1,3.2,4.1,3.7c1.9,1.8,2.6,4.3,3.4,6.7c0.1,0.3,0.3,0.6,0.4,0.9
		c0.6,1.4,2.2,2.9,0.1,4.3c0,0.2,0,0.5-0.1,0.7C405.6,449.5,403,444.1,400.4,438.6z"/>
	<path class="st18" d="M374.1,382.3c0.4-0.2,0.8-0.8,1.2,0c2.6,0.8,4.8,2,6,4.5c0.7,0.5,1.5,1,2.2,1.5c0.5,0.5,1,1,1,1.8
		c-0.1,0.2-0.1,0.3-0.2,0.5c-0.5,0-1,0-1.5,0c-0.7-0.3-1.5-0.5-2.2-0.8c-0.5,0-1-0.1-1.4-0.3c-1.6-0.7-2-2.4-3.3-3.4
		c-0.4-0.5-0.8-1-1.3-1.5C374.3,383.8,373,383.3,374.1,382.3z"/>
	<path class="st19" d="M418.2,476c0.6,0,1-0.2,1.3-0.7c2,0.1,2.1,1.6,2.2,3c0.2,1.8,1.2,3.2,2.3,4.5c-0.9,2,2.5,3.9,0.2,6
		c-0.3-0.5-0.6-1-1-1.5c-1.8-2.2-2.6-4.9-3.7-7.5l0,0C418.7,478.6,417.4,477.7,418.2,476z"/>
	<path class="st20" d="M429,498.6c2-0.5,2.3,2,3.9,2.1c0,0,0,0,0,0c0.6,1.3,0.6,2.7,1.5,3.8c0.5,1.8,3.5,3.3,0.8,5.6
		c-0.4,0-0.7-0.1-1.1-0.3C431.9,506.4,430.5,502.5,429,498.6z"/>
	<path class="st21" d="M456.5,422.7c0.3,0.3,0.6,0.6,1,0.9c1.1,2.5,2.2,4.9,3.3,7.4c-2.4,0.5-4.1,0.4-3.1-2.9c0.3-1-0.1-2.1-1-2.5
		C454.3,424.5,454.3,424.6,456.5,422.7z"/>
	<path class="st22" d="M434.2,509.9c0.4,0,0.7-0.1,1.1-0.1c2.2,1.9,4.5,3.7,5.2,6.7c0.5,0.5,1,1,1.5,1.5c0.8,0.7,2,0.8,2.7,1.7
		c0.5,0.7,0.8,1.5-0.6,1.4C439.3,518.6,436.1,514.8,434.2,509.9z"/>
	<path class="st23" d="M375.8,386.1c1.7,0.4,2.4,2.3,3.9,3c0.8,2.2,1.8,4.4,2.8,6.6c-0.7,1.7-1.5,0.7-2.4,0.1
		c-0.7-0.9-1.7-1.7-1.6-3.1C377.1,390.7,376.7,388.3,375.8,386.1z"/>
	<path class="st24" d="M424.6,489.6c3.4,0.2,5.4,4.2,4.5,9.1C427.2,495.8,425.5,492.9,424.6,489.6z"/>
	<path class="st25" d="M447.3,522.4c3.5-1.6,7,1,10.5,0.1c0.8,0.1,1.5,0.1,3.2,0.2c-1.9,0.5-2.8,0.7-3.8,1
		C453.7,524.1,450.4,523.7,447.3,522.4z"/>
	<path class="st21" d="M462.3,433.3c1.5,3.2,2.9,6.5,4.4,9.7c-2.7,0.1-1.9-2.5-2.9-3.7c-0.3-3-3.9-4.8-3-8.2
		C461.2,431.8,461.7,432.5,462.3,433.3z"/>
	<path class="st26" d="M380.1,395.2c0.8-0.4,0.9,1.3,1.9,0.6c1-0.2,1.3,0.5,1.6,1.2c0.6,1.6,1,3.2,0.6,4.9c-0.3,0.5-0.5,1-0.8,1.5
		c-0.9-0.5-1.3-1.3-1.4-2.3c-1.1-1-0.9-2.6-1.6-3.7l0,0C379.9,396.7,379.7,396,380.1,395.2z"/>
	<path class="st27" d="M331.8,443.7c-0.1,0.8-0.1,1.5-0.2,2.3c-1,2-2,4-2.9,6c-0.2,0-0.4,0.1-0.7,0.2c-1.7-2.8,0.6-4.8,1.5-7
		C330.2,444.5,330.6,443.4,331.8,443.7z"/>
	<path class="st25" d="M444,521.1c1.1-0.9,0-1.1-0.5-1.6c-0.5-0.5-1-1-1.6-1.5c2.4,0.2,4.7,0.6,4.4,3.8
		C445.5,521.9,444.7,521.8,444,521.1z"/>
	<path class="st28" d="M370.6,376.3c-0.2-0.7-0.5-1.4-0.7-2.1c0.2-0.3,0.5-0.6,0.9-0.7c0.8-0.2,1.5-0.1,2.2,0.4
		c0.6,1.1-0.1,1.8-0.7,2.5c-0.3,0.4-0.6,0.9-0.9,1.3C371.1,377.2,370.9,376.8,370.6,376.3z"/>
	<path class="st18" d="M466,458c-3.3-3-3.6,0.4-4.5,2.3c-5.1-3.3-8.2-8.5-12.2-12.7c-1.8-1.9-4.6-2.4-6-4.9
		c-0.5-0.9-1.8,0.4-2.8,0.3c-2.1-1.4-4.4-2.5-4.9-5.6c-0.3-1.4-2-3.1-3.5-3.7c-6.2-2.4-9.6-8.5-15.1-11.6c-3.9-2.2-7.3-5.1-9-8.4
		c-2.3-4.6-6.7-6.6-9.8-9.9c-3.5-3.8-7-8.6-12.5-10.4c-1.3-0.4-1.4-1.6-1.3-2.8c0,0,0,0,0,0c5.9,1.3,9.8,5.5,14.3,9.1
		c5,4,10.5,7.5,14.2,13.1c0.3,0.4,0.8,0.7,1.2,0.8c5,1.2,8.1,5,11.5,8.3c4,3.8,9,6.2,12.9,10.2c5.7,5.7,12.7,9.9,17.9,16.2
		c1.8,2.2,4.7,3.5,7.2,5.2C465.1,454.4,466.9,455.5,466,458z"/>
	<path class="st29" d="M382.8,397.3c-0.1-0.6-0.2-1.2-0.8-1.5c-1-2.2-2.4-4.2-2.3-6.7c0.3,0.2,0.5,0.5,0.8,0.7
		c5.2,7.6,11.7,14.1,17.7,21.1c5,5.7,9.3,12,14.4,17.5c3.8,4.1,7.3,8.6,11.6,12.2c3.4,2.8,6.1,5.9,7.4,10.2c0.9,3.1,4.1,4.2,6.3,6.1
		c1.5,1.4,2.9,2.8,3.8,4.5c1.3,2.5,2.3,4.8,5.3,6.2c2,1,3.1,4,4.5,6.2c1.8,2.8,3.4,5.6,6.8,7.1c2.4,1.1,4.3,3.8,5.5,5.9
		c2.6,4.3,7.6,6.3,9.4,11.3c1.2,3.3,5.2,4.6,7.7,7.2c3.5,3.8,4.8,6.3,3,11c-0.4,1-0.1,1.6,0.2,2.4c-2.9-0.7-3.4,3.2-6,3
		c-0.7,0.5-1.4,0.4-2.2,0.2c-1.5-2.3-1.4-5-1.1-7.5c0.1-1.2,0.3-1.9-0.8-2.9c-3.5-3.2-7.2-6.4-9.7-10.4C459.6,494,454,488,448.3,482
		c-2.3-2.4-4.4-4.9-6-8c-1.5-2.8-4.4-5-6.6-7.4c-2.3-4.2-4.9-8.2-8.2-11.6c-3.6-3.7-5.1-8.8-8.6-12.6c-1.1-1.2-1.8-2.6-3.3-3.5
		c-3.7-2.2-5.9-5.6-7.4-9.4c-0.5-1.2-1.1-1.9-2.4-2c-2.8-0.8-3.9-3.7-6.4-5c-2.6-1.9-2.6-4.8-3.2-7.5c-1.1-5.7-5.8-8.9-9.3-12.8
		C385.2,400.7,384.1,398.9,382.8,397.3z"/>
	<path class="st30" d="M466,458c-1-4.3-5.4-5-8.1-7.4c-0.8-0.7-2-1.1-2.7-2.2c-2.5-3.9-6.2-6.7-9.8-9.2c-3.3-2.2-5.7-5.1-8.5-7.5
		c-3.5-3-7.9-4.9-10.7-8.3c-2.4-2.9-6-4.1-8-7.2c-0.3-0.5-0.9-1.2-1.4-1.1c-4.4,0.4-5.7-3.5-8-5.8c-5.6-5.6-12.4-9.7-18.1-15
		c-1.8-1.7-4.8-1.3-6.2-3.7c-0.3-0.7-0.5-1.5-0.8-2.2c3.4-0.4,5.7,1.8,7.7,3.8c3.1,3.1,6.8,5,10.4,7c3.8,2.1,7.4,4.2,10,7.8
		c1.6,2.2,4,3.5,6.8,4.2c4.2,1.2,6.2,5.5,9.9,7.5c5,2.7,10,5.3,14.6,8.6c3.7,2.7,6.8,6.2,10,9.5c2.1,2.1,3.6,4.8,7,4.9
		c0.1,0,0.2,0.1,0.3,0.1c1.4-0.1,0.5,3.2,2.7,1.9c1.9-1.1,0.4-3,0.8-4.4c1.4,0.9,1.2,3.1,2.9,3.7c1.3,2.3,2.6,4.5,3.9,6.8
		c0.2,0.8,0.5,1.5,0.7,2.3c0.1,1.1-0.2,2.5,0.3,3.3c1.5,2.4,0.7,3.7-1.5,5C467.1,462,467.2,459,466,458z"/>
	<path class="st31" d="M448,405.5c0,0.3-0.1,0.5-0.1,0.8c-2.1,1.7-5,1.2-7.3,2.7c-0.6,0.4-1.8-0.4-2.2-1.1c-1.4-2.5-3.7-3-6.2-3.6
		c-2.3-0.6-4.4-1.4-5.7-3.8c-1.2-2.3-3.9-2.8-6.2-2.9c-7-0.5-13.8-3-19.1-6.8c-6.1-4.3-14-4-19.5-9.1c-1.4-1.3-3.9-0.4-5.7-1.5
		c-1.4-0.9-2.8-1.8-3-3.7c0.1-0.5,0.5-0.8,0.9-1c0.3,0,0.6,0,0.9,0.3c0.5,0.8,1.2,1.4,2.2,1.3c2.9-0.3,5.4,1,7.9,1.9
		c6.8,2.4,14,3.2,20.9,5.1c4.8,1.3,9.9,1.4,14.5,2.6c5.3,1.4,11.4,1.5,15.9,5.5c1.2-1.4-0.3-3.5,1.5-4.5c1.7,0.1,1.9,1.4,2.3,2.6
		c0.1,0.9,0.1,1.9,1.1,2.5c0.4,0.3,0.5,0.8,0.8,1.1l0,0C444.3,397.4,446.6,401.2,448,405.5L448,405.5z"/>
	<path class="st32" d="M376,380c3.4,0,6.7,0.6,9.4,2.8c3.1,2.6,7.4,1.8,10.8,3.8c3.6,2.1,7.3,4,10.9,6c4.1,2.3,8.6,2.9,13.1,3.8
		c3.2,0.7,6.5,0.9,8.2,4.9c0.8,1.8,4.2,2.5,6.6,2.4c1.8-0.1,2.3,0.6,3,1.9c1.8,3.2,2,3.2,4.4,0.4c0.6-0.7,1.1-0.2,1.6,0
		c1.3,0.6,2.6,0.7,3.9,0.1c1,1.7,2.1,3.4,3.1,5.1c0.7,1.8,1.5,3.6,2.2,5.4c-0.3,1-0.4,2.4-1.1,2.9c-1.9,1.5-4,3.1-6.1,0.1
		c-3.9-5.6-10.4-6-16-8.2c-3.6-1.4-6.3-3.9-9-6.4c-1.5-1.4-3-2.6-5.2-2.6c-0.5,0-1.1,0-1.4-0.3c-5.2-4.5-11.9-6.4-17.3-10.5
		c-2.9-2.2-5.6-5.4-10.1-4.3c-0.4,0.1-1.2-0.1-1.4-0.4C383.5,383.2,379.6,381.8,376,380z"/>
	<path class="st30" d="M381.2,386.8c-2-1.5-4-3-6-4.5C378.4,382.3,381.2,382.6,381.2,386.8z"/>
	<path class="st33" d="M374.5,375.5c-0.5,0.3-1,0.6-1.5,0.8c0,0-0.3,0-0.3,0s-0.3,0-0.3,0c0.2-0.8,0.5-1.5,0.7-2.3
		c0.1-0.5,0.4-0.9,0.9-1.2c0.7-0.3,1.3-0.3,2,0.1c0.3,0.2,0.4,0.5,0.4,0.9C376,374.7,375.4,375.3,374.5,375.5z"/>
	<path class="st34" d="M277.7,431.8c0-0.6,0.2-1.1,0.8-1.4c1.5-0.6,2.5,0.1,2.8,1.5c0.5,2.5,1.9,2.3,3.8,1.9
		c3.3-0.7,6.4-1.3,6.1-5.8c-0.1-1.4,1.2-2.1,2.5-2.3c1.4-0.2,2.7-0.3,4.1-0.1c3.2,0.3,5.3-0.5,5.2-4.3c-0.1-2.1,1.4-3,3.4-3.1
		c1.4-0.1,2.7-0.1,4.1,0c2.5,0.2,4.1-0.8,4.8-3.2c2.2-2.1,4.5-1.8,6.8-0.3c0.9,1.8-0.5,2.6-1.5,3.7c-3.6,3.7-7.9,6.8-11.2,10.9
		c-2.7,3.3-6.3,5.6-9.2,8.7c-0.2,0.3-0.5,0.7-0.9,0.7c-6.6,0.6-6.9,6.7-9.6,10.8c-0.4,0.6-0.6,1.6-1.3,1.7c-3.4,0.4-4.5,3.1-6,5.5
		c-1.7,2.7-4.7,4-7,6.1c-1.8-0.7-3.7,0-5.5,0.1c-1.4,0.1-2.2-0.1-3-1.3c-0.3,2.4-1.4,5-0.9,7.2c0.7,2.9-1.8,3.4-2.7,5
		c-0.1,0.2-0.7,0.4-0.8,0.3c-0.8-0.8-1.7-2-1.2-2.9c1-1.9-0.9-2-1.4-3c1.6-4.8,4.1-9.2,6.6-13.6c2.1-1.7,1.9-4.7,3.6-6.7
		c1.1-1.4,1.8-3.2,3.6-3.9c0.3,0.2,0.5,0.4,0.7,0.7c0.2,0.3,0.3,0.7,0.7,0.5c0.1,0,0.1-0.2,0.1-0.3c0-0.5-0.4-0.5-0.7-0.6
		c-0.3-0.1-0.7-0.2-0.9-0.4c-0.7-1.5-0.6-2.6,1.1-3.2c1.5-0.5,2.4-1.5,2-3C276.2,435.3,277.2,433.6,277.7,431.8z"/>
	<path class="st35" d="M276.3,474.5c2.3-0.6,4.1-1.7,3.7-4.6c-0.3-2.1,1.2-3.4,2.3-4.4c3.2-2.9,4.5-7.5,9-9.4c1.6-0.7,2.8-3.3,3-5.6
		c4-2.7,6.2-7,9.3-10.4c2.6-3,4.7-6.4,8.8-7.6c1.4-0.4,2.6-1,3.8,0.1c0.5,0.7,0.6,1.5,0.1,2.1c-1,1.4-2.3,2.4-0.2,4.2
		c0.9,0.7-0.3,2-0.9,3c-2.1,3.6-6.1,5.5-8.3,9c-2.6,4.1-6.9,6.6-9.7,10.6c-0.5,0.7-1.1,1.4-2,1.7c-2,0.7-2.4,2.3-2.3,4.2
		c0.4,3.9-1.9,6.3-4.9,8c-1.8,1-3.3,2.2-4.9,3.3c-1.3,0.9-1.9,2.1-2.1,3.7c-0.6,4.6-0.7,4.6-5.3,5c-0.6,0-1.2,0.1-1.9,0.1
		c-1.2,0-2.3,0-3.4-0.6c-1.1-2.8,1.6-3.9,2.8-5.3C275.1,479.4,276.2,477.2,276.3,474.5z"/>
	<path class="st36" d="M316,432.5c-5.3,0.4-8.7,3.7-11.4,7.8c-2.1,3.3-5.9,5.3-7,9.5c-0.4,1.3-2.2,0.5-3.4,0.7c-1,0.1-2.3-0.4-2.9,1
		c-1.3,3.2-4.5,4.8-6.4,7.4c-2.4,3.2-6,3-9.4,3.6c0.1-2.9,3.2-2.8,4.4-4.6c1-1.6,2.8-2.6,3.3-4.7c0.2-0.8,1-2.1,1.5-2
		c4.4,0.4,5.3-3.8,6-6c1.5-4.6,4.4-6,8.4-7.9c4.1-2,7.1-6.4,10.6-9.8c3.6-3.5,7.1-7,10.8-10.3c0.9-0.8,1.6-1.4,1.5-2.7
		c3.9-1.2,5.5-3.8,5.1-7.9c-0.3-2.9,1.1-4.5,4.2-4.4c1.8,0.1,3.5-0.4,5.2-0.5c1.5,0,3.1-0.1,3.5,1.9c0.1,1.3-0.6,2.2-1.7,2.6
		c-3.2,1.2-4.9,3.7-6.1,6.7c-1.2,3.1-3.3,5.3-6.6,6.1c-1.1,0.3-2.3,0.9-2.4,2.1c-0.2,2.7-2,4.3-4.1,5.4c-2.4,1.2-1.8,3.6-2.7,5.4
		C316.3,432.3,316.1,432.4,316,432.5z"/>
	<path class="st37" d="M270.3,486.5c1.2,0,2.5,0,3.7,0c0.1,0.2,0.2,0.6,0,0.7c-3.9,2-5,6-5.8,9.6c-0.6,2.6-1.8,4.9-2.3,7.4
		c-1.1,6.1-1,6.1-6.8,5.1c-0.6,2-0.4,4.8-4,3.5c-0.5-3.7-1-7.5-0.7-11.2c0.9-1,1-1.8-0.3-2.7c-2.3-1.6-2.3-1.7,0.3-3.3
		c1.2-1.1,1-2.8,1.4-4.1c0.9-2.7,0.9-6,5.4-5.2c1.4,0.2,1.8-1.6,2.1-2.7c0.7-2.7,2.1-3.3,4.5-2.2
		C269.4,482.7,268.8,485.1,270.3,486.5z"/>
	<path class="st38" d="M270.3,486.5c-4-0.3-1.5-3.5-2.3-5.2c0.1-4.7,1.7-6,8.2-6.7c2.7,4.5-1.6,6.5-3.5,9.2
		C272,484.8,271.1,485.6,270.3,486.5z"/>
	<path class="st39" d="M254.5,495.5c-0.4,0.8-2,1.1-1.2,2.3c0.8,1.3,1.6-0.8,2.8,0c-1,1,1,3.1-1.5,3.7c0-1.1,0-2.2-1.5-2.2
		c-1.6,0.2-1.5,1.4-1.5,2.5c0,1.9,0,3.7,0,5.6c0,0.8,0.2,1.9-0.9,2.2c-1.2,0.3-1.2-0.9-1.6-1.6c-0.4-0.8-0.4-2.3-2-1.4
		c-0.9-1.8-1.1-3.6,0.7-5c1.1,0.5,0.3,1.9,1.5,2.6c0.9-1.8,1.3-3.6,0.7-5.6c1.3-2.6,0.5-5.6,1.5-8.2c0-0.8-0.1-1.7,0.7-2.3
		c1.1,0.4,1.9,0.9,1.5,2.2C254.2,492,254.8,493.7,254.5,495.5z"/>
	<path class="st40" d="M251.5,490.3c0.2,2.9,2,6-1.5,8.2C247.8,495.9,248.3,493.2,251.5,490.3z"/>
	<path class="st40" d="M253.8,490.3c-0.5-0.7-1-1.5-1.5-2.2c0.1-0.8,0.5-2.2,1.2-1.7C255.1,487.3,254.9,488.8,253.8,490.3z"/>
	<path class="st41" d="M475.7,521.7c0.7,0,1.5,0,2.2,0c-5.2,1.7-10.3,0.5-15.4-0.2c-1.4-0.2-1.7-1.9-2-2.9
		c-2.4-6.2-7.2-10.6-10.7-16c-2.9-4.6-6.7-8.8-7.9-14.4c-0.3-1.1-1-1.8-2.1-1.7c-3.3,0.3-3.5-2-3.8-4.3c-0.1-0.7,0.1-1.8-0.3-2.2
		c-4.2-3.5-3.9-9.4-7.3-13.3c-1.4-1.5-4.1-1.7-4.3-4.3c-1.6-1.8-4.3-2.9-3.8-6c0.1-0.8,0.4-1.5,1.3-1.8c3.9,2,7.5,4.5,9.4,8.7
		c0.8,1.7,1.4,3.4,2.8,4.8c1.3,1.2,2.8,2.3,2.9,4.2c0.4,6.6,6.1,9.2,9.9,13.3c0.6,0.6,1.8,0.8,1.9,1.7c0.3,4,4.1,5.4,6.1,8.2
		c0.9,2.1,0.5,4.4,1.7,6.5c1.1,1.9,2,3.4,4.6,3.8c2.5,0.3,4.1,2.3,4.6,4.9c0.3,1.7,0.7,3.4,1.3,5c1.7,5,1.7,5,7.1,5.2
		C474.4,520.9,475.1,521.2,475.7,521.7z"/>
	<path class="st42" d="M421,456.5c0,1.4-0.2,2.7,1.7,3.2c1.3,0.3,1.3,1.6,1.3,2.8c0,0.3,0,0.5,0,0.8c-3.4,0.3-5-2.3-6.6-4.5
		c-1.3-1.7-2.7-2.8-4.7-3.2c-1.5-0.9-1.8-2.6-2.6-4c-0.3-4.2-1.8-7.8-4.8-10.8c-1-1.5-1.8-3.1-2.4-4.9c-1.2-3.7-3.3-7-6.6-9.4
		c-1.4-4.1-3.1-8.2-5.2-12c3.2,0,4.5,1.4,5.7,6.1c0.3,1.3,0.9,2,2.3,1.8c0.3,0,0.7,0.1,1,0.3c2.6,4.2,6.1,7.9,6.8,13
		c0.2,1.4,1.7,1.7,2.8,2.3c0.3,0.2,0.5,0.5,0.7,0.8c1.2,4.3,2.5,8.4,6.2,11.5C418.3,451.9,419.3,454.5,421,456.5z"/>
	<path class="st43" d="M454,521.7c-3-2.1-4.1-5.3-5.2-8.5c-0.4-1.4-0.9-2.4-2-3.3c-2.4-2-4.6-4.2-5.1-7.6c-0.1-1-0.9-2.5-1.7-2.7
		c-4.2-1.4-4.2-5.5-4.8-8.5c-0.7-3.9-4.4-5.7-5.3-9.1c3.7,0.1,5.7,1.9,6,5.6c0.1,1.4,0.4,2.6,1.3,3.8c3.1,3.7,4.7,8.7,8,11.8
		c2.8,2.5,2,6.8,6.3,8.7C453.8,512.8,455.4,517.8,454,521.7z"/>
	<path class="st43" d="M412.7,455c2.2-0.3,3.9,0.6,4.9,2.5c1.4,2.7,3.8,4.4,6.4,5.7c0,1.6-0.4,3.6,0.9,4.6c3.9,3.2,3.1,7.1,2.1,11.1
		c-1.6-0.1-3.3-0.1-4.5-1.5c-1.5-1.1-0.9-2.3-0.3-3.6c0.9-1.8,1.4-3.2-1.5-3.9c-2.2-0.5-3.6-2.8-4-5c-0.6-3-1.1-5.8-3.6-7.8
		C412.5,456.6,412.3,455.8,412.7,455z"/>
	<path class="st44" d="M412.7,455c0.6,1.2,1.1,2.4,2.4,3.2c1.4,0.9,1.9,2.3,1.9,4.1c-0.1,4,1.8,6.2,5.4,7c1.2,0.3,2,3.2,0.8,4.5
		c-1,1.2-1.3,2.3-0.8,3.7c-0.3,0.3-0.5,0.5-0.8,0.8c-0.7-1-1.5-2-2.2-3c-2.1-3.5-3-7.5-5-11.1c-1.8-3.2-2.9-6.7-4.5-10
		c-0.1-0.2-1.1,0.1-1.7,0.1c1.5-1.8-0.9-2.9-0.8-4.5c1.5-0.5,2.2,0.6,3,1.5C411.2,452.5,412,453.8,412.7,455z"/>
	<path class="st45" d="M440.5,516.5c-1.7-2.3-4.2-3.9-5.2-6.7c1.4-2.3-1.7-3.3-1.5-5.2c0.2-0.3,0.3-0.7,0.8-0.7
		c1,0.5,2.1,0.8,2.9,1.5c1.5,1.3,4,2.7-0.4,4.8c2.7,0.5,4.9,0.7,4.3,3.5c0.6,0.8,0.6,1.5,0,2.2C441,516,440.7,516.2,440.5,516.5z"/>
	<path class="st46" d="M441.2,515.7c0-0.7,0-1.5,0-2.2c0.2,0,0.5,0,0.7,0c1.4,0,2.8-0.2,3.4,1.5c0.3,0.7,0,1.1-0.5,1.5
		C443.2,517.8,442.4,516.2,441.2,515.7z"/>
	<path class="st12" d="M434.5,503.8c-0.3,0.2-0.5,0.5-0.8,0.7c-0.7-1.2-2-2.2-0.8-3.7C435,501,434.3,502.6,434.5,503.8z"/>
	<path class="st47" d="M316,414.5c0.3,3.3-1,5-4.5,4.5c-0.9-0.1-1.8,0.1-2.6,0c-3.5-0.5-5.6,0.3-4.9,4.5c0.4,2.3-1,3.1-3.2,3
		c-1-0.1-2,0.1-3,0c-3.8-0.4-6.8-0.1-5.8,5c0.1,0.3,0,0.8-0.2,1.1c-0.6,1.4-9.9,3.3-11,2.4c-0.7-0.6-0.6-1.3-0.3-2
		c0.7-1.9-0.6-2.3-2-2.7c2.5-6.3,5.5-12.3,9-18.1c1.1-0.8,2.3-2.1,3.6-1.3c1.5,1,0.3,2.7,0.3,4.4c1.7-1.5,3.5-1,5.4-0.6
		c4.7,0.9,5.6,0.6,7.2-3.9c1.1-3,3.2-3.5,5.9-3.3c2.7,0.2,5.1-0.2,5.3-3.6c0-0.2,0.1-0.5,0.2-0.7c0.7-1.4,9.8-6.3,11.4-5.9
		c2.7,0.7,4.6-0.4,6.4-2.2c4.7-4.8,9.8-8.8,16.7-10c0.9-0.2,0.8-2.1,2.3-1.5c1,1.3,1.2,2.9,1.4,4.4c-0.1,1.4-0.4,2.8-1.4,3.9
		c-0.7,0.3-1.1-0.1-1.4-0.6c-0.5-0.6-0.5-2.4-1.4-1.8c-2.9,1.8-6.3,2-8.7,5.2c-3.1,4.3-6.6,9.2-13.4,7.8c-1.2-0.2-2.5-0.1-3.1,0.7
		c-2.3,3.5-7.1,5.2-7.6,10.1C316.6,414,316.3,414.3,316,414.5z"/>
	<path class="st48" d="M352,383.8c-1,2.2-3.3,2.8-5.1,3.3c-5.4,1.5-9.3,5.1-13.1,8.8c-2,2-4.1,3.7-7.3,2.2c-0.9-0.4-2.2-0.2-3.1,0.7
		c-1.7,1.7-3.2,3.7-6.1,3.5c-1.1-0.1-1.4,1.2-1.3,2.3c0.2,3.2-1.6,3.9-4.5,3.9c-5.9-0.1-6,0-7.5,5.5c-0.4,1.6-1.1,2-2.5,1.9
		c-2.1-0.1-4.3,0.6-6.2-0.6c-1.9-1.2-2.9,1.2-4.4,0.8c-1.1-1.6,0.5-3.1,0.2-4.9c-1.1,0.9-2.3,1-3.5,0.9c0.9-3.8,3.3-6.8,4.5-10.5
		c1.9-3.1,3.3-6.4,4.6-9.7c0.7-0.8,1.5-1.6,1.5-2.8c0.2-0.1,0.5-0.1,0.7-0.1c3.8-0.2,2.9,2.3,2.5,4.5c-1.8,1.9-1.6,4.6-2.5,5.9
		c0.4-0.9,1.4-2.3,3.4-2.8c2.5-0.2,5,0.1,7.5,0.3c3.5,0.3,6.2-1,8.9-3.1c4.5-3.6,9.7-5.8,15.6-5.9c2.3,0,4.2-0.4,5.2-2.7
		c0.2-0.5,0.5-1,1-1.1c3.4-0.8,6.5-2.4,10-2.8c0.6-0.1,1.2,0.2,1.7,0.7C352.4,382.7,352.4,383.2,352,383.8z"/>
	<path class="st49" d="M277.7,431.8c0.3,2-0.8,4,0.2,6.1c0.5,1.1-0.3,3.5-2.4,3.4c-2.5-0.1-1.2,1.6-1.5,2.4h0
		c-3.2,2.9-4.3,7.4-7.4,10.5C269.8,446.5,273.6,439,277.7,431.8z"/>
	<path class="st50" d="M352.7,305c5.8,0,11.5,0,17.3,0.1c-0.3,1.8-1.7,1.4-3,1.4c1.1,1.3,1.1,2.9,1.1,4.5
		c-0.3,16.9,1.3,33.8,0.7,50.7c-0.1,1.7,0.4,3.5-1.1,4.9c-3-0.2-3.4-2.8-3.7-4.8c-0.5-3-1.1-6.1-1-9.2c0.1-6.2-2-11.9-4-17.7
		c-0.4-1.2-1.2-2.3-1.1-3.5c0.9-5.6-1.2-11.1-0.9-16.6c0.2-4.1-0.3-7.3-5-8.1C351.6,305.7,352.3,305.4,352.7,305z"/>
	<path class="st51" d="M367,366.5c1.2-1.1,0.7-2.6,0.7-3.9c0-8.1,0.5-16.2-0.1-24.3c-0.7-9.7-0.5-19.4-0.6-29.1
		c0-1.7-0.1-3.1-3.2-2.6c2.6-1.5,4.7,0,6.2-1.6c1.7,0,3.5,0,5.2,0c-1.8,6.4-0.5,13.1-1.3,19.5c-0.9,7.6-1.3,15.3-2.5,22.8
		c-0.9,5.6-1.4,11.3-1.2,17c-0.3,2.1-0.7,4.2-2.2,5.8C365.6,369.7,365.4,369.2,367,366.5z"/>
	<path class="st52" d="M367.7,370.3c0.5-1.8,1-3.5,1.5-5.3c0.7-4.4,0.9-8.8,1.4-13.2c1.3-11.4,3.2-22.5,7.6-33.1
		c1.5-3.7,1.4-7.2,0.9-10.9c-0.1-0.9-0.9-1.9-0.1-2.8c2.3,0,4.5,0.1,6.8,0.1c1.3,0.6,0.6,1.6,0.6,2.6c0.2,9.6-4.4,18-7,26.8
		c-0.1,0.2-0.2,0.5-0.3,0.7c-1.6,8.7-5.4,16.8-6.7,25.6c-0.3,3.5-2.4,6.6-2.6,10.1c0,0.6-0.1,1.1-0.4,1.6c-0.3,0.3-0.6,0.3-0.9,0
		c-0.7-0.1-1.5-0.2-2.2-0.3c-0.2-0.3-0.2-0.6-0.1-0.9C366.6,370.8,367.2,370.6,367.7,370.3z"/>
	<path class="st53" d="M379,305c2.1,4.7,1.9,9.1,0.2,14c-1.7,4.9-3.5,9.9-4.8,15c-2,7.5-1.5,15.3-4.1,22.6c-0.9,2.6,0.7,5.7-0.9,8.3
		c-0.4-7.8,1.2-15.5,1.8-23.3c0.8-10,2.8-19.9,1.9-30c-0.2-2.7,0.4-4.9,2.3-6.8C376.5,305.1,377.7,305,379,305z"/>
	<path class="st54" d="M371.5,361.3c1-4.5,0.5-9.3,3.5-13.4c1.2-1.6,0.9-3.8,1.2-5.8c0.8-5.6,3.7-10.6,4.9-16.1
		c1.3-5.7,5.4-10.9,3.8-17.2c-0.4-1.5,1.6-2.3,0.8-3.7c0.5-0.1,1-0.1,1.5-0.2c1.6,0.3,3.1,0.7,4.5,1.6c0.5,0.5,1.2,0.8,1,1.6
		c-0.2,0.7-0.4,1.5-0.7,2.1c-1.4,2.5-1.4,2.8-0.7,5c-4.4,4.7-3.5,11.9-7.8,16.6c-1.2,2.4-1.9,4.8-2,7.5c-0.1,1.1-0.2,2.3-1,3.1
		c-2.7,2.9-3.4,6.5-3.6,10.2c0,0.4-0.1,0.8-0.2,1.1C375.4,356.6,374.3,359.5,371.5,361.3z"/>
	<path class="st55" d="M327.7,330.5c0.4-1.3,0.6-2.7,1.6-3.8c1.2-0.4,1-2.4,2.6-2.5c2.9,0.6,4.9,2.9,7.5,4c0.7,0.3,1,1,1.3,1.7
		c2.6,6.5,6.6,12.1,10.8,17.8c2.9,3.9,5.3,8.3,7.7,12.6c1.4,2.6,2.3,5.4,4.5,7.5c0.6,0.6,0.9,1.5,0.5,2.4c-0.9,0.8-1.7,0.3-2.6,0
		c-0.5-0.2-0.9-0.6-1.2-1.1c-0.9-1.9-2.5-3.4-3.3-5.4c-0.6-1.7-2-2.9-3.3-3.9c-1.6-1.2-2.7-2.5-3.2-4.5c-0.3-1.4-1.2-2.4-2.2-3.4
		c-3.9-3.8-6.8-8.4-9.8-13c-2.3-3.6-6.3-5.9-9.5-8.8C329.1,330.1,328.4,331,327.7,330.5z"/>
	<path class="st56" d="M327.7,330.5c0.9,0,1.2-1.3,2.6-0.5c3.4,2.1,6.4,4.9,8.8,7.7c1.7,2,3.4,4.6,4.8,7.1c1.2,2.1,2.5,4,4.4,5.5
		c1.9,1.5,3.3,3.2,3.7,5.7c0.2,1.2,1.1,1.8,1.9,2.5c1.7,1.4,3.7,2.5,4.2,5c-0.9,0.5-1.5-0.2-2.1-0.6c-0.2-0.2-0.5-0.4-0.7-0.6
		c-0.8-0.8-2-0.9-2.9-1.4c-0.9-0.6-1.3-1.5-1.8-2.4c-7-9.7-14.8-18.6-23.8-26.5C326.6,331.3,327.2,330.9,327.7,330.5z"/>
	<path class="st57" d="M326.6,332c4.1,1.2,6.8,4.5,9.4,7.5c2.6,2.9,5,6,7.8,8.7c3.1,2.9,4.9,6.7,7.4,10c-1.7,1-3,0-3.8-1.2
		c-5.1-7.9-13.7-12-19.6-18.9c-0.8-0.9-1.1-0.7-1.9-0.1c-0.7,0.5-1.7,0.8-1.7-0.7c0.5-1.5,1.1-2.9,1.6-4.4
		C326.1,332.7,326.3,332.4,326.6,332z"/>
	<path class="st58" d="M352.7,305c-0.2,0.3-0.5,0.6-0.7,0.9c-0.6,1.4-2,1.5-3.2,1.7c-3.6,1.5-6.7,3.7-9.7,6.1
		c-0.7,0.9-1.1,2.1-1.7,3c-1,1.4-1.5,3-2.3,4.5c-0.6,1.2-1.3,2.8-3.2,1.5c-0.1-0.2-0.1-0.3-0.2-0.5c2.6-6.2,5.7-12,12.2-15.2
		C346.7,305.6,349.5,304.7,352.7,305z"/>
	<path class="st58" d="M331.8,324.5c-1,0.6-1,2.2-2.5,2.2c0.8-1.5,1.6-3,2.3-4.5c0,0,0.2,0.3,0.2,0.3
		C332.3,323.1,332.4,323.9,331.8,324.5z"/>
	<path class="st59" d="M408.1,326.1c1.1,2.5,2.1,4.9,3.2,7.4c-1.1,2.2-2.3,1.6-3.5,0c-0.3-0.4,0.4-1.3-0.5-1.1c-0.3,0-0.5,1-0.7,1.6
		c-0.7,1.8-1.9,3-3.9,3.6c-2.9,1-4.5,3.9-6.4,6c-2.5,2.8-4.6,5.8-7.8,7.9c-0.6,0.4-0.9,1.2-1.2,1.9c-0.2,0.3-0.4,0.6-0.6,0.9
		c-0.8,0.6-1.6,1-2.5,0.3c-0.9-1.9-0.1-3.4,1-4.8c4.8-6,8.9-12.5,13.9-18.3c2.3-2.6,3.4-0.9,4.8,1.4c0.3-2.5-0.5-4.8,2.1-5.7
		c0.5-0.4,1-0.9,1.6-1.1C407.7,326.1,407.9,326.1,408.1,326.1z"/>
	<path class="st60" d="M407.5,326c0,0.6-0.1,1.2-0.8,1.5c-1.8,0.3-2.3-1.1-3-2.2c-1.6-2.7-2.5-2.8-4.3-0.2c-2,2.8-3.1,5.9-4.4,9
		c-1.2,3-3.5,5.1-5.2,7.7c-0.5,0.7-1.2,1.3-2.2,0.6c-0.3-0.5-0.5-1-0.6-1.6c-0.4-3.5,0-6.6,3.4-8.7c1.5-0.9,1.7-3,2.2-4.6
		c0.9-3.3,2.8-6.1,3.9-9.2c0.8-2.1,2.4-2.7,4.5-1.9c1.1,0.4,1.7,1.5,2.6,2.1C405.4,320.8,406.7,323.3,407.5,326z"/>
	<path class="st61" d="M403.8,318.5c-1.1,0.1-1.9-0.5-2.3-1.5c-1.7-1.3-3.1-3.6-5.8-1.2c-0.6,0.5-1.6-0.3-2.2-1
		c-0.9-1.2-0.3-2.1,0.8-2.8c1.1-0.6,0.7-1.2,0-1.9c-0.7-0.6-1.6-1-1.8-2.1c-0.3-0.5-0.5-1-0.8-1.6
		C397.7,308.5,401.3,313,403.8,318.5z"/>
	<path class="st62" d="M406,333.6c0.3-1,0.7-2,1.1-3.1c2.7-0.9,0.2,5.7,4.2,3c3.3,5.6,6.1,11.4,8.7,17.4c-0.3,1.8-1.1,2-2.3,0.7
		c-0.9-1-1.4-2.2-1.8-3.5c-0.2-0.5-0.3-1-0.5-1.5c-1.3-1.8-2.7-3.6-3-5.9c-0.8-1.5-2.4-2.1-3.6-3.5c1.2,4-0.6,6-4,7.6
		c-3.4,1.6-5.5,5-8.2,7.6c-2.8,2.6-5.3,5.3-9.3,6.4c-2.6,0.7-3.9,3.6-5.5,5.8c-0.8,1.2-1.4,2.8-3.4,2.1c-0.9-1.9,0.3-3.3,1.3-4.7
		c2.2-2.8,4.2-5.8,6.8-8.3l0,0c5.9-3.6,10.2-9,14.8-13.9C403.1,338,405.9,336.7,406,333.6z"/>
	<path class="st63" d="M416.5,347.8c0.6,1.1,1.1,2.2,1.7,3.3c0.8,1.5,1.3,0.2,1.9-0.3c0.5,1,1,2,1.4,3c-0.1,0.4-0.2,0.7-0.4,1
		c-0.5,0.1-2.8,1.6-3.2,2.2c-0.5,0.7-1.3,1.2-2.2,1.4c-6.3,1-12.2,3.4-17.9,6.1c-3.9,1.9-8.1,3.2-12.1,5c-3.6,1.2-6.8,4.3-11.1,2.4
		c-0.4-2,1.2-2.6,2.5-3c2.1-0.7,4.1-1.8,6.3-2.5c3.9-0.7,6.6-3.8,10.2-5.2c5.4-2.2,10.3-5.5,16.1-6.6c2.6-0.5,3.5-2.4,3.8-4.8
		C413.7,348.7,413.5,345.7,416.5,347.8z"/>
	<path class="st64" d="M420.9,354.6c0.2-0.2,0.4-0.5,0.5-0.7c2.3,4,4.6,8.1,6.9,12.1c0.2,0.9,0.5,1.9,0.7,2.8
		c-0.2,0.2-0.5,0.4-0.9,0.4c-0.3-0.1-0.6-0.2-0.9-0.5c-0.2-0.3-0.4-0.6-0.5-0.9c-0.5-1.2-1.3-2.3-1.9-3.5c-0.8-1.4-1.3-3-2.5-4.2
		c-1.1-0.9-2.2-1.9-2.2-3.5C420.2,355.9,420.5,355.2,420.9,354.6z"/>
	<path class="st65" d="M307.8,493.2c0.5,1,1.1-1,1.6,0.1c-1.2,4.6-4.3,8.3-5.9,12.6c-1.1,3.4-2.8,6.6-5.4,9.2
		c0.2-0.8,0.5-1.6,0.7-2.5c-0.4-0.6-0.1-1.2,0.1-1.9c0.2-0.6,0.5-1.2,0.6-1.8c0.5-1.4,0.9-2.9,1.8-4.1c1.7-1.8,2.1-4.2,3-6.3
		c1.1-1.2,0.5-2.9,1.4-4.2C306.2,493.6,306.6,492.8,307.8,493.2z"/>
	<path class="st66" d="M255.3,512.7c3-0.9,3-0.9,1.8-3.5c-0.3-0.6,0.2-1.6,0.4-1.4c1.3,1.9,3.3-1.1,5,1.1c1.2,1.5,2.3-1.1,2.5-2.6
		c0.2-2.3-0.7-4.8,2.3-6.1c0.5-0.2,0.5-0.9,0-1.3c-1.8-1.4-0.4-2.3,0.4-3.2c0.3-0.4,0.9-0.9,0.9-1.1c-1.7-5.1,3.1-5.7,5.4-8.1
		c1.1-0.1,2.2-0.3,3.3-0.2c2.1,0.3,2.9-0.9,2.6-2.6c-1-5.6,3.8-6.9,6.9-9c3-2.1,5.6-3.7,5.2-7.8c-0.2-2.1,0.4-3.3,2.6-5
		c3.1-2.3,6.6-5.1,8.7-8.5c1.9-3,4.3-5.4,6.8-7.7c1.7-1.6,3.1-3.4,4.7-5c1.2-1.2,1.5-2.1-0.7-2.3c-3.1-0.3-1.3-1.7-0.3-2.5
		c1.3-0.9,2.5-1.7,2.2-3.5h0c2.6-4.1,6.4-6,11.2-6.3c0.3,0.3,0.5,0.6,0.6,1c0.1,0.6,0,1.1-0.2,1.7c-1.5,3.3-3.9,6.2-3.7,10
		c0,1.3-0.5,2.3-1.5,2.8c-1.9,0.9-3.1,2.6-4.1,4.2c-2.1,3.4-4.9,5.9-7.8,8.4c-2.8,2.5-4.9,5.3-5.8,9.3c-0.7,3.3-2.9,6.4-5.4,8.7
		c-1.5,1.4-2.8,2.8-3.6,4.6c-1.9,4.3-4.7,7.9-8.7,10.4c-4.2,2.6-6.6,6.7-9.2,10.6c-1.6,2.5-3.3,5-5,7.5c-1.1,1.6-2,3.2-1.7,5.2
		c0.3,2.5-1.9,4-2.8,6c-2.9,1.1-5.4,4.1-9.1,2.2c-3.1,0.5-5.9,0.3-7.5-3c-0.1-1.6,0.3-2.9,2.3-3c0.2,0.4,0.3,1.1,0.6,1.2
		C255.1,514,254.9,513.1,255.3,512.7L255.3,512.7z"/>
	<path class="st67" d="M292.8,518c-1.1,0.7-2.5-0.4-3.7,1c-2.8,3.3-6.7,3.7-10.7,3.6c-3-0.1-5.9,0-8.9,0c-0.2-0.3-0.2-0.6,0-1
		c1.6-1,3.6-0.8,5.2-1.8c1.4-0.9,3.1-1.4,2.7-3.8c-0.3-1.5,0.9-2.6,2.6-2.4c1.2,0.1,2.2-0.2,3.4-0.8c-1.6-0.2-3.4,0.5-4-1.6
		c-0.5-1.6,0.4-2.6,1.6-3.7c2.6-2.3,4.1-6,8.1-6.7c-2.7-3.4-2.4-5,1.3-10c2.7-3.7,6.7-5.3,10.1-4.1c0.9,3.3-1.1,5.9-3.4,7.3
		c-5.3,3.2-3.8,8.8-5.2,13.3c-0.5,1.7,1.9,2.4,2.6,3.8c-0.4,2.4-0.4,2.4-3.6,3.6C290.9,516,293.3,516.3,292.8,518z"/>
	<path class="st68" d="M269.5,521.7c0,0.2,0,0.5,0,0.7c-3.8-0.3-8.2,0.9-10.5-3.7c3.3,0.5,5.7-2.6,9-2.3c0.1,0.1,0.2,0.2,0.4,0.3
		C269.1,518.4,268.9,520.2,269.5,521.7z"/>
	<path class="st69" d="M292.8,518c-1.4-1.2-2.8-2.4-4.3-3.8c1.6-1.6,4.9,0,5.8-3c1.7-2.2,3.5-2.3,5.2,0c-0.2,0.5-0.5,1-0.7,1.5
		C295.2,512.7,295,516.5,292.8,518z"/>
	<path class="st70" d="M363.5,376.3c-3.8,8-7.6,15.9-11.2,24c-0.7,1.6-1.3,3.2-2.4,4.6c-0.3,0.2-0.7,0.3-1,0c-0.6-2.7,2-4.6,1.7-7.2
		c0.5-1.5,1.5-2.8,2.2-4.2c0.3-0.6,0.5-1.3,0.8-1.9c1-3.8,4-6.6,4.9-10.5c0.4-1.8,1-3.6,2.4-5c0.8-0.4,1.5-0.4,2.1,0.3
		C363.1,376.3,363.3,376.3,363.5,376.3z"/>
	<path class="st71" d="M345.4,414.6c-0.3,0-0.6,0-0.9-0.1c-1.2-2.6,1-4.3,1.6-6.5c0.2-0.5,0.5-0.9,0.8-1.4c0.6-0.7,0.6-2.1,2.1-1.9
		c0.3,0,0.6,0,0.9,0C348.6,408.2,347.4,411.6,345.4,414.6z"/>
	<path class="st72" d="M363.9,374.1c0,0.6-0.1,1.2-0.7,1.5c-2.7,0.8-3-2-4.4-3c-3-1.6-5-4.5-8.4-5.5c-0.2-0.1-0.5-0.1-0.7-0.3
		c-2.9-3.8-7.9-4.5-11.4-7.5c-0.5-0.4-1.1-0.6-1.7-0.8c-2.7-0.5-4.5-1.8-5.3-4.6c-0.6-2.2-2-2.6-4-1.3c-1.2,0.8-2,3.1-4,1.9
		c-2.1-1.4-0.8-3.5-0.3-5.8c-2,3.9-5.4,6.1-7.1,9.6c-0.9-0.6-0.7-1.5-0.8-2.3c0.1-0.5,0.1-0.9,0.2-1.4c1.7-3,3.3-6.1,5-9.1
		c0.3-0.2,0.6-0.4,0.9-0.5c1.2-0.2,2.4-0.6,3.6-1.1c1-0.4,2.1-0.7,2.8,0.2c2,2.3,4.8,3.5,6.9,5.6c3.2,3.2,6.5,6.1,10.8,8.1
		c4,1.9,7.3,5.2,10.6,8.1c1.1,1,2.1,2.1,3.4,2.9c0.4,0.3,0.8,0.6,1.2,1c1.1,0.6,1,2.5,2.7,2.5C363.8,372.8,364,373.4,363.9,374.1z"
		/>
	<path class="st73" d="M321.3,345.5c-0.3,0-0.6,0-0.9-0.1c1.1-2.8,2.3-5.6,3.9-8.2c5.8-1.3,7.4,4.6,11.2,6.7
		c0.2,0.1,0.2,0.5,0.4,0.6c5.5,3.3,9.5,8,13.3,12.9c0.4,0.5,1.3,0.5,2,0.8c0.5,0.7,1,1.5,1.5,2.2c0.9,0.8,2.1,0.7,3,1.5l0,0
		c1.7,2.3,3.4,4.6,5.2,6.7c0.3,0.3,0.5,0.5,0.8,0.8c0.2,0.3,0.2,0.6,0,0.9c-0.5,0.3-1,0.2-1.5-0.2c-0.3-0.2-0.5-0.5-0.8-0.7
		c-4.4-4.9-10-8.5-14.5-13.2c-1.9-2-4.2-3.5-6.4-5c-3.8-2.6-7.5-5.4-10.7-8.6c-1.3-1.3-2.2-1.4-3,0.3
		C324.1,344.5,322.6,344.9,321.3,345.5z"/>
	<path class="st74" d="M436.7,383c0.5,1.5,1,3,1.5,4.5c-1.3,2,0.2,4.4-0.6,6.9c-2.4-2.2-4.6-3.9-7.6-4.7c-1.1-0.3-2-0.8-3.1-0.3
		c-0.9,0.4-1.7,0.4-2.4-0.3c-2.7-2.7-6-2.5-9.4-2.1c-1,0.1-2,0.2-2.9-0.2c-7.5-3-15.5-3.7-23.3-5.4c-2.4-0.6-4.8-1.8-7.2-2.7
		c-2-0.7-3.8-0.9-5.8-0.9c0.9-2.6,3.1-1.4,4.8-1.7c0.4,0,0.8,0.1,1.2,0.2c6.4,2,13.1,0.9,19.6,1.9c0.8,0.1,1.9-0.3,2.6,0.2
		c3.6,2.5,7.6,2.5,11.7,2.7c2.9,0.1,5.7,1.1,8.8,0.1c1.8-0.6,3.5,0.1,3.4,2.6c-0.1,1.2,0,2.3,1.5,2.5c1.6,0.2,2.6-0.5,2.8-2.2
		c0-0.7,0.1-1.4,0.3-2c1.3-1.6,2.3,0,3.5,0.3C436.2,382.5,436.5,382.8,436.7,383z"/>
	<path class="st75" d="M428.5,368.8c0.2,0,0.4,0,0.6,0c0.7,1.1,1.7,2.1,1.7,3.5c1.3,3.1-0.6,4.7-2.8,6.1c-1.5,0.7-2.8,0.7-3.2-1.3
		c-0.2-0.7-0.6-1-1.4-0.9c-10.1,1-20.1-0.2-30.2,0.3c-5.7,0.3-11.4-0.3-17.1-0.3c-0.7,0-1.2-0.3-1.7-0.7c0,0,0-0.1,0-0.1
		c0.5-0.5,1-1,1.5-1.5c0.2,0,0.4-0.1,0.6-0.1c7.8-0.3,15.5-2.2,23.4-2.4c8.4,1.3,16.7,0.2,25-0.9
		C426.3,370.5,427.6,370.1,428.5,368.8z"/>
	<path class="st76" d="M427.7,377.8c1.8-1.4,3.2-3,3.1-5.5c2.1,2.2,2.7,5,3.8,7.7c-0.4,0.6-0.8,1.3-1.6,1.5c0,0.7,0,1.5,0,2.2
		C430.8,382.1,429.9,379.4,427.7,377.8z"/>
	<path class="st77" d="M433,381.5c0.3-0.8,0.8-1.3,1.6-1.5c0.5,0.7,1.5,1.2,1.3,2.3C434.6,383.3,433.9,381.9,433,381.5z"/>
	<path class="st78" d="M396.2,421.3c-1.2-2.6-1.7-5.9-5.2-6.8c0.9-1.1,0-1.6-0.6-2.5c-2.2-3.3-4.2-6.8-6.2-10.2
		c-1.3-1.3-0.4-3.2-1.5-4.6c1.7,1.3,3.6,2.4,4.5,4.5c3.6,4,6.1,8.8,9.7,12.7c1.2,2.4,0.4,5.6,3,7.5c0,0.5-0.5,0.6-0.7,0.8l0,0
		C397.5,423.7,397,422.2,396.2,421.3z"/>
	<path class="st79" d="M334.7,434.8c-1,1.4-0.2,3.7-2.2,4.5c-2.1,0.8-3.2,2.3-3.5,4.4c0,0.5-0.1,1,0.6,1.2c0.3,0.1,0.5,0.2,0.7,0.4
		c-0.5,2.4-2.6,4.2-2.2,6.9c-0.2,0.5-0.4,1-0.7,1.5c-0.5-1-1.4-0.9-2.3-0.9c0-1.4-1.3-1.7-1.9-2.5c-0.7-3.1,2.4-5.1,2.4-8
		c0.1-0.7,0.2-1.4,0.4-2.1c0.4-1.5,1.8-2.5,2.5-3.8c0.3-1,0.2-2,0.7-2.9C330.9,434.2,333.1,433.4,334.7,434.8z"/>
	<path class="st80" d="M361,376.3c-0.1,1.9-1.7,3.3-1.5,5.2c-0.5,0.2-1,0-1.4-0.3c-1.6-1.1-3.1-2.1-4.9-0.4
		c-5.2-1.4-9.3,1.3-13.5,3.7c-0.7,0.4-1.3,0.9-2,0.8c-5.5-0.5-10.7,2-16.2,1.7c-1.9-0.1-3.7,0.1-4.5,2.4c-0.9,2.4-3.2,2.2-5.1,2.1
		c-3.5-0.2-6.7,0.3-9.3,2.9c-0.7,0.1-1.1-0.3-1.4-0.9c0-1.8,0.3-3.7-2.2-4.3c0-1.9,1.1-3.3,2.2-4.7c3.2-1.8,3.2-5.7,5.3-8.2
		c2.4,0.3,0.3,2.7,1.9,3.7c4-4,9.3-2.5,14.1-2.4c9.8,0.3,19.6-0.2,29.2-2c2.8-0.5,5.6,1.5,8.3-0.3
		C360.5,375.3,360.8,375.7,361,376.3z"/>
	<path class="st81" d="M360.2,375.5c-1.9,1.2-3.3,2.7-6.1,1c-1.7-1.1-4.6,0.2-6.7,0.7c-7.2,1.8-14.5,1.3-21.8,1.5
		c-4.5,0.1-9.1-0.2-13.7,0c-0.9,0.1-1.8-0.1-1.9,1c-0.2,1.7-1.4,2-2.7,1.6c-1.7-0.5-1.1-2-0.9-3.1c0.1-0.7,0.6-1.4-0.2-2
		c0.8-2.1,1.5-4.2,3-6c1.4,0.5,2.7,2.5,4.2-0.1c0.5-0.8,1.9-0.7,2.7-0.1c2.3,1.7,4.9,1.6,7.5,1.4c6-0.4,11.7,2.4,17.7,1.5
		c5.3-0.8,10.7,0.6,15.9-1.2C359.1,372.6,360.9,373.1,360.2,375.5z"/>
	<path class="st82" d="M357.2,372.5c-4.4,2.9-9.4,0.7-14.1,1.4c-8.2,1.3-16.3-2.4-24.5-1.4c-0.5,0.1-1.2-0.1-1.4-0.4
		c-2.4-3.2-3.8-1.6-4.9,1c-0.2,0.5-0.5,1.3-1.3,1.1c-1-0.2-0.9-1-0.7-1.8c0.2-0.9-0.3-1.7-1-2.2c1.6-3.7,3.9-7.1,6-10.5
		c0.8-0.2,1.1,0.4,1.4,0.9c0.9,5.3,0.9,5.4,6.4,5.5c2,0.1,4,0.3,5.7,1.3c0.6,0.4,1.4,0.8,2.1,0.7c5.5-0.4,10.7,2.2,16.2,1.7
		c3-0.3,5.7,1.8,8.8,1c0.4,0.1,0.8,0.2,1.2,0.4C357.4,371.7,357.5,372.1,357.2,372.5z"/>
	<path class="st83" d="M316,358.3c0.5-3,1.6-5.6,4.7-6.9c1.3-0.5,0.5-1.7,0.8-2.6c0.4-1.1,1.1-2.2,2.4-1.6c1.6,0.7,0.1,1.5-0.1,2.3
		c-0.3,0.8-0.6,1.6-0.8,2.5c-0.2,0.8,0.2,1.5,0.8,2c1,0.7,1.2-0.4,1.6-0.9c4.2-4,5.3-3.7,7.1,1.6c0.1,0.3,0.2,0.8,0.4,1
		c3.2,1.8,6.3,4.2,9.7,5.2c2.1,0.6,3.9,1,4.8,3c0.6,1.5,2.3,1.4,3,2.6c-0.5,0.6-1.2,0.7-1.9,0.6c-0.3-0.1-0.7-0.2-1-0.4
		c-1.5-1-2.7-2.4-4.9-1.6c-1.4,0.5-2.4-0.9-3.5-1.7c-5.4-2.5-11-4.1-17.1-3.8c-2.1,0.1-4.2,0.9-6.1-0.7
		C316,358.8,316,358.5,316,358.3z"/>
	<path class="st84" d="M316,359c6.7-0.9,13.3,0.2,19.9,1.5c1.7,0.3,2.5,1.9,4.1,2.3c-0.4,1.3,1.7,3-0.7,3.9
		c-5.8-2.8-12.1-3-18.3-3.6c-2.1-0.2-4.3,0.2-5.1-2.6c-0.2-0.3-0.5-0.5-0.7-0.8C315.5,359.5,315.8,359.3,316,359z"/>
	<path class="st85" d="M255.3,512.8c0.3,0.9,1.2,1.7,0.2,2.6c-0.6,0.5-1.4,0.5-2,0c-1-0.9-0.1-1.8,0.2-2.6
		C254.3,512.8,254.8,512.8,255.3,512.8z"/>
	<path class="st86" d="M410.5,451.3c-1.3,0.1-2-1.1-3-1.5c0,0,0,0,0,0c-0.3-2.9-1.4-5.5-2.2-8.2c0-0.3,0-0.5,0-0.8
		c0.9-0.5,1.6-0.5,2.2,0.4c1.7,2.4,1.2,5.9,4.2,7.7C412.3,449.2,410.7,450.3,410.5,451.3z"/>
	<path class="st44" d="M405.2,441.5c2.4,2.3,2.4,5.3,2.2,8.2c-1-2.5-2-5-3-7.5C404.7,442,405,441.8,405.2,441.5z"/>
	<path class="st87" d="M330.2,445.3c-0.2,0-0.5,0-0.7,0c-0.9-0.1-1-1-1.5-1.5c1.2-1.8,0.2-5.8,4.5-4.5c-0.2,1.3-0.4,2.7-0.6,4
		c0,0.1,0,0.3-0.1,0.4C331.3,444.2,330.8,444.8,330.2,445.3z"/>
	<path class="st88" d="M386.5,353.8c-1,3.1-3.5,5.3-5.3,7.8c-1.2,1.6-2.2,3.2-2.9,5c-1.7,1-3.2,2.1-3.9,3.9
		c-1.1,1.3-2.3,2.4-3.5,3.5c-0.3,0.1-0.6,0.1-0.9,0.2c-0.5-0.6-0.9-1.1-1.4-1.7c0.2,0,0.4-0.1,0.7-0.1c1.1-1.7,2-3.5,3.4-5
		c3-4.2,7-7.6,9.9-12c0.4-0.6,0.9-1.2,1.8-0.9C385,354.3,385.7,354,386.5,353.8z"/>
	<path class="st89" d="M364,370.3c-1.5-3.4-4.9-5.8-5.2-9.7c-0.5-0.6-0.6-1.2-0.4-1.9c1.6-1.2,1.9,0.6,2.7,1.1
		c0.2,0.2,0.5,0.5,0.7,0.7c0.7,0.8,1.4,1.4,1.9,2.3c0.2,0.5,0.3,0.9,0.4,1.4c0,1.2,0.5,2.1,1.5,2.9c0.4,1.5,1.1,3,0.8,4.6
		c0,0.2,0,0.3,0,0.5c-0.5,0.2-1,0.3-1.5,0.5C363.7,372.2,363.2,371.5,364,370.3z"/>
	<path class="st90" d="M357.2,372.5c0-0.2,0-0.5,0-0.7c0.7-0.6,1.5-0.5,2.2,0c1.2,1.3,1.8,3.2,3.7,3.8c-0.1,0.3-0.2,0.5-0.3,0.8
		c-0.7,0-1.3,0-2,0c-0.2-0.3-0.5-0.5-0.7-0.8C359.8,373.9,358.8,373,357.2,372.5z"/>
	<path class="st57" d="M364,370.3c0.3,0.8,0.5,1.6,0.8,2.4c-0.3,0.4-0.6,0.9-0.9,1.3c-0.2-0.5-0.5-1-0.7-1.5
		c-0.5-0.8-1.9-0.9-1.5-2.3c0-0.2,0-0.5,0-0.7C362.5,369.8,363.2,370,364,370.3z"/>
	<path class="st91" d="M370.8,374c0.1-1.9,1.6-2.8,3-3.7c1.6-1.3,3-2.9,5.3-3.3c1.5-0.3,2.3-1.7,3.1-3c1.6-2.7,3.6-5.1,7.2-5.2
		c0.6,0,1.4-0.1,1.7-0.6c2.6-4.2,8.1-4.7,11-8.6c0.8-1,1.8-1.6,3.1-2c2.7-0.8,4.5-2.4,5.2-5.3c0.3-1.4,1-3,3.1-2
		c-0.4,2.7,1.4,4.3,3,6c-0.3,0.3-0.8,0.3-1,0.5c-4,5.6-10.6,7.1-15.9,10.7c-5.2,3.5-11.1,6-16.1,9.8c-2.8,2-6.6,1.9-9,4.5
		c0.1,0.7-0.3,1.1-0.7,1.5c-0.3,0.3-0.5,0.5-0.8,0.8C372.3,374,371.5,374,370.8,374z"/>
	<path class="st92" d="M475.7,521.7c-0.7,0-1.5,0-2.2,0c-1-1-0.9-2.2-0.9-4.1c-1.2,2.6-2.6,2.1-3.7,0.6c-1.2-1.7-2.1-3.6-2.4-5.8
		c-0.4-3.2-1.6-5.9-4.7-7.5c-2.2-1.2-3.9-3-4.4-5.7c-0.4-2.2-1.6-3.9-3.6-5c-4.2-3.9-6.7-9.3-11.4-13c-4.1-3.2-6.1-8.3-7.3-13.4
		c0.1-0.6,0.3-1.1,0.8-1.5c3,2.4,6.1,4.6,7.8,8.5c1.2,2.8,3.5,5.3,6.1,7.2c3.9,2.9,6.2,7.2,9.8,10.5c3.5,3.2,4.9,8.4,8.4,11.8
		c1.6,1.6,4.8,2,4.1,5.3C479.6,511.9,473.7,518,475.7,521.7z"/>
	<path class="st93" d="M436,466.3c0,0.5,0,1,0,1.5c-1.2,0.5-2.2,0.1-3.1-0.5c-2.1-4.5-4.4-8.6-8.7-11.8c-3.7-2.7-5.2-7.7-7.7-11.8
		c-1.1-1.9-2.1-3.7-4.5-4.1c-1.4-0.2-1.7-1.6-2.4-2.7c-1.7-2.8-2.8-5.8-4-8.9c-0.1-0.6,0-1.1,0.4-1.5c1.5-0.1,2.6,0.3,3,2
		c1,4.2,4.1,7.2,7.3,9.7c3.4,2.6,5.7,6.1,7.4,9.7c1.9,3.9,5.4,6.4,7.4,10C432.7,460.7,436.3,462.4,436,466.3z"/>
	<path class="st94" d="M406,426.5c0,0.5,0,1,0,1.5c0.5,3.8,3.3,6.7,3.7,10.5c-2.6-0.2-4.3-0.9-4.1-4.3c0.2-2.7-2.2-4.9-3.6-7
		c-0.9-1.4-1.8-3-2.8-4.5c0.2-0.3,0.5-0.5,0.7-0.8C402.8,422.4,403.2,426.1,406,426.5z"/>
	<path class="st95" d="M397,414.5c-3.1,0.9-3.1-1.7-3.9-3.4c-1.3-2.5-2.5-5.1-5.2-6.4c-1.5-0.7-0.6-1.9-0.6-2.9
		C391.7,405.1,395.8,408.7,397,414.5z"/>
	<path class="st77" d="M374.5,375.6c0.5,0,1,0,1.5,0c1.2,0.8,2.6,0.2,3.9,0.4c0.7,0.1,1.5,0,1.4,1.1c-1.7,0.3-3.7-0.7-5.2,0.8
		C374.5,377.7,374.5,376.6,374.5,375.6z"/>
	<path class="st74" d="M439.9,390.5c0.4,0.8,0.8,1.6,1.2,2.3c-0.7,0.4-1.3,0.4-1.7-0.5C439.1,391.5,439,390.9,439.9,390.5z"/>
	<path class="st96" d="M427.7,368.1c0,0.2,0,0.5,0,0.7c-1.7,2.2-3.1,1.2-4.5-0.3c-1.2-1.8-3-1.4-4.7-1.3c-7.9,0.6-15.4,3.3-23.1,4.3
		c-6.5,0.8-12.8,3-19.4,2.6c0,0,0,0,0,0c0-0.3,0-0.5,0-0.8c0.5-2.2,2.4-0.9,3.6-1.4c7.5-3,15.6-4.3,23.4-6.6
		c1.3-0.4,2.6-0.9,3.8-1.5c3.2-1.6,6.5-3.2,10.3-2.7c1.2,0.1,2.2-0.3,3.1-1.1c1-0.9,2.1-0.7,3.1-0.3c1.2,1.3,1.9,2.8,2.3,4.5
		C426.4,365.4,425.5,367.7,427.7,368.1z"/>
	<path class="st28" d="M423.2,359.8c-4.5,3.7-10.8,1.3-15.5,4.6c-4.7,3.2-10.6,3.6-15.9,5c-4.4,1.2-9.1,2.5-13.8,3.1
		c-0.7,0.1-1.5,0-2,0.8c-0.7,0-1.5,0-2.2,0c0-0.6,0.1-1.2,0.7-1.5c4.2,0.7,7.5-2.1,11.3-3c7.2-2.2,14.8-3.4,21.3-7.5
		c1.6-1,3.4-1.6,5.3-1.8c2.6-0.2,5.2,0,6.7-2.9c0.3-0.6,1.3-0.4,2,0.2C420.8,358.5,422.5,358.8,423.2,359.8z"/>
	<path class="st97" d="M316,414.5c-0.3-3-0.1-5.5,3.1-7c2.5-1.2,2.6-4.9,5.8-5.8c1-0.3,1.8-0.8,2.6,0c1.8,1.6,4.3,0.8,5.1-0.1
		c2.4-2.7,6.3-4,7.4-7.8c0.4-1.4,1.4-2.1,2.9-2.5c1.7-0.5,3.3-1.2,4.8-2c3.4-2,3.4-2,3.5,2.1c-3.8,2.6-5,7.2-8,10.4
		c-1.1,1.2-1.6,3.3-4,2.3c-0.1-0.8-0.4-1.5-1.4-1.4c-1.1,0.1-2.2,0.2-3.3,0.3c-6.3,1-6.3,1-6.6,7.5c-0.2,3.1-2,4.4-6,4.1
		C320,414.4,318,413.8,316,414.5z"/>
	<path class="st98" d="M274,443.8c1-0.1,1.9-2.2,2.6-0.8c0.9,1.6-0.9,2.9-1.6,4.5C273.5,446.2,274.2,444.9,274,443.8L274,443.8z"/>
	<path class="st99" d="M339.2,404c3.5-1.6,4.7-5.1,6.6-7.9c1.4-2.1,2.3-4.7,5.4-4.8c0.2,0.3,0.5,0.5,0.7,0.8
		c0.8,0.2,1.3,0.7,1.5,1.5c-0.2,1.6-1.3,2.6-2.2,3.8c-1.1,2.6-3.2,4.2-5.1,6.2c-1.1,3-3.5,4.6-6.1,6.1c-2.8,1.6-5,3.6-5.2,7.1
		c-0.1,1.1-0.4,2.6-1.3,3c-3.2,1.4-4.6,4.3-6.3,6.9c-3.4,1.2-6.9,2.2-9.5,4.8c-0.5,0.6-0.9,1.1-1.8,1.2c-0.3-3.2-0.2-6.1,3.5-7.5
		c2-0.7,2.8-2.1,2.6-4.3c-0.2-1.6,1.1-2.2,2.4-2.4c3.7-0.4,5.6-2.7,6.9-5.9c1.4-3.5,3.2-6.5,7.3-7.2
		C338.9,405.2,339,404.5,339.2,404z"/>
	<path class="st100" d="M454,494c3.6-0.4,4,2.7,4.3,4.7c0.4,2.8,2,4.6,4,5.4c3.8,1.6,4.9,4.6,5.2,8.1c0.2,2.7,1.8,4.6,3.2,6.9
		c1.1-1.2,0.9-3,2.9-3.7c0,2.2,0,4.3,0,6.3c-6,0-8.2-1.9-8.9-8.7c-0.4-3.6-0.8-5.9-5.5-6.3c-3-0.3-4.4-4.3-5.1-7.5
		c-0.2-1.2,0-2.5,0-3.7C453.5,495,453.6,494.5,454,494z"/>
	<path class="st101" d="M409.7,438.5c-2-3.2-3.8-6.5-3.7-10.5c2.2,2.5,2.6,6,4.5,8.7c0.7,1,1,1.7,2.5,2.1c4.1,0.9,4.4,5.3,6.5,8.1
		c2.6,3.5,3.9,7.8,8.3,10.3c3.2,1.8,4.8,5.8,5.3,9.8c0.5,0.5,0.4,1,0,1.5c-0.5-0.4-1.2-0.7-1.3-1.2c-1.4-5.7-6.3-8.5-9.9-12.3
		c-2-0.6-2.8-2.3-3.6-4c-1.6-3.5-3.6-6.7-6.8-9C410,441.1,410.4,439.6,409.7,438.5L409.7,438.5z"/>
	<path class="st102" d="M433,468.5c0-0.5,0-1,0-1.5c1.1-0.1,2.1,0.2,3,0.8c1.9,5.5,3.7,11.1,9.2,14.3c2.9,1.7,3.8,5,5.6,7.4
		c1.1,1.4,4.3,1.6,3.2,4.5c0,0.5,0,1,0,1.5c-2.5-2.1-6.5-2.8-6.1-7.3c0-0.4-0.4-1.1-0.7-1.2c-4.7-1.2-5.7-6.6-9.9-8.4
		c-0.6-0.3-1.2-1.8-1.1-2.6C436.3,472.9,434.9,470.6,433,468.5z"/>
	<path class="st94" d="M409.7,438.5c0.7,2.9,3.8,3.5,5.4,5.7c2.6,3.4,3.8,7.6,6.6,10.8c-0.6,0.3-0.7,0.9-0.8,1.5c-0.1,0-0.3,0-0.4,0
		c-4.6-4.6-9.2-9.2-10.8-15.7C409.6,440,409.7,439.3,409.7,438.5z"/>
	<path class="st94" d="M396.2,421.3c1,0.4,1.7,1.6,3,1.5C397.3,424.2,396.3,423.6,396.2,421.3z"/>
	<path class="st97" d="M358.7,380.8c0.2,0.2,0.5,0.5,0.7,0.7c-1.7,3.5-3.5,7-5.2,10.5c-2.8-0.4,0-2.9-1.5-3.7
		c-0.3-1.5-1-2.9-0.8-4.5c0-0.5,0-1,0-1.5c0.1-0.1,0.3-0.2,0.4-0.3c1.6,0.7,3.2,1.7,4.4-0.8C357,380.7,358,380.5,358.7,380.8z"/>
	<path class="st103" d="M352.8,388.3c2.3,0.6-0.2,3,1.5,3.7c0,0.6-0.1,1.2-0.7,1.5c-0.5-0.5-1-1-1.5-1.5
		C352.2,390.8,352.5,389.5,352.8,388.3z"/>
	<path class="st104" d="M301.8,394.3c2.3-4.6,6.4-3.8,10.4-3.7c2,0,4,0.4,4.1-2.8c0-1.8,1.8-1.9,3.2-1.7c6.2,0.8,12-2.2,18.3-1.7
		c1.9,0.2,4.4-1.5,6-2.9c2.8-2.6,5.6-2.7,8.8-1.1c0.2,0.1,0.7-0.2,1-0.3c1,1.8-0.8,1.6-1.5,2.2c0,0,0,0,0,0c-4-0.6-7.1,2.8-11.1,2.4
		c-0.3,0-0.8,0.6-0.9,1c-0.5,3.4-2.9,3.6-5.5,3.3c-4.3-0.5-7.5,2.2-11.3,3.5c-3.2,1.1-5,3.5-7.6,5c-1.2,0.7-2.4,0.5-3.6,0.5
		c-3.4,0-6.9,0.3-10.3-0.7C300.9,396.3,300.9,395.3,301.8,394.3z"/>
	<path class="st105" d="M301.8,394.3c0,1,0,2,0,3c-0.9,1.4-2.6,2.2-2.5,4.3c0.1,0.9-1,0.9-1.7,0.8c-0.6-0.1-1.1-0.8-0.9-0.9
		c2.4-2.1,1-6.4,4.3-7.9C301.3,393.8,301.5,394,301.8,394.3z"/>
	<path class="st106" d="M366.3,371.7c-0.7-1.4-0.4-3.2-1.6-4.4c-1.4-0.7-1.1-2-1.1-3.2c-2.3-5.4-3.4-11.1-4.8-16.7
		c-2.7-11.3-6.5-22.4-8.6-33.8c0.6-2.3-0.5-3.5-2.5-4.3c-1-1.1-0.7-1.9,0.5-2.6c1.3,0,2.6-0.1,3.8-0.8c0.1,0.1,0.2,0.2,0.3,0.3
		c5.7,1.5,6,1.5,5.6,7.7c-0.2,3.9,1.8,7.6,1.1,11.3c-1.1,6.8,2.3,12.3,4,18.3c1.4,4.8,0.8,9.9,1.5,14.8c0.4,3,0.9,5.8,2.4,8.5
		c0.4,1.2-1.4,2.9,0.7,3.8C367.5,371,367,371.5,366.3,371.7z"/>
	<path class="st107" d="M373,368c-1.2,1.5-1.7,3.6-3.8,4.4c0-0.5,0-0.9,0-1.4c1.4-6.1,5.3-11.2,6.7-17.2c0-0.2,0-0.5,0-0.7
		c1.3-2.7,2.7-5.2,3.3-8.2c0.3-1.4,1.2-2.4,2.6-2.9c2.1,0.1,3.9-1.8,6.1-0.8c0,0.5,0,1,0,1.5c1.5,2.3-0.3,3.5-1.7,4.6
		c-2,1.5-3.4,2.9-3.2,5.8c0.2,2.2-1.7,3.9-3.3,5.2C376.5,360.8,375,364.5,373,368z"/>
	<path class="st108" d="M376,353.8c0.2,3.2,0,6.2-2.8,8.4c-1.4,1.1-0.7,2.8-1.3,4.1c-0.7,1.7-0.8,3.7-2.7,4.7
		c-0.8-3.6,2.2-6.3,2.2-9.7C373,358.8,374.5,356.3,376,353.8z"/>
	<path class="st109" d="M382.7,331.3c1.7-3.3,4.3-6.2,3.9-10.5c-0.2-2.6,3.2-3.7,4.3-6c1.1,0.2,1.7,0.9,2.1,1.9
		c-0.8,6.4-2.2,12.5-8.8,15.8C383.5,332.4,382.5,332.6,382.7,331.3z"/>
	<path class="st108" d="M382.7,331.3c0.3,0.6,0.9,0.7,1.5,0.8c1.7,3.1,0.5,8.7-2.2,10.5c-1.5,0.8-2.1,2.2-2.2,3.7
		c-0.1,3-1.6,5.1-3.8,6.8c-0.1-4.2,0.3-8.3,3.9-11.3c1.1-1,0.4-2.6,0.6-3.9C380.8,335.5,381.4,333.3,382.7,331.3z"/>
	<path class="st110" d="M392.5,316.3c-0.7-0.3-1.2-0.8-1.5-1.5c-0.8-0.9-1.6-1.8-2.6-3c3,0.4,2.4-2.8,4.1-3.8
		c1.4,0.6,2.7,1.3,3.6,2.5c1.5,2-0.1,1.9-1.4,2c-1.3-0.4-1.7,0.4-1.7,1.4C393.1,314.9,393.3,315.7,392.5,316.3z"/>
	<path class="st111" d="M358.7,358.3c0,0.8,0,1.5,0,2.3c-2.4-3.3-5.3-6.3-6.6-10.3c-1-3.1-4.5-3.9-5.6-7.1c-1.1-3.3-2.8-6.5-5.9-8.7
		c-0.1-0.1-0.2-0.2-0.2-0.3c0.6-6.3-5.7-6.5-8.7-9.6c0-0.7,0.1-1.4,0.1-2.1c2.1,0.8,2.2-1,2.7-2.1c0.6-1.5,0.8-3.1,2.4-4
		c3.9,4.5,7.5,8.9,8.7,15.2c0.8,3.9,3.2,7.8,5.7,11.5c3,4.5,6,9.1,7.7,14.3C359.1,357.7,359,358,358.7,358.3z"/>
	<path class="st57" d="M361,368.8c-2.5-1.7-4.4-3.8-5.2-6.7c0.7,0.5,1.5,1,2.2,1.5C358.5,365.6,360.8,366.6,361,368.8z"/>
	<path class="st57" d="M355.7,362c-1.3,0.1-2.4-0.1-3-1.5C354,360.5,355.2,360.7,355.7,362z"/>
	<path class="st112" d="M358.7,358.3c0-0.3,0-0.5,0-0.8c-0.4-1.9-1.1-3.8-2-5.5c-3.7-7.6-5.7-15.8-9.2-23.4c-1.8-3.9-3.2-8.4-7.3-11
		c-1.5-0.9-1.4-2.8-1.7-4.4c2.5-3.2,6.3-4.6,9.7-6.7c-0.2,0.7-1.1,1.5,0,2.2c0.2,1.9-2,1.5-2.6,2.9c0,1.2,1.9,0.8,2.2,1.9
		c1.4,4.1,1.4,8.6,4.5,12.1c0.6,0.7,0.6,1.9,0.6,2.9c-0.1,3,1.1,5.4,2.5,8c2.5,4.7,3.8,10,4.6,15.3c0.5,2.8,2.3,5.6,0.9,8.6
		C360.2,359.8,359.5,359,358.7,358.3z"/>
	<path class="st89" d="M338.5,313.3c1.2,3.4,4.7,4.9,6.4,7.9c5.8,10.6,9.1,22.2,13.5,33.3c0.3,0.9,0.3,2,0.4,2.9
		c-2.2-4.5-5-8.6-7.2-13.1c-1-2.2-2.7-4-4-6.2c-2.5-4.5-3.1-9.5-5.1-14c-0.9-2-2.8-3.7-4.4-5.3c-0.8-0.8-1.2-1.6-1.1-2.6
		C337.1,315.1,337.5,314.1,338.5,313.3z"/>
	<path class="st113" d="M373,368c0.7-4.1,2.6-7.4,5.7-10.2c1.8-1.6,4.5-3.3,3.3-6.7c-0.7-2,1.1-2.8,2.4-3.7c1.8-1.2,3.7-2.2,3.5-4.8
		c3.3-3.5,5.9-7.4,7.6-12c0.9-2.3,2-4.5,3.3-6.6c0.9-1.6,2.3-2,4.2-1.8c0.8,0.1,1.1,0.3,1.2,0.9c0.1,0.5-0.2,1-0.1,1.4
		c0.4,1.4,1.6,2.1,2.5,3.1c-1.3,0.9-2.9,1.4-1.7,3.6c0.6,1.1-0.2,2.8-1.3,3.2c-1.7,0.5-1.3-1.2-1.5-2.2c-0.1-0.6-0.2-1.3-0.9-1.4
		c-0.7-0.1-1.2,0.3-1.4,0.9c-1.7,3.8-5.9,5.7-7.3,10.1c-0.8,2.4-3.4,4.3-5.2,6.4c-1.6,1.9-3.2,3.8-3.2,6.4
		C381.1,359.5,376.6,363.5,373,368z"/>
	<path class="st88" d="M406,333.6c0.8,4.6-3.5,6.2-5.6,8.9c-2.8,3.5-6.8,6.2-9.5,9.9c-1.1,1.5-2.9,0.9-4.4,1.4
		c0.1-0.7,0-1.8,0.4-2.1c5.6-3.9,9.2-9.7,13.8-14.4C402.2,335.8,405.3,336.4,406,333.6z"/>
	<path class="st114" d="M392.5,316.3c0-1-0.1-2,0-3c0.2-1.6,1-1.9,2.2-0.8c-1.1,0.5-1.5,1.2-0.4,2.2c0.6,0.5,1.5,1,1.9,0.3
		c2.8-4.6,3.5-0.8,4.7,1.1c0.2,0.3,0.4,0.6,0.6,0.9c-2.7-0.7-3.7,0.4-4.6,3c-1.5,4-3.6,7.8-4.5,12c-0.1,0.3-0.3,0.8-0.6,0.9
		c-4.6,1.2-3.8,4.8-3.8,8.1c-2,0.6-3.7,2.1-6,1.5c1.4-3.4,2.9-6.7,2.2-10.5C389.5,328.1,391.3,322.4,392.5,316.3z"/>
	<path class="st115" d="M413.5,340.3c-1.8,0.1-2.2,1.3-2.3,2.8c-0.2,2.7-2.1,4.7-4.2,5c-3.2,0.4-4.5,2.8-6.5,4.4
		c-1.2,0.9-2.1,2-3.7,2.1c-0.2,0-0.6,0-0.7,0.2c-2.8,5.8-11.2,4.1-13.8,10.7c-1.1,2.7-5.5,3.4-8.4,4.9c0.8-2.1,1.4-4.4,4.5-3.7
		c3.3-1.4,3.9-5.2,6.5-7.2c0.7-0.6,1.1-1.7,2.3-1.7c3.8,0,5.6-2.9,8.1-5.1c3.8-3.4,6.5-8.1,11.7-9.9c1.5-0.5,1.6-1.4,1.2-2.6
		c-0.5-1.5-0.8-2.8,0.1-4.6C410,337.1,411.7,338.7,413.5,340.3z"/>
	<path class="st116" d="M383.5,367.3c1.4-2.4,3.3-4,6.2-4.8c3.8-1.1,6.2-5,10-6.1c4.7-1.3,7.3-6.3,12.6-6.5c0.9,0,1.1-0.8,1.2-1.6
		c0.2-1.8,1.5-2.1,3-2.1c0,0.5,0,1,0,1.5c-2.6-0.7-2.3,1.6-2.2,2.7c0.4,3.8-2.2,4.8-4.8,5.4c-8.1,2-15.3,5.8-22.2,10.3
		C386,367,384.9,367.3,383.5,367.3z"/>
	<path class="st117" d="M421,356.8c-0.2,0-0.7-0.1-0.7,0c-2.7,5.4-8.7,2.6-12.6,5.1c-4.1,2.7-8.4,4.6-13.3,5.4
		c-2.9,0.5-5.6,2-8.7,1.5c8.1-3.3,15.8-7.6,24.4-10c1.8-0.5,3.3-1.7,5.4-1.2c0.6,0.2,1.6-0.3,1.8-1.1c0.3-2.4,1.8-2.5,3.6-2
		C420.9,355.3,421,356.1,421,356.8z"/>
	<path class="st118" d="M424,368.8c1.3,0.5,2.5,0.5,3.8,0c0.2,0,0.5,0,0.7,0.1c0.1,1,0.8,2.2-1.1,2.4c-2.5,0.2-4.8,1.5-7.5,1.3
		c-6.6-0.4-13.3,1.8-19.9,0c0-1.7,1.3-2.1,2.5-2.3C409.6,368.9,416.7,367.8,424,368.8z"/>
	<path class="st118" d="M427.7,368.1c-3,0.1-1.7-2.4-2.2-3.8C426.5,365.4,427.6,366.5,427.7,368.1z"/>
	<path class="st119" d="M299.5,511.2c-1.7-1-3.5-1-5.2,0c-3.1-1.6-3.6-3.3-2.9-7.3c0.9-5.2,2.3-9,6.5-12.3c1.3-1,2.7-3,2.4-5.2
		c0.8-1.8,2.5-3,3.2-4.9c2.2-3.5,3.8-7.3,5.7-11c0.1-0.3,0.2-0.6,0.4-1c0.7-2.7,3.3-4.3,3.9-7.1c0.2-0.3,0.5-0.5,0.9-0.6
		c3.6,0.9,4.4,2.9,3.2,8c-0.4,3.7-1.6,7-4.1,9.8c-1.7,1.9-1.3,4.7-2.7,6.7c-0.6,0.5-1.3,0.6-2,0.3c-0.8-0.6-0.5-1.6-0.7-3
		c-0.4,1.6-0.8,2.6-1.4,3.6c-0.3,0.4-0.1-0.1-0.1,0.3c0,0.8,0.4,0.2,0.7,0.1c1.2,0,1.8,0.6,2.1,1.7c-0.5,1.2-1,2.5-1.5,3.7
		c-0.5,0.5-1,1-1.5,1.5c-2.2,0.6-1.1,2.4-1.5,3.7c-0.4,2.5-0.7,5.1-3,6.7c-3.7,0.4-2.4,2.5-1.5,4.5
		C300,510.2,299.7,510.7,299.5,511.2z"/>
	<path class="st79" d="M317.5,470c-0.6-1.7-0.1-3.5-0.7-5.2c-0.5-1.8-1.5-2.3-3.1-2.3c0-2,1.7-3.5,1.7-5.6c0.1-0.3,0.4-0.6,0.6-0.8
		c3.1-1.2,0.1-3.5,0.9-5.2c0.1-0.3,0.4-0.6,0.7-0.8c1.8-0.6,3,2.5,4.9,0.9c0.6,1,2.3,1,2.4,2.4c-0.4,3.7-3,6.5-4.2,10
		C320.1,465.7,319.3,468.2,317.5,470z"/>
	<path class="st120" d="M308.5,486.5c0.7,0,1.5,0,2.2,0c-0.5,1-1,2-1.5,3c-0.7-0.5-1.5-1-2.2-1.5
		C306.4,486.4,306.9,485.9,308.5,486.5z"/>
	<path class="st121" d="M325,453.5c-0.4-1.1-2.3-0.7-2.3-2.2c-0.2-0.7,0.1-0.9,0.8-0.8c1.8-0.1,3.4-0.1,1.5,2.3
		C325,453,325,453.3,325,453.5z"/>
	<path class="st122" d="M300.2,509.8c-0.9-0.3-0.6-2.2-2.2-1.6c0.1-0.9-0.2-2,0.2-2.5c0.9-1.1,2.2-1.3,3.4-0.4
		C301.3,506.7,300.8,508.2,300.2,509.8z"/>
	<path class="st123" d="M304.8,498.5c-1.7-1.4,0.2-3.2-0.9-5.2c1.2,0.7,1.8,1.1,2.4,1.4C305.1,495.7,306.8,497.9,304.8,498.5z"/>
	<path class="st68" d="M326.5,440c0,0.7,0,1.5,0,2.2c-1.2,2-2,4.2-5.3,4c-1.6-0.1-1.9,3.2-3.7,4.2l0,0c-1.2,1.8,0.2,4.3-1.5,6l0,0
		c-0.3,0.3-0.5,0.6-0.8,0.7c-4.7,2.4-6.7,6.6-8,11.4c-0.9,3.3-2.5,6.1-6.5,6.9c-2.3,0.4-2.5,2-1.3,3.9c1.8,2.8,1.4,3.7-1.9,4.4
		c-2.1,0.4-3.8,1.2-4.5,3.3c-0.4,1.1-1.2,2-2.3,2.4c-3.3,1.2-3.6,4.6-5.2,7c-0.3,0.4-0.3,0-0.1,0.3c2.8,3.6-0.7,5.2-2.2,7.6
		c-1,1.6-1.4,3-3.8,2.4c-1.6-0.4-1.5,1.4-1.6,2.3c-0.7,4.6-5,5.4-7.8,7.9c-0.5,0.5-1.4,0-2-0.5h0c1.8-5.2,2.5-10.8,6.2-15.4
		c2.3-2.9,4.6-5.9,6.2-9.5c0.8-1.8,3.1-3.1,5-4.3c5.1-3.2,7.7-8.2,10.7-13.1c1.7-2.8,4.3-5.3,6.3-8.2c0.5-0.7,1.5-1.4,1.5-2.1
		c-0.3-6.2,4.3-9.5,8.3-12.4c3-2.2,3.7-5.7,6.5-7.8c0.9-0.6,1.2-2,2.7-2.4c1.2-0.4,2.7-1.3,1.1-3c-0.2-0.2-0.3-0.4-0.3-0.7
		c0-0.5,0-1.4,0.1-1.4c3.9-1,1.1-6.5,5-7.4c0.6,0.1,0.6,1.4,1.5,0.7c0.2-0.4,0.5-0.7,0.9-1c1.7-0.1,1.8-1.4,2.1-2.6
		c0.2-1.1,0.5-2.3,2.1-1.9c1,0.8,0.5,1.9,0.7,2.9c-0.4,3.1-2.3,5.1-5,6.4c0,1.3,0,2.5,0,3.8C327.9,437.4,325.6,437.1,326.5,440z"/>
	<path class="st124" d="M334,424.3c-2.1,0.3-1.2,2-1.5,3.2c-0.4,1.5-0.8,3.4-2.9,1.3c-0.5-0.3-1-0.7-1.5-1c-0.3-0.1-0.5-0.3-0.7-0.5
		c0-0.3,0-0.5,0-0.8c0.5-1,0.8-2,0.8-3.2c-0.1-1.7,0.2-2.8,2.3-2.8c2.5,0,3.6-1.9,3.5-3.9c-0.2-2.9,1.2-4.8,3.2-6.2
		c3.3-2.3,6.8-4.2,8.9-7.8c1.4,1.2,2.1,2.6,1.5,4.5c-0.2,0.3-0.5,0.5-0.7,0.8c-1.4-0.3-2.6,0-2.9,1.6c-0.6,4.7-4.3,7.4-6.9,10.8
		C336,421.5,335,422.9,334,424.3z"/>
	<path class="st87" d="M327.3,427.3c0.2,0,0.5,0,0.7,0c1.1,0.7,0.4,2.3,1.5,3c-0.1,0.8-0.4,1.6-1.3,1.3c-1.5-0.4-0.8-1.8-0.9-2.8
		C327.3,428.3,327.3,427.8,327.3,427.3z"/>
	<path class="st87" d="M268,516.5c4-0.5,8.4-4.7,9-8.7c0.4-2.7,0.8-2.9,3.3-1.6c0.8,0.4,1.4,0.1,1.5-0.4c0.5-2.2,1.3-3.9,3.6-4.7
		c0.9-0.3,0.9-2-0.3-2.4c-2.9-0.8-0.9-1.8-0.4-3c1.5-3.4,4.5-5.5,6.7-8.2c2.2-2.6,3.5-4.8,7.1-4.6c0.4,0,1-0.7,1.3-1.2
		c0.4-0.8-0.2-1.1-0.8-1.3c-2.4-0.7-1.4-2.3-1.1-3.9c0.3-1.9,1.4-2.1,2.9-2.1c3.5,0.1,4.8-2.8,5.3-5.1c0.6-2.6,1.7-5.2,2.5-7.6
		c1-2.6,4.1-4.7,7.4-5.3c0.4,2.4-0.3,4.5-2.2,6c-1.7,2.3-3.9,4.3-3.7,7.5c-2.4,3.8-4.6,7.7-6,12c-0.6,2-1.7,3.7-3.7,4.5
		c-4.9-0.1-8.1,2.3-10.1,6.6c-0.4,0.8-0.8,1.5-1.4,2.2c-1.4,1.7-2.2,3,1,3.3c1.7,0.2,1.9,1.8,0.5,2.1c-4.7,1-5.9,5.9-9.7,7.9
		c-0.9,0.5-0.7,1.6-0.5,2.4c0.2,1.1,1.2,0.5,1.8,0.7c1.4,0.7,2.2-1,3.5-0.7c-2.2,3.2-2.2,3.2-5.6,3.1c-1.1,0-1.6,0.7-1.7,1.6
		c-0.1,1,2.3,2,0.3,3c-2.1,1.1-3.8,2.9-6.3,3.1c-0.9,0.1-1.7,0-2.6,0C266.8,520.6,268.5,518.2,268,516.5z"/>
	<path class="st87" d="M347.5,407c-0.5-1.5-1-3-1.5-4.5c1.3-2.2,3.3-3.7,5.3-5.2c0.8,3-1.3,5.1-2.3,7.5
		C348.5,405.5,348,406.3,347.5,407z"/>
	<path class="st87" d="M334,424.3c-0.8-4,3.1-5.5,4.9-7.9c1.8-2.4,3.6-4.6,4-7.5c0.2-1.9,2.3-1.5,2.9-2.8c0.1-0.1,0.8,1,0.9,1.7
		c0,2.5-2.2,4.3-2.3,6.7c-3.2,6.5-6.5,13-9.7,19.5c-1.8-1.1-0.4-2.4-0.3-3.6c0.2-1.3,1.4-2.8-0.5-3.9
		C333.1,425.8,334.3,425,334,424.3z"/>
	<path class="st125" d="M334,426.5c2.2-0.8,2.2,0.3,2,2c-0.2,1.9-2,3.4-1.3,5.5c0,0.2,0,0.5,0,0.7c-0.5-0.1-1.2-0.4-1.3-0.2
		c-2.3,2.6-3,0.4-3.9-1.2C330.8,430.9,333.8,429.6,334,426.5z"/>
	<path class="st126" d="M321.3,345.5c1.1-1.6,3.1-2.3,3.6-4.5c0.2-0.8,1.3-2,2.5-0.4c4.5,5.9,11.5,9,16.8,14
		c5.1,4.9,11.4,8.8,15.3,15c-4.4-2.2-7.2-6.4-11.3-8.8c-2.1-1.2-3.6-2.9-6.4-3.3c-1.7-0.2-3.9-2.7-5.1-4.4c-2.5-3.5-6.9-4.7-9.2-8.3
		c-0.6-1-1.6-0.3-2.3,0C323.8,345.2,322.7,346.2,321.3,345.5z"/>
	<path class="st127" d="M359.5,371.8c-0.7,0-1.5,0-2.2,0c-0.3,0-0.5,0-0.8,0c-3.8-0.1-6.1-2.5-8.2-5.2c0.8,0,1.5,0,2.3,0
		C354.6,366.4,356.1,370.7,359.5,371.8z"/>
	<path class="st126" d="M361.7,370.3c0.5,0.8,1.6,1.1,1.5,2.3c-2.2,0.8-2-1.5-3-2.3C360.7,370.3,361.2,370.3,361.7,370.3z"/>
	<path class="st77" d="M427.7,377.8c3.5-0.6,3.1,2.9,4.5,4.4c0.3,0.4,0.2,1.2,0.8,1.5c0.8,1.3,0.7,2.4-0.7,3.2c-1.6,1-3.3,0.8-5,0
		c-1.4-0.7-1-1.8-0.5-2.8c0.3-0.6,0.8-1.4-0.2-1.9c-0.8-0.4-1.7-0.9-2.4-0.2c-2.2,1.8-4.4,1-6.7,0.4c-2-0.5-4-1.2-6.2-0.2
		c-0.7,0.3-1.9,0.3-2.5-0.1c-5.9-4.4-12.7-3.1-19.2-3.4c-2.6-0.1-5.1-0.4-7.5-1.5c8.2-1.5,16.5-1,24.7-0.2c5.8,0.6,11.6,1,17.4-0.2
		c0.5-0.1,1,0.1,1.4,0.4C425.7,379,426.8,378.2,427.7,377.8z"/>
	<path class="st76" d="M425.5,377c-5,2.7-10.6,2-15.7,1.3c-9.3-1.3-18.5-1.7-27.8-1.3c-0.2,0-0.5,0-0.7,0c-1.4-1.7-3.8,0.2-5.2-1.5
		c7.3,0.5,14.6,0,21.9,0c5.9,0,11.8,0,17.7,0c3.7,0,7.4,0.5,10.8-1.4C427.1,375.7,425.7,376.1,425.5,377z"/>
	<path class="st33" d="M424,368.8c-0.8,1.1-2,0.8-3.1,0.7c-6.1-0.3-12,0.9-18,1.5c-1.1,0.1-2.2,0.5-2.9,1.5
		c-5.8,0.7-11.7,1.3-17.5,2c-2.2,0.2-4.4,0.9-6.5-0.5c6.6-1.7,13.4-2.6,20.2-3.8c7.4-1.4,14.8-3.5,22.3-4.2
		C420.6,365.9,424.1,364,424,368.8z"/>
	<path class="st87" d="M317.5,450.5c1.3-2.2,1.1-5.8,5.4-5.1c2,0.3,1.5-3,3.6-3.2c0,3.1-3,5.1-3,8.2c-0.3,0.3-0.5,0.5-0.8,0.8
		c-1.1,1.2-2.1,3.1-3.4,0.2C319.1,450.7,318.3,450.6,317.5,450.5z"/>
	<path class="st87" d="M326.5,440c-0.9-1-2.2-2-1.1-3.5c1.6-2.2,2.7,0.9,4.1,0.5C328.5,438,327.5,439,326.5,440z"/>
	<path class="st128" d="M328,443.8c0.7,0.3,1.2,0.8,1.5,1.5c-0.3,0.3-0.8,1-0.9,0.9C327.4,445.7,328.3,444.6,328,443.8z"/>
	<path class="st48" d="M352,382.3c0.5-0.8,1.6-1.1,1.5-2.2c2.3-3.6,3.5,0.6,5.2,0.8c-0.4,0.2-1.1,0.4-1.2,0.7
		C356.2,385.5,354.3,385.1,352,382.3z"/>
	<path class="st82" d="M308.9,376.7c0.7-0.1,0.9,0.2,0.8,0.6c-0.2,0.4-0.5,0.8-0.9,1c-0.4,0.2-0.7-0.1-0.6-0.5
		C308.4,377.3,308.7,377,308.9,376.7z"/>
	<path class="st90" d="M348.2,366.5c3.5,0.5,4.6,4.9,8.2,5.2c-6-0.4-12-0.1-17.9-1.9c-1-0.3-2.2-0.3-3.3-0.3
		c-2.9-0.1-5.9,0.6-8.5-1.9c-0.8-0.7-2.6-0.4-4-0.4c-6.9,0-6.9,0-6.9-6.8c0.7,0.4,1.1,1.5,2.1,1.4c4.5-0.3,8.9,0.9,13.3,1.4
		c3.3,0.4,6.3,0.6,8.6,3.2C342.7,365.1,345.5,365.3,348.2,366.5L348.2,366.5z"/>
	<path class="st127" d="M348.2,366.5c-2.7,0-5.5,0-8.2,0c-0.1-1.2-1.1-2.5,0-3.7c1.1,0.8,1.6,2.4,3.6,1.1
		C346,362.5,346.8,365.5,348.2,366.5z"/>
	<path class="st129" d="M361,360.5c-0.9-7.8-2.7-15.4-5.9-22.4c-1.7-3.6-3.4-6.9-3.2-11c0-0.8-0.4-2-1-2.3c-4-2.4-1.8-7.1-3.9-10.2
		c-0.1-0.2,0.3-0.9,0.5-1.3c0.6-2,1.8-1.5,3-0.8c1.1,1.4,1.7,2.9,1.5,4.8c-0.2,1.6,0.3,3.1,0.9,4.7c2.4,6.1,2.9,12.7,5.2,18.8
		c2.4,6.4,2,13.4,5.4,19.5c0.7,1.3,0.5,2.7,0.5,4c-0.2,0.3-0.5,0.3-0.7,0c0-0.5,0-1,0-1.5C362.7,361.8,362,361.1,361,360.5
		L361,360.5z"/>
	<path class="st112" d="M361,360.5c1.4,0.1,2.2,0.8,2.2,2.3C362.2,362.3,361.5,361.6,361,360.5z"/>
	<path class="st112" d="M363.2,364.3c0.2,0,0.5,0,0.7,0c-0.1,1.1,0.2,2.1,0.8,3C362.7,367,363.4,365.5,363.2,364.3z"/>
	<path class="st130" d="M350.5,312.6c-1,0.1-2.2-0.3-3,0.8c-1.2-0.3-3.1,0.8-3.5-1c-0.4-1.7,1.5-2,2.7-2.6c0.5-0.3,1.1-0.6,1.6-0.9
		C349.1,310,354.1,308.7,350.5,312.6z"/>
	<path class="st79" d="M304,482c0.3-4.9,2.6-8.7,6-12C308.7,474.4,306.6,478.3,304,482z"/>
	<path class="st131" d="M308.5,486.5c-1,0-1.5,0.5-1.5,1.5c-0.1,0.9,0.2,1.9-0.9,2.8c-2.2-3.5,2.2-5.9,1.1-9.1
		C309,483.1,309.7,484.5,308.5,486.5z"/>
	<path class="st79" d="M310,470c-0.5-1.5-0.1-2.9,0-4.4c0.1-1.1-0.3-2.4,1.7-1.4c1.1,0.5,1.1-1.4,2.1-1.7
		C314.3,465.9,310.9,467.3,310,470z"/>
	<path class="st87" d="M316,456.5c0.1-2.1-0.5-4.4,1.5-6c-0.1,1,0.2,2,0.7,2.9C319.7,456,318.5,456.7,316,456.5z"/>
	<path class="st132" d="M329.5,430.3c-2-0.2-1.3-1.8-1.5-3c2-1.1,1.3,0.7,1.5,1.5C329.5,429.3,329.5,429.8,329.5,430.3z"/>
</g>
<g id="图层_2">
	<path class="st133" d="M524.6,123l-74.3,39l291.6,139.9c2.8,1.3,4.8,3.9,5.5,6.9L795,516.1c1.1,4.8,7.7,5.2,9.4,0.6l42.9-116
		c1.1-2.9,1.2-6.1,0.5-9.1L814,259.5c-1.2-4.9-4.6-8.9-9.1-11.1L540.1,122.7C535.2,120.4,529.4,120.5,524.6,123z"/>
</g>
<g id="图层_3">
	<path class="st134" d="M686.6,584.2l-21.2-81.3L463.2,755.3c-1.9,2.4-4.8,3.8-7.9,3.8L242,758.6c-4.7,0-6.6,6.1-2.6,8.7l103.8,68.3
		c2.6,1.7,5.6,2.5,8.6,2.5l136.5-3c5-0.1,9.6-2.4,12.7-6.3l182.4-229.6C686.8,595,688,589.4,686.6,584.2z"/>
	<path class="st135" d="M259,152.6l-15.7,82.5L534.2,93.7c2.8-1.3,6-1.4,8.7,0l192.6,91.8c4.3,2,8.6-2.7,6.1-6.8L677,72.5
		c-1.6-2.6-3.9-4.7-6.7-5.9L545.7,10.8c-4.5-2-9.8-1.9-14.2,0.3L268.3,140.4C263.4,142.8,260,147.3,259,152.6z"/>
	<path class="st136" d="M719.2,313.2l-76.9-33.8l72.5,315.2c0.7,3,0,6.1-1.9,8.5l-132.7,167c-2.9,3.7,0.7,9,5.2,7.5l118-39
		c2.9-1,5.5-2.8,7.3-5.2L793,624.5c3-4,4.1-9.1,2.9-13.9L729,325C727.8,319.7,724.1,315.4,719.2,313.2z"/>
	<path class="st137" d="M457.8,723l49.8-67.7l-323.4,2c-3.1,0-6-1.4-7.9-3.7l-134-166c-3-3.7-8.9-1.2-8.5,3.5l12.4,123.7
		c0.3,3,1.5,5.9,3.5,8.3L137.9,727c3.2,3.8,8,6,12.9,5.9l293.3-3C449.5,729.9,454.6,727.3,457.8,723z"/>
	<path class="st138" d="M202.2,632.8l84-3L83.7,377.5c-1.9-2.4-2.6-5.5-2-8.5l46.9-208.1c1-4.6-4.6-7.8-8-4.5l-89.3,86.5
		c-2.2,2.1-3.7,4.9-4.3,7.9L0.3,384.7c-1,4.9,0.3,9.9,3.4,13.8l184.4,228C191.6,630.7,196.8,633,202.2,632.8z"/>
	<path class="st139" d="M114.6,377.5l54.9,63.6l69.8-315.8c0.7-3,2.6-5.5,5.4-6.9l191.6-93.9c4.3-2.1,3.2-8.4-1.5-9L311.4,0.1
		c-3-0.4-6.1,0.2-8.8,1.6l-121.1,63c-4.4,2.3-7.6,6.4-8.6,11.3l-62.1,286.6C109.6,367.9,111,373.4,114.6,377.5z"/>
</g>
</svg>
